<svg width="1418" height="800" viewBox="0 0 1418 800" fill="none" xmlns="http://www.w3.org/2000/svg">
<g clip-path="url(#clip0_20_1301)">
<path fill-rule="evenodd" clip-rule="evenodd" d="M108.854 685.463C111.784 684.452 114.849 684.77 117.442 686.056C120.099 687.351 122.22 689.719 123.256 692.75C124.281 695.842 123.934 699.055 122.561 701.744C121.163 704.442 118.684 706.575 115.543 707.563C112.374 708.445 109.127 708.01 106.459 706.49C103.827 704.987 101.756 702.491 100.904 699.377C100.081 696.282 100.542 693.178 102.025 690.627C103.479 688.17 105.848 686.212 108.854 685.463ZM109.266 686.825C106.794 687.672 104.918 689.455 103.85 691.627C102.816 693.731 102.593 696.222 103.413 698.633C104.19 700.971 105.864 702.757 107.904 703.807C109.904 704.841 112.278 705.107 114.584 704.395C116.903 703.736 118.72 702.198 119.812 700.248C120.923 698.264 121.334 695.888 120.682 693.513C120.031 691.052 118.467 689.091 116.443 687.893C114.35 686.659 111.799 686.188 109.266 686.825Z" fill="black"/>
<path fill-rule="evenodd" clip-rule="evenodd" d="M103.335 681.673C102.995 681.879 102.55 681.767 102.332 681.41C102.115 681.052 102.221 680.608 102.561 680.403C106.861 677.697 111.852 676.964 116.488 678.021C121.173 679.049 125.464 681.943 128.267 686.334C131.068 690.781 131.795 695.937 130.698 700.673C129.604 705.462 126.617 709.764 122.125 712.531C117.592 715.215 112.371 715.815 107.616 714.558C102.913 713.324 98.6683 710.293 96.0369 705.799C93.7255 701.817 93.0123 697.359 93.7477 693.167C94.4811 688.976 96.6391 685.065 100.045 682.248C100.356 682.006 100.796 682.012 101.071 682.334C101.322 682.617 101.29 683.071 101.004 683.352C98.0241 686.021 96.2329 689.656 95.7393 693.485C95.2596 697.197 96.0235 701.081 98.2003 704.492C100.588 708.265 104.289 710.701 108.323 711.633C112.326 712.583 116.665 712.027 120.408 709.712C124.168 707.441 126.652 703.877 127.644 699.91C128.658 695.93 128.188 691.542 125.948 687.735C123.661 683.793 120.019 681.157 115.978 680.067C111.865 678.966 107.312 679.38 103.335 681.673Z" fill="black"/>
<path fill-rule="evenodd" clip-rule="evenodd" d="M104.864 672.243C111.445 670.158 118.257 670.937 123.965 673.909C129.747 676.926 134.361 682.155 136.499 688.85C138.611 695.554 137.796 702.525 134.763 708.356C131.685 714.133 126.365 718.775 119.559 720.793C112.738 722.748 105.742 721.824 99.9502 718.61C94.2046 715.45 89.6543 710.069 87.6961 703.319C85.7591 696.564 86.7042 689.687 89.848 684.024C92.9777 678.499 98.2112 674.082 104.864 672.243ZM105.271 673.588C99.1551 675.534 94.4036 679.742 91.6708 685.016C88.9885 690.276 88.2652 696.488 90.2058 702.576C92.0886 708.547 96.2305 713.183 101.391 715.918C106.522 718.661 112.651 719.442 118.597 717.613C124.575 715.907 129.252 711.922 132.008 706.84C134.79 701.751 135.672 695.626 133.925 689.613C132.167 683.471 128.118 678.675 122.982 675.8C117.756 672.818 111.457 671.887 105.271 673.588Z" fill="black"/>
<path fill-rule="evenodd" clip-rule="evenodd" d="M101.289 665.982C109.588 662.965 118.344 663.546 125.826 667.024C133.363 670.483 139.57 676.86 142.707 685.282C145.818 693.714 145.227 702.665 141.71 710.202C138.166 717.748 131.703 723.963 123.191 726.969C114.681 729.973 105.719 729.203 98.141 725.496C90.6193 721.857 84.4871 715.366 81.525 706.882C78.5838 698.391 79.3252 689.561 82.9515 682.161C86.5281 674.778 92.9357 668.844 101.289 665.982ZM101.79 667.379C93.948 670.235 88.032 675.996 84.8267 683.073C81.6431 690.054 81.0895 698.206 83.993 706.011C86.8206 713.668 92.5371 719.518 99.4523 722.76C106.339 726.011 114.419 726.656 122.076 723.865C129.784 721.231 135.627 715.671 138.885 708.838C142.169 701.996 142.867 693.881 140.175 686.176C137.454 678.306 131.833 672.335 124.925 668.916C117.963 665.516 109.685 664.679 101.79 667.379Z" fill="black"/>
<path fill-rule="evenodd" clip-rule="evenodd" d="M86.7903 663.913C86.4777 664.158 86.0194 664.098 85.7473 663.752C85.4751 663.406 85.5253 662.948 85.8379 662.703C94.9606 655.419 106.247 652.59 117.028 653.788C127.923 655.038 138.335 660.439 145.765 669.711C153.173 679.002 156.113 690.393 154.861 701.294C153.656 712.298 148.178 722.736 138.833 730.054C129.493 737.368 118.039 740.189 107.048 738.736C96.1492 737.349 85.762 731.79 78.4802 722.401C71.6859 713.608 68.8373 703.124 69.5949 692.889C70.3638 682.645 74.8716 672.827 82.7267 665.419C83.0384 665.175 83.5188 665.218 83.7529 665.453C84.0561 665.775 84.0322 666.213 83.7213 666.456C76.2968 673.668 72.2376 683.274 71.6625 693.086C71.0986 702.75 73.9644 712.663 80.4996 720.819C87.4318 729.504 97.2134 734.559 107.438 735.775C117.569 736.924 128.203 734.326 136.792 727.46C145.511 720.772 150.555 711.093 151.765 700.924C152.996 690.737 150.389 680.063 143.642 671.373C136.782 662.493 127.039 657.267 116.806 655.919C106.459 654.519 95.664 657.104 86.7903 663.913Z" fill="black"/>
<path fill-rule="evenodd" clip-rule="evenodd" d="M113.209 696.919C112.809 696.897 112.506 696.552 112.538 696.145C112.556 695.753 112.897 695.451 113.297 695.473C113.297 695.473 120.446 695.518 129.548 695.793C131.64 695.845 133.829 695.926 136.05 696.036C137.49 696.092 138.927 696.173 140.38 696.267C144.081 696.521 147.763 696.868 151.174 697.197C160.261 698.057 167.36 698.901 167.36 698.901C167.761 698.923 168.063 699.268 168.032 699.675C168.013 700.067 167.673 700.368 167.272 700.347C167.272 700.347 160.131 700.282 151.018 699.997C147.587 699.895 143.894 699.757 140.189 699.553C138.745 699.466 137.299 699.351 135.863 699.244C133.647 699.057 131.463 698.871 129.385 698.668C120.313 697.767 113.209 696.919 113.209 696.919Z" fill="black"/>
<path fill-rule="evenodd" clip-rule="evenodd" d="M162.008 699.195C162.128 699.272 162.236 699.366 162.359 699.445C164.183 700.814 166.186 702.446 166.186 702.446C166.535 702.641 166.648 703.092 166.451 703.437C166.254 703.782 165.82 703.894 165.47 703.699C165.47 703.699 163.043 702.812 160.949 701.916C160.289 701.641 159.684 701.36 159.188 701.119C158.506 700.771 158.055 700.515 158.055 700.515C157.535 700.198 157.203 699.638 157.222 699.03C157.255 698.406 157.604 697.867 158.151 697.609C158.151 697.609 159.432 697.037 160.935 696.522C162.949 695.827 165.268 695.234 165.268 695.234C165.629 695.059 166.059 695.214 166.228 695.579C166.41 695.928 166.255 696.364 165.894 696.539C165.894 696.539 163.97 697.965 162.173 699.093C162.118 699.127 162.063 699.161 162.008 699.195Z" fill="black"/>
<path fill-rule="evenodd" clip-rule="evenodd" d="M164.21 708.53C163.827 708.442 163.561 708.074 163.641 707.681C163.72 707.289 164.095 707.043 164.491 707.116C164.491 707.116 168.883 707.591 174.463 708.419C175.74 708.605 177.077 708.816 178.439 709.049C179.308 709.206 180.183 709.369 181.071 709.543C183.298 710.038 185.525 710.588 187.576 711.121C193.047 712.533 197.28 713.794 197.28 713.794C197.677 713.867 197.929 714.25 197.85 714.643C197.77 715.035 197.396 715.281 196.999 715.208C196.999 715.208 192.615 714.713 187.027 713.878C184.938 713.556 182.682 713.199 180.433 712.766C179.551 712.598 178.671 712.403 177.812 712.199C176.475 711.88 175.151 711.572 173.915 711.231C168.447 709.793 164.21 708.53 164.21 708.53Z" fill="black"/>
<path fill-rule="evenodd" clip-rule="evenodd" d="M111.469 698.504C111.122 698.311 110.975 697.885 111.161 697.53C111.347 697.175 111.784 697.038 112.131 697.231C112.131 697.231 118.117 699.907 125.67 703.51C127.398 704.333 129.198 705.218 131.029 706.131C132.205 706.718 133.393 707.316 134.56 707.95C137.558 709.551 140.528 711.208 143.26 712.767C150.529 716.912 156.143 720.298 156.143 720.298C156.504 720.475 156.637 720.917 156.451 721.272C156.265 721.627 155.829 721.763 155.482 721.571C155.482 721.571 149.506 718.877 141.963 715.255C139.123 713.9 136.069 712.414 133.052 710.852C131.862 710.252 130.706 709.6 129.548 708.974C127.757 707.988 126.005 707.009 124.346 706.056C117.085 701.891 111.469 698.504 111.469 698.504Z" fill="black"/>
<path fill-rule="evenodd" clip-rule="evenodd" d="M152.841 719.574C152.855 719.64 152.868 719.707 152.882 719.773C153.293 721.326 153.601 723.089 153.601 723.089C153.752 723.464 153.583 723.889 153.223 724.038C152.85 724.203 152.429 724.027 152.279 723.652C152.279 723.652 151.193 722.219 150.323 720.865C149.686 719.848 149.225 718.904 149.225 718.904C149.016 718.423 149.045 717.878 149.309 717.428C149.574 716.979 150.042 716.679 150.556 716.636C150.556 716.636 150.93 716.582 151.482 716.573C151.88 716.565 152.36 716.574 152.887 716.598C154.56 716.72 156.415 717 156.415 717C156.81 716.963 157.169 717.249 157.214 717.641C157.258 718.032 156.958 718.397 156.563 718.434C156.563 718.434 154.811 719.058 153.182 719.49C153.064 719.523 152.945 719.556 152.841 719.574Z" fill="black"/>
<path fill-rule="evenodd" clip-rule="evenodd" d="M112.468 694.78C112.54 695.168 112.278 695.538 111.885 695.605C111.492 695.671 111.12 695.402 111.049 695.014C111.049 695.014 109.511 688.513 107.75 680.16C107.342 678.256 106.942 676.25 106.553 674.199C106.295 672.889 106.042 671.554 105.819 670.219C105.257 666.795 104.777 663.361 104.329 660.199C103.171 651.746 102.418 645.111 102.418 645.111C102.346 644.723 102.622 644.337 103.002 644.287C103.395 644.221 103.779 644.474 103.837 644.878C103.837 644.878 105.371 651.374 107.105 659.731C107.754 662.877 108.456 666.26 109.068 669.673C109.313 671.001 109.516 672.345 109.723 673.667C110.035 675.732 110.331 677.756 110.588 679.692C111.735 688.136 112.468 694.78 112.468 694.78Z" fill="black"/>
<path fill-rule="evenodd" clip-rule="evenodd" d="M103.945 649.238C104.115 649.005 104.286 648.774 104.474 648.53C105.689 646.949 107.172 645.277 107.172 645.277C107.373 644.935 107.812 644.826 108.162 645.022C108.498 645.233 108.622 645.667 108.421 646.008C108.421 646.008 107.674 648.131 106.89 649.95C106.302 651.314 105.69 652.467 105.69 652.467C105.447 652.882 105.027 653.169 104.549 653.243C104.072 653.317 103.575 653.184 103.207 652.864C103.207 652.864 102.684 652.436 102 651.76C101.642 651.422 101.262 651.01 100.86 650.579C99.3062 648.848 97.6435 646.805 97.6435 646.805C97.342 646.543 97.2993 646.098 97.5685 645.788C97.8242 645.494 98.2841 645.459 98.5855 645.721C98.5855 645.721 100.827 647.099 102.758 648.397C103.185 648.687 103.596 648.962 103.945 649.238Z" fill="black"/>
<path fill-rule="evenodd" clip-rule="evenodd" d="M75.4949 622.93C75.3512 622.561 75.5492 622.135 75.9219 621.997C76.2947 621.859 76.7073 622.054 76.8508 622.424C76.8508 622.424 78.7002 626.206 80.8943 631.13C81.3992 632.249 81.8957 633.441 82.3914 634.66C82.7185 635.434 83.0385 636.228 83.333 637.028C84.0744 639.085 84.7422 641.161 85.3556 643.08C86.9777 648.214 88.084 652.274 88.084 652.274C88.2275 652.643 88.0295 653.069 87.6569 653.208C87.2842 653.346 86.8716 653.15 86.7279 652.781C86.7279 652.781 84.8951 648.986 82.7245 644.055C81.9103 642.205 81.0449 640.203 80.2457 638.176C79.9445 637.371 79.6691 636.561 79.387 635.772C78.9592 634.53 78.5551 633.309 78.1966 632.128C76.5957 626.985 75.4949 622.93 75.4949 622.93Z" fill="black"/>
<path fill-rule="evenodd" clip-rule="evenodd" d="M38.4276 723.506C39.4884 722.743 41.5516 721.33 44.1916 719.548C51.781 714.431 64.1269 706.273 70.667 701.956C70.9994 701.729 71.4464 701.818 71.6706 702.149C71.8947 702.48 71.8135 702.926 71.4811 703.153C65.9317 707.026 56.1133 713.902 48.735 719.121C44.8043 721.901 41.5596 724.218 40.0482 725.35C39.7138 725.603 39.388 725.863 39.307 725.929C39.1006 726.157 38.8438 726.287 38.5487 726.329C38.197 726.377 37.8487 726.265 37.5816 726.032C37.5816 726.032 34.0696 723.034 31.352 721.297C31.4011 721.339 31.4368 721.397 31.4854 721.44C33.7664 724.129 38.0214 728.045 42.7616 732.166C52.2201 740.388 63.5643 749.434 65.5058 751.149C69.2446 754.481 74.6408 758.981 80.1756 763.466C86.8846 768.891 93.8187 774.266 98.3424 777.383C96.0659 775.132 93.4705 772.876 93.4705 772.876C93.0403 772.529 92.9169 771.933 93.1639 771.441L110.852 737.242C111.033 736.883 111.466 736.743 111.812 736.935C112.171 737.111 112.32 737.54 112.139 737.899C112.139 737.899 95.7112 771.671 95.7111 771.671C97.2153 772.952 100.724 776.029 102.589 778.194C103.307 779.062 103.787 779.833 103.953 780.358C104.185 781.103 103.996 781.673 103.686 782.055C103.44 782.358 103.078 782.586 102.527 782.597C102.237 782.617 101.795 782.531 101.226 782.281C99.8431 781.704 97.1133 779.957 93.6591 777.525C84.7203 771.195 70.7869 760.143 63.3274 753.604C62.1033 752.513 57.103 748.465 51.2303 743.523C45.1908 738.436 38.2458 732.399 33.4671 727.674C30.2636 724.481 28.0199 721.824 27.4918 720.359C27.0902 719.304 27.3182 718.523 27.7818 718.029C28.1191 717.67 28.6116 717.419 29.288 717.464C29.8296 717.5 30.6483 717.803 31.5883 718.349C33.8019 719.621 36.9776 722.273 38.4276 723.506ZM102.163 779.916C102.38 780.051 102.536 780.077 102.55 779.954C102.582 779.71 102.38 779.778 102.163 779.916ZM39.4082 725.799C39.408 725.799 39.408 725.799 39.4082 725.799C39.4083 725.799 39.4083 725.799 39.4082 725.799Z" fill="black"/>
<path fill-rule="evenodd" clip-rule="evenodd" d="M105.857 736.841C106.041 736.485 106.475 736.346 106.835 736.523C107.182 736.716 107.33 737.143 107.146 737.5C107.146 737.5 102.291 747.793 98.017 756.662C94.7462 763.44 91.8146 769.372 91.8146 769.372C91.5925 769.804 91.1891 770.105 90.7085 770.204C90.2413 770.287 89.7485 770.158 89.3831 769.84C89.3831 769.84 85.6559 766.736 80.9762 762.722C76.9637 759.289 72.2911 755.145 68.4608 751.952C67.8577 751.454 67.7672 750.56 68.2543 749.951L86.3057 728.489C86.5625 728.168 87.0122 728.125 87.3268 728.371C87.6413 728.617 87.6942 729.07 87.4375 729.391L71.3293 750.613C74.3647 753.007 77.8277 755.8 80.9811 758.46C84.7564 761.606 88.1038 764.542 89.9535 766.15C91.125 763.934 93.2917 759.866 95.6711 755.465C100.361 746.795 105.857 736.841 105.857 736.841Z" fill="black"/>
<path fill-rule="evenodd" clip-rule="evenodd" d="M82.7029 725.33C82.9552 725.033 83.4123 724.995 83.7137 725.257C84.0285 725.504 84.0606 725.967 83.8084 726.264L66.2127 748.095C65.9604 748.392 65.602 748.57 65.2178 748.589C64.8338 748.608 64.4418 748.485 64.161 748.214C64.161 748.214 57.4342 742.393 50.3276 736.623C47.0606 733.974 43.7509 731.287 40.8812 729.309C40.4546 729.02 40.2059 728.531 40.2078 728.016C40.1961 727.517 40.4548 727.036 40.8798 726.753C40.8798 726.753 48.5856 721.791 56.3354 716.868C64.0725 711.961 71.8515 707.091 71.8515 707.091C72.1729 706.881 72.6213 706.971 72.8447 707.302C73.0683 707.632 72.9844 708.075 72.6497 708.301C72.6497 708.301 65.1781 713.601 57.6614 718.863C52.428 722.522 47.1734 726.162 44.4748 728.029C46.9824 729.802 49.7436 731.903 52.4 734.076C57.8197 738.516 62.8864 743.137 65.0244 745.105L82.7029 725.33Z" fill="black"/>
<path fill-rule="evenodd" clip-rule="evenodd" d="M71.0737 702.555C71.3498 704.29 71.7505 705.997 72.2577 707.688L41.7531 728.028C50.9505 734.311 65.1132 747.166 65.1132 747.166L83.2494 725.805C84.4107 726.923 85.6174 727.972 86.8783 728.932L69.3566 750.855C77.7499 757.689 90.4037 768.661 90.4037 768.661L106.509 737.163C108.158 737.401 109.82 737.541 111.488 737.578L94.2402 771.969C94.2402 771.969 103.679 779.983 102.657 781.215C101.53 782.573 75.6073 762.295 64.4164 752.377C60.8971 749.236 26.1978 721.763 28.7828 718.955C29.8946 717.747 38.3876 725.103 38.3876 725.103C38.7911 724.502 61.3812 709.132 71.0737 702.555Z" fill="black"/>
</g>
<g clip-path="url(#clip1_20_1301)">
<path fill-rule="evenodd" clip-rule="evenodd" d="M1251.24 707.526C1250.89 707.909 1250.29 707.919 1249.92 707.577C1249.55 707.236 1249.53 706.648 1249.88 706.267C1255.27 700.343 1259.88 693.95 1263.47 686.92C1266.93 680.105 1269.45 672.718 1270.79 664.616C1270.9 663.985 1271.43 663.513 1272.07 663.469C1280.29 662.743 1288.43 661.099 1296.46 657.858C1303.62 654.926 1310.68 650.701 1317.57 644.635C1317.93 644.314 1318.41 644.165 1318.89 644.198C1319.37 644.23 1319.8 644.443 1320.11 644.803C1320.11 644.803 1337.56 664.844 1350.16 679.617C1356.65 687.214 1361.87 693.46 1362.89 694.921C1368.28 702.681 1369.87 712.373 1369.43 722.044C1368.5 742.147 1358.8 761.932 1358.8 761.932C1358.57 762.43 1358.12 762.797 1357.59 762.952C1357.59 762.952 1335.91 769.006 1315.46 765.489C1306.03 763.884 1296.87 760.231 1290.15 753.127L1253.63 713.117C1253.29 712.75 1253.32 712.16 1253.7 711.816C1254.06 711.451 1254.66 711.482 1255 711.85L1292.21 751.17C1298.58 757.696 1307.19 760.887 1316.03 762.278C1333.39 764.98 1351.61 760.589 1355.71 759.497C1357.41 755.725 1364.53 738.895 1365.23 721.883C1365.6 713.161 1364.29 704.353 1359.41 697.34C1358.43 695.915 1353.32 689.783 1347.02 682.272C1336.47 669.697 1322.57 653.289 1318.52 648.515C1311.66 654.121 1304.69 658.087 1297.62 660.829C1289.62 663.944 1281.5 665.495 1273.32 666.144C1271.76 674.088 1269.1 681.319 1265.53 687.981C1261.72 695.105 1256.87 701.566 1251.24 707.526Z" fill="black"/>
<path fill-rule="evenodd" clip-rule="evenodd" d="M1282.07 707.275C1281.69 707.619 1281.11 707.606 1280.76 707.213C1280.42 706.842 1280.44 706.25 1280.83 705.905L1311.09 677.48C1311.43 677.174 1311.88 677.019 1312.33 677.039C1312.78 677.059 1313.22 677.276 1313.51 677.613C1313.51 677.613 1321.05 685.967 1327.54 693.345C1332.02 698.442 1335.99 703.079 1336.79 704.207C1339.26 707.739 1340.34 712.769 1340.56 717.974C1340.97 727.911 1338.35 738.344 1338.35 738.344C1338.17 739.073 1337.6 739.655 1336.86 739.822C1336.86 739.822 1326.26 742.116 1315.98 739.538C1311.49 738.425 1307.06 736.377 1303.57 732.871C1302.81 732.1 1300.27 729.266 1297.22 725.8C1291.05 718.805 1282.74 709.233 1282.74 709.233C1282.4 708.86 1282.43 708.267 1282.81 707.921C1283.19 707.578 1283.79 707.612 1284.12 707.985C1284.12 707.985 1292.79 717.24 1299.19 723.991C1302.31 727.288 1304.9 730 1305.68 730.727C1308.84 733.709 1312.81 735.353 1316.79 736.216C1324.27 737.864 1331.87 736.781 1334.77 736.231C1335.36 733.323 1336.68 725.593 1336.33 718.191C1336.13 713.829 1335.41 709.573 1333.36 706.621C1332.89 705.939 1331.24 703.941 1329.06 701.32C1323.67 694.838 1315.05 684.684 1312.04 681.141L1282.07 707.275Z" fill="black"/>
<path fill-rule="evenodd" clip-rule="evenodd" d="M1257.73 697.914C1257.4 697.54 1257.43 696.944 1257.81 696.601C1258.19 696.255 1258.78 696.291 1259.12 696.666C1259.12 696.666 1265.03 702.534 1272.39 710.194C1274.08 711.946 1275.81 713.795 1277.57 715.697C1278.72 716.939 1279.86 718.181 1280.96 719.431C1283.82 722.689 1286.58 725.997 1289.12 729.073C1295.89 737.261 1301.03 743.796 1301.03 743.796C1301.36 744.171 1301.33 744.768 1300.95 745.111C1300.57 745.455 1299.98 745.42 1299.64 745.044C1299.64 745.044 1293.74 739.166 1286.4 731.486C1283.65 728.601 1280.68 725.476 1277.78 722.259C1276.67 721.024 1275.57 719.74 1274.47 718.455C1272.78 716.489 1271.15 714.548 1269.61 712.669C1262.85 704.46 1257.73 697.914 1257.73 697.914Z" fill="black"/>
<path fill-rule="evenodd" clip-rule="evenodd" d="M1266.11 683.338C1265.76 682.975 1265.78 682.391 1266.14 682.027C1266.5 681.664 1267.11 681.69 1267.46 682.05C1267.46 682.05 1269.67 683.609 1272.38 685.824C1273 686.332 1273.62 686.877 1274.25 687.451C1274.65 687.831 1275.04 688.19 1275.42 688.599C1276.38 689.648 1277.24 690.727 1278.05 691.776C1280.18 694.545 1281.66 696.804 1281.66 696.804C1282.03 697.184 1282.01 697.768 1281.65 698.132C1281.26 698.477 1280.68 698.471 1280.33 698.109C1280.33 698.109 1278.12 696.541 1275.42 694.285C1274.41 693.448 1273.36 692.549 1272.36 691.562C1271.97 691.169 1271.61 690.748 1271.25 690.327C1270.7 689.685 1270.18 689.05 1269.7 688.415C1267.57 685.605 1266.11 683.338 1266.11 683.338Z" fill="black"/>
<path fill-rule="evenodd" clip-rule="evenodd" d="M1268.21 677.999C1267.85 677.608 1267.9 677.034 1268.28 676.69C1268.66 676.345 1269.24 676.36 1269.59 676.751C1269.59 676.751 1272.6 679.299 1276.33 682.801C1277.18 683.598 1278.05 684.453 1278.92 685.338C1279.48 685.904 1280.05 686.491 1280.57 687.085C1281.93 688.632 1283.21 690.25 1284.39 691.754C1287.53 695.785 1289.8 699.038 1289.8 699.038C1290.13 699.411 1290.11 700.003 1289.72 700.348C1289.34 700.692 1288.76 700.679 1288.41 700.286C1288.41 700.286 1285.39 697.709 1281.7 694.206C1280.32 692.893 1278.83 691.458 1277.43 689.952C1276.87 689.354 1276.36 688.746 1275.85 688.137C1275.05 687.185 1274.29 686.239 1273.58 685.315C1270.46 681.262 1268.21 677.999 1268.21 677.999Z" fill="black"/>
<path fill-rule="evenodd" clip-rule="evenodd" d="M1269.75 673.123C1269.4 672.733 1269.42 672.141 1269.8 671.797C1270.19 671.452 1270.78 671.484 1271.12 671.855C1271.12 671.855 1273.12 673.285 1275.59 675.365C1276.16 675.848 1276.71 676.348 1277.26 676.882C1277.62 677.23 1277.99 677.58 1278.32 677.958C1279.17 678.934 1279.92 679.961 1280.62 680.934C1282.49 683.551 1283.73 685.661 1283.73 685.661C1284.09 686.05 1284.05 686.622 1283.68 686.987C1283.3 687.331 1282.7 687.298 1282.37 686.929C1282.37 686.929 1280.37 685.49 1277.93 683.387C1277.02 682.604 1276.07 681.76 1275.17 680.824C1274.82 680.462 1274.51 680.072 1274.19 679.679C1273.71 679.081 1273.27 678.489 1272.84 677.879C1270.99 675.242 1269.75 673.123 1269.75 673.123Z" fill="black"/>
</g>
<g clip-path="url(#clip2_20_1301)">
<path fill-rule="evenodd" clip-rule="evenodd" d="M33.956 176.264C33.4598 176.518 32.8516 176.335 32.5874 175.841C32.342 175.369 32.518 174.749 33.0142 174.495C37.6811 171.678 42.3676 169.768 47.1387 168.897C50.5615 168.24 54.0344 168.154 57.4971 168.615C60.8301 169.078 64.171 170.035 67.4693 171.606C71.1408 173.342 74.7488 175.867 78.3438 179.058C80.233 176.779 82.5186 175.375 85.3538 175.17C87.9071 174.988 90.9455 175.755 94.5753 177.952C95.0593 178.209 95.2399 178.816 94.9855 179.315C94.712 179.792 94.1116 179.986 93.6276 179.729C90.4043 178.205 87.818 177.724 85.6827 178.069C83.203 178.493 81.5384 180.261 80.2712 182.788C79.9851 183.276 79.506 183.63 78.9385 183.718C78.3901 183.827 77.8106 183.656 77.3813 183.273C73.403 179.927 69.4111 177.517 65.5223 175.745C62.5824 174.39 59.7178 173.428 56.7953 172.865C53.7487 172.298 50.6933 172.124 47.619 172.429C43.1059 172.836 38.5713 174.11 33.956 176.264Z" fill="black"/>
<path fill-rule="evenodd" clip-rule="evenodd" d="M110.504 108.225C110.356 107.705 110.67 107.152 111.196 106.986C111.72 106.822 112.28 107.127 112.445 107.671C112.445 107.671 114.896 114.085 117.834 122.64C118.487 124.554 119.162 126.602 119.806 128.677C120.235 130.024 120.657 131.376 121.025 132.737C121.983 136.186 122.83 139.695 123.605 143.039C125.051 149.281 126.152 154.947 126.869 158.651C127.002 159.185 126.665 159.72 126.128 159.857C125.591 159.994 125.049 159.674 124.913 159.142C123.781 155.582 121.84 150.171 119.825 144.095C118.762 140.856 117.624 137.417 116.619 134.011C116.214 132.643 115.856 131.272 115.511 129.928C114.958 127.809 114.437 125.738 113.977 123.765C111.903 114.972 110.504 108.225 110.504 108.225Z" fill="black"/>
<path fill-rule="evenodd" clip-rule="evenodd" d="M108.006 135.608C108.257 135.651 108.706 135.708 109.081 135.717C111.481 135.788 115.288 135.247 118.746 134.25C121.425 133.494 123.931 132.546 125.187 131.261C125.204 131.245 125.2 131.211 125.215 131.197C125.523 130.343 126.028 128.541 126.553 125.951C128.565 116.018 130.61 94.933 122.059 70.3404C116.311 53.809 105.855 35.704 87.3416 18.3117C86.9375 17.9443 86.9128 17.3123 87.2862 16.8992C87.6573 16.488 88.2922 16.4554 88.6942 16.8247C108.062 34.1021 119.273 52.3346 125.49 69.0987C134.894 94.4628 132.976 116.473 130.989 126.807C130.433 129.732 129.849 131.759 129.506 132.721C129.233 133.468 128.945 133.882 128.834 134.02C127.95 135.046 126.575 136.015 124.881 136.848C122.228 138.121 118.737 139.108 115.488 139.686C112.461 140.218 109.63 140.38 107.873 140.192C106.212 139.994 105.176 139.349 104.719 138.76C95.0331 126.197 84.8109 104.341 80.1656 80.3502C76.1123 59.4444 76.2761 36.9351 84.3736 17.5972C84.5916 17.093 85.1735 16.8387 85.6802 17.0368C86.2059 17.2562 86.452 17.8426 86.2362 18.3448C78.7972 37.3976 79.2668 59.3368 83.6149 79.6308C88.5471 102.594 98.4746 123.483 108.006 135.608Z" fill="black"/>
<path fill-rule="evenodd" clip-rule="evenodd" d="M79.21 46.4937C78.652 46.4572 78.2183 45.9626 78.2638 45.4213C78.2922 44.8568 78.7849 44.4519 79.3408 44.4902C79.3408 44.4902 81.3859 44.1498 84.6138 43.3217C85.6684 43.0649 86.8105 42.7293 88.0633 42.3709C88.792 42.1767 89.5463 41.9593 90.3495 41.775C91.4361 41.4893 92.5909 41.2579 93.7905 40.9476C95.7997 40.4472 97.8557 39.9044 99.9549 38.9765C100.437 38.6966 101.05 38.8374 101.337 39.3104C101.626 39.7815 101.484 40.4091 101.001 40.6909C99.0771 42.2687 97.1817 43.5903 95.1995 44.6054C93.7224 45.358 92.2585 45.945 90.8479 46.3684C90.2257 46.5437 89.5994 46.6458 89.0114 46.7519C88.0272 46.9068 87.0791 46.9904 86.2143 47.0378C81.9225 47.1688 79.21 46.4937 79.21 46.4937Z" fill="black"/>
<path fill-rule="evenodd" clip-rule="evenodd" d="M90.1019 108.352C89.5354 108.362 89.0738 107.931 89.0511 107.374C89.0285 106.817 89.4615 106.35 90.0259 106.342C90.0259 106.342 93.5837 105.756 98.8013 104.637C100.559 104.248 102.502 103.807 104.567 103.333C105.811 103.06 107.1 102.784 108.419 102.521C110.298 102.137 112.232 101.781 114.175 101.34C117.627 100.58 121.068 99.7144 124.286 98.4335C124.778 98.1826 125.395 98.3965 125.631 98.877C125.886 99.3788 125.685 99.9832 125.19 100.236C122.095 102.138 118.753 103.8 115.275 105.084C112.933 105.961 110.579 106.695 108.254 107.21C107.283 107.431 106.326 107.599 105.372 107.727C103.868 107.965 102.406 108.126 101.039 108.242C94.6167 108.713 90.1019 108.352 90.1019 108.352Z" fill="black"/>
<path fill-rule="evenodd" clip-rule="evenodd" d="M103.664 66.928C103.155 66.6932 102.948 66.1108 103.172 65.6008C103.399 65.089 103.991 64.8634 104.5 65.0982C109.696 67.078 112.045 71.6983 112.196 76.1422C112.288 79.2929 111.15 82.357 109.183 84.5128C107.714 86.067 105.755 87.0995 103.414 87.3985C100.642 87.7 98.2278 87.1413 96.2935 85.9579C93.178 84.0675 91.2129 80.6412 90.8772 77.0177C90.3821 71.6902 93.1208 65.8757 100.015 64.4792C100.554 64.3402 101.101 64.656 101.237 65.1883C101.391 65.7418 101.056 66.2745 100.517 66.4134C95.5032 68.0799 93.8525 72.5295 94.6264 76.4898C95.0683 78.8246 96.4412 80.937 98.5417 82.0862C99.7633 82.7567 101.239 83.0832 102.952 82.8882C104.913 82.7383 106.408 81.5847 107.328 79.9864C108.011 78.8324 108.448 77.4773 108.561 76.0671C108.834 72.6651 107.442 68.9534 103.664 66.928Z" fill="black"/>
<path fill-rule="evenodd" clip-rule="evenodd" d="M145.476 137.124C144.184 127.858 142.999 118.033 142.874 117.106C142.571 114.723 141.069 112.304 139.208 110.053C135.889 106.037 131.423 102.591 129.577 101.021C129.145 100.678 129.073 100.05 129.423 99.6193C129.754 99.1675 130.389 99.0963 130.821 99.4387C132.87 100.942 137.726 104.152 141.449 108.074C143.914 110.665 145.829 113.598 146.4 116.51C146.597 117.526 148.677 128.778 150.264 138.625C151.518 146.464 152.439 153.409 152.439 153.409C152.608 154.527 151.897 155.591 150.806 155.88C149.698 156.146 148.573 155.543 148.206 154.488C148.206 154.488 146.125 148.241 143.166 140.975C141.386 136.613 139.32 131.891 137.13 127.936C135.547 125.089 133.944 122.644 132.364 121.065C131.452 120.155 130.613 119.524 129.76 119.33C129.204 119.215 128.847 118.69 128.965 118.16C129.066 117.608 129.592 117.249 130.146 117.366C132.967 117.789 136.374 121.457 139.581 126.46C141.666 129.702 143.686 133.463 145.476 137.124Z" fill="black"/>
<path fill-rule="evenodd" clip-rule="evenodd" d="M90.0014 108.982C90.2513 108.488 90.8586 108.287 91.3545 108.533C91.8526 108.778 92.0456 109.374 91.7978 109.866C90.7658 112.181 88.9269 118.686 87.8792 124.595C87.1792 128.573 86.7226 132.218 87.4104 133.831C87.9835 135.201 89.9265 139.301 92.207 144.253C93.74 147.568 95.4344 151.238 97.0013 154.754C97.5384 155.964 98.0607 157.148 98.5532 158.283C98.4683 153.548 98.5336 148.101 99.011 143.399C99.5318 138.081 100.643 133.693 102.42 132.016C102.812 131.624 103.436 131.601 103.843 132.005C104.232 132.386 104.244 133.03 103.851 133.422C102.407 134.991 101.942 138.913 101.773 143.568C101.374 154.588 103.268 169.51 103.268 169.51C103.386 170.559 102.715 171.509 101.72 171.789C100.706 172.048 99.6653 171.561 99.2321 170.604C99.2321 170.604 97.4654 166.922 95.185 161.893C93.9684 159.217 92.6075 156.17 91.2807 153.092C87.8798 145.224 84.6494 137.24 83.9068 135.215C83.5822 134.314 83.4244 132.993 83.531 131.396C83.6575 129.32 84.1596 126.712 84.828 123.955C86.3339 117.903 88.7564 111.296 90.0014 108.982Z" fill="black"/>
<path fill-rule="evenodd" clip-rule="evenodd" d="M106.66 138.359C106.375 137.884 106.538 137.276 107 136.975C107.48 136.697 108.091 136.839 108.378 137.312C109.192 138.35 110.254 140.28 112.577 141.075C113.262 141.305 114.076 141.342 115.066 141.297C115.878 141.259 116.781 141.1 117.823 140.816C119.43 140.525 120.738 140.155 121.816 139.761C123.186 139.259 124.182 138.824 124.762 138.071C125.714 136.868 125.844 135.327 125.572 133.339C125.438 132.805 125.775 132.27 126.312 132.133C126.851 131.994 127.394 132.314 127.528 132.848C128.565 135.57 128.671 137.862 127.669 139.88C126.878 141.477 125.292 142.905 122.564 144.091C121.526 144.564 120.252 144.903 118.809 145.278C117.689 145.479 116.671 145.587 115.776 145.585C113.778 145.536 112.22 145.092 111.032 144.39C109.717 143.612 108.762 142.624 108.114 141.553C107.411 140.377 107.021 139.189 106.66 138.359Z" fill="black"/>
<path fill-rule="evenodd" clip-rule="evenodd" d="M126.573 144.522C126.293 144.043 126.458 143.433 126.921 143.132C127.4 142.854 128.026 143.022 128.307 143.501C128.307 143.501 131.897 148.504 136.288 155.097C137.28 156.589 138.298 158.174 139.331 159.823C139.975 160.86 140.657 161.939 141.265 163.009C142.867 165.8 144.351 168.619 145.732 171.264C149.371 178.264 152.019 183.847 152.019 183.847C152.299 184.325 152.134 184.936 151.655 185.214C151.192 185.515 150.568 185.345 150.286 184.868C150.286 184.868 146.708 179.853 142.341 173.24C140.719 170.774 138.964 168.082 137.311 165.337C136.665 164.264 136.072 163.181 135.477 162.1C134.54 160.403 133.65 158.742 132.824 157.138C129.192 150.093 126.573 144.522 126.573 144.522Z" fill="black"/>
<path fill-rule="evenodd" clip-rule="evenodd" d="M125.955 166.517C125.851 165.995 126.193 165.457 126.723 165.325C127.275 165.213 127.803 165.546 127.926 166.09C127.926 166.09 129.944 172.586 132.256 180.973C132.781 182.886 133.294 184.888 133.815 186.959C134.141 188.282 134.463 189.609 134.753 190.964C135.489 194.42 136.096 197.877 136.658 201.104C138.134 209.666 139.07 216.405 139.07 216.405C139.193 216.949 138.851 217.487 138.3 217.599C137.769 217.73 137.239 217.399 137.117 216.856C137.117 216.856 135.111 210.348 132.84 201.963C131.981 198.81 131.068 195.398 130.289 191.981C129.963 190.62 129.705 189.274 129.443 187.932C129.029 185.842 128.65 183.797 128.334 181.849C126.88 173.266 125.955 166.517 125.955 166.517Z" fill="black"/>
<path fill-rule="evenodd" clip-rule="evenodd" d="M112.356 148.048C112.325 147.499 112.739 147.01 113.29 146.976C113.842 146.941 114.316 147.36 114.348 147.91C114.348 147.91 115.418 156.415 116.499 167.295C116.757 169.795 116.982 172.403 117.189 175.065C117.331 176.784 117.463 178.513 117.548 180.245C117.784 184.689 117.899 189.127 117.991 193.239C118.233 204.183 118.198 212.759 118.198 212.759C118.229 213.309 117.796 213.775 117.244 213.811C116.691 213.847 116.217 213.427 116.187 212.877C116.187 212.877 115.146 204.384 114.085 193.485C113.68 189.386 113.279 184.974 112.985 180.543C112.866 178.802 112.792 177.06 112.728 175.347C112.621 172.672 112.54 170.052 112.494 167.552C112.293 156.611 112.356 148.048 112.356 148.048Z" fill="black"/>
<path fill-rule="evenodd" clip-rule="evenodd" d="M157.787 142.974C157.816 143.526 157.385 143.991 156.833 144.025C156.282 144.06 155.81 143.639 155.781 143.088C155.218 137.012 156.02 131.672 158.87 127.528C161.215 124.069 164.991 121.439 170.642 119.892C169.196 114.766 168.842 109.504 169.545 104.483C170.389 98.451 172.693 92.7585 176.069 88.1022C182.949 78.5587 194.279 73.1682 207.338 77.3442C207.864 77.4865 208.178 78.0501 208.02 78.5776C207.88 79.1263 207.322 79.4368 206.779 79.2713C194.935 76.3111 185.226 81.6662 179.465 90.4328C176.66 94.6901 174.836 99.7579 174.077 105.099C173.371 110.199 173.561 115.531 175.158 120.714C175.342 121.279 175.267 121.886 174.964 122.389C174.659 122.895 174.147 123.241 173.582 123.364C167.732 124.205 163.838 126.287 161.391 129.376C158.645 132.888 157.686 137.561 157.787 142.974Z" fill="black"/>
</g>
<g clip-path="url(#clip3_20_1301)">
<path fill-rule="evenodd" clip-rule="evenodd" d="M1330.45 57.7323L1324.6 74.5209C1326.19 74.9677 1329.47 76.0557 1332.12 77.8871C1334 79.2132 1335.54 80.9164 1336.1 82.9906C1336.99 86.3751 1336.09 89.2492 1334.48 91.4508C1332.52 94.1164 1329.45 95.775 1327.24 96.1451C1325.91 96.382 1324.32 96.1874 1322.77 95.8C1320.92 95.3601 1319.14 94.6432 1318.01 94.1386L1314.19 106.41L1330.72 111.689C1331.05 111.797 1331.33 112.025 1331.48 112.33C1331.64 112.656 1331.66 113.011 1331.55 113.343C1331.55 113.343 1330.17 117.379 1329.82 121.238C1329.66 123.033 1329.68 124.794 1330.3 125.99C1331.21 127.717 1332.87 128.766 1334.61 129.053C1336.34 129.315 1338.15 128.796 1339.33 127.329C1340.18 126.245 1340.94 124.872 1341.58 123.487C1343.08 120.257 1343.97 116.964 1343.97 116.964C1344.08 116.561 1344.34 116.231 1344.7 116.047C1345.07 115.842 1345.49 115.818 1345.88 115.944L1365.07 122.341C1365.88 122.606 1366.32 123.489 1366.06 124.302L1349.73 174.09C1349.43 174.987 1348.46 175.481 1347.56 175.188C1347.56 175.188 1320.29 166.351 1293.05 157.408C1265.82 148.466 1238.6 139.461 1238.6 139.461C1238.2 139.331 1237.87 139.04 1237.68 138.678C1237.5 138.294 1237.46 137.867 1237.59 137.47L1270.74 38.0086C1270.83 37.737 1271.03 37.5019 1271.29 37.3567C1271.55 37.2331 1271.85 37.2156 1272.13 37.3059L1329.96 56.7434C1330.16 56.8072 1330.32 56.9518 1330.41 57.1428C1330.5 57.3338 1330.51 57.5456 1330.45 57.7323ZM1328.72 57.9799L1272.5 39.7345C1269.09 50.2704 1241.08 136.94 1241.08 136.94C1247.14 138.886 1270.64 146.476 1294.13 154.109C1317.46 161.689 1340.77 169.353 1347.01 171.404C1349.82 162.986 1362.59 124.794 1362.59 124.794L1346.37 119.246C1345.92 120.603 1345.19 122.672 1344.22 124.713C1343.45 126.314 1342.56 127.893 1341.56 129.118C1339.69 131.422 1336.86 132.278 1334.15 131.816C1331.61 131.381 1329.18 129.808 1327.87 127.256C1327.06 125.675 1326.91 123.362 1327.15 120.992C1327.43 118.198 1328.21 115.332 1328.69 113.755L1312.32 108.342C1311.69 108.139 1311.35 107.451 1311.55 106.822L1316.26 92.2308C1316.36 91.9167 1316.59 91.6682 1316.9 91.5373C1317.21 91.4064 1317.55 91.4258 1317.85 91.568C1317.85 91.568 1320.48 92.9787 1323.29 93.707C1324.54 94.0203 1325.82 94.227 1326.9 94.0456C1328.7 93.7556 1331.21 92.3989 1332.85 90.2277C1334.16 88.4821 1334.9 86.2039 1334.21 83.4874C1333.8 81.8052 1332.52 80.4898 1331.04 79.4288C1327.71 77.033 1323.26 75.9792 1323.26 75.9792C1323.02 75.9228 1322.81 75.7625 1322.68 75.56C1322.56 75.3365 1322.54 75.0754 1322.63 74.8267L1328.72 57.9799Z" fill="black"/>
<path fill-rule="evenodd" clip-rule="evenodd" d="M1254.9 89.8254C1254.5 89.6945 1254.27 89.2523 1254.4 88.8546C1254.53 88.457 1254.96 88.2285 1255.36 88.3594L1273.37 93.7027C1274.04 92.2344 1275.48 89.2604 1277.23 86.6625C1278.59 84.6344 1280.18 82.8401 1281.7 82.0182C1284.41 80.543 1287.41 80.5677 1289.95 81.4884C1292.9 82.561 1295.21 84.8584 1295.93 87.4731C1296.42 89.2026 1296.37 91.4024 1296.03 93.5808C1295.65 96.0666 1294.92 98.5086 1294.39 100.091L1313.17 105.526C1313.63 105.65 1314 105.957 1314.22 106.375C1314.44 106.793 1314.49 107.269 1314.34 107.73L1308.95 124.088C1308.69 124.904 1307.82 125.363 1306.99 125.139C1306.99 125.139 1303.34 124.045 1299.79 124.092C1298.25 124.122 1296.71 124.339 1295.6 125.063C1293.9 126.176 1292.81 127.853 1292.48 129.663C1292.15 131.474 1292.55 133.429 1293.81 135.13C1294.46 136.012 1295.53 136.729 1296.66 137.306C1299.28 138.665 1302.27 139.313 1302.27 139.313C1302.57 139.365 1302.83 139.562 1302.98 139.82C1303.14 140.079 1303.17 140.391 1303.08 140.683L1297.46 157.014C1297.32 157.432 1296.89 157.639 1296.49 157.508C1296.09 157.376 1295.86 156.957 1296 156.539L1300.7 141.159C1299.48 140.856 1297.48 140.295 1295.63 139.394C1294.12 138.675 1292.74 137.74 1291.85 136.619C1290.06 134.376 1289.47 131.711 1289.85 129.223C1290.23 126.67 1291.67 124.319 1293.99 122.693C1295.51 121.637 1297.58 121.181 1299.7 121.107C1302.21 120.999 1304.78 121.395 1306.35 121.719L1310.51 108.356L1291.7 102.846C1291.24 102.719 1290.86 102.387 1290.65 101.951C1290.45 101.514 1290.43 101.022 1290.61 100.574C1290.61 100.574 1292.16 96.8747 1292.83 93.048C1293.12 91.3632 1293.27 89.6327 1292.91 88.2711C1292.46 86.5302 1290.87 85.0206 1288.92 84.246C1287.1 83.5412 1284.95 83.4434 1282.98 84.4418C1281.73 85.0754 1280.47 86.5155 1279.32 88.1272C1276.91 91.4778 1275.03 95.5357 1275.03 95.5357C1274.8 96.0606 1274.21 96.3298 1273.66 96.1514L1254.9 89.8254Z" fill="black"/>
<path fill-rule="evenodd" clip-rule="evenodd" d="M1404.93 79.3226C1405.21 79.6455 1405.19 80.1229 1404.87 80.4123C1404.55 80.701 1404.07 80.6605 1403.78 80.3585C1403.78 80.3585 1373.79 47.5597 1367.96 41.1848L1360.27 49.1484C1361.68 50.4615 1364.02 52.9337 1365.59 55.8461C1366.77 58.0301 1367.48 60.4796 1367.22 62.8881C1366.79 66.745 1364.28 69.6016 1361.08 71.082C1357.87 72.5785 1353.96 72.6714 1350.88 71.0679C1350.09 70.6752 1349.05 69.8283 1347.99 68.7661C1346.6 67.3695 1345.13 65.6443 1344.14 64.4446L1335.83 72.0455L1349.37 87.3968C1349.67 87.7481 1349.83 88.1908 1349.79 88.6419C1349.76 89.0937 1349.54 89.5302 1349.2 89.8114C1349.2 89.8114 1345.93 92.538 1343.55 96.1058C1342.54 97.6045 1341.69 99.2445 1341.36 100.917C1340.92 103.198 1341.64 105.164 1343.05 106.409C1344.51 107.692 1346.65 108.227 1348.89 107.707C1350.31 107.382 1351.88 106.438 1353.36 105.371C1356.64 102.994 1359.47 99.8954 1359.47 99.8954C1359.74 99.5904 1360.13 99.4151 1360.53 99.4293C1360.93 99.4227 1361.31 99.6136 1361.57 99.9284L1372.33 112.921L1406.09 84.8489C1406.41 84.5838 1406.89 84.6259 1407.17 84.9468C1407.45 85.2677 1407.4 85.7619 1407.08 86.027L1372.97 115.576C1372.72 115.794 1372.39 115.898 1372.06 115.883C1371.74 115.848 1371.44 115.681 1371.23 115.45L1360.47 102.897C1359.29 104.11 1357.29 106.07 1355.1 107.713C1353.28 109.086 1351.33 110.207 1349.58 110.634C1346.31 111.442 1343.18 110.61 1341.01 108.75C1338.8 106.852 1337.56 103.885 1338.2 100.328C1338.57 98.2558 1339.58 96.1792 1340.81 94.2918C1342.44 91.7955 1344.46 89.6569 1345.74 88.4103L1332.06 73.0622C1331.42 72.3461 1331.48 71.2556 1332.19 70.6089L1343.17 60.6409C1343.53 60.3179 1344.01 60.1503 1344.49 60.1916C1344.97 60.233 1345.41 60.4909 1345.71 60.865C1345.71 60.865 1347.68 63.4464 1349.7 65.6266C1350.71 66.6934 1351.69 67.7055 1352.42 68.0826C1354.62 69.2353 1357.4 69.1468 1359.71 68.0951C1361.93 67.0843 1363.74 65.1757 1364.06 62.5326C1364.29 60.7351 1363.71 58.9306 1362.86 57.2915C1360.83 53.3753 1357.22 50.3532 1357.22 50.3532C1356.9 50.0882 1356.71 49.7022 1356.68 49.3015C1356.67 48.88 1356.81 48.489 1357.11 48.1908L1367.03 38.273C1367.29 38.0105 1367.65 37.8721 1368.02 37.8775C1368.39 37.8829 1368.74 38.0436 1368.99 38.3314L1404.93 79.3226Z" fill="black"/>
<path fill-rule="evenodd" clip-rule="evenodd" d="M1368.98 119.94C1368.78 119.574 1368.92 119.11 1369.29 118.908C1369.66 118.706 1370.13 118.836 1370.34 119.202C1370.34 119.202 1372.42 122.234 1373.14 128.059C1373.28 129.19 1373.34 130.434 1373.31 131.766C1373.3 132.547 1373.26 133.387 1373.15 134.23C1372.9 136.091 1372.45 138.069 1371.74 140.195C1370.89 142.78 1369.64 145.493 1367.99 148.424C1367.81 148.827 1367.36 148.98 1366.97 148.808C1366.58 148.636 1366.41 148.187 1366.59 147.784C1367.21 146.044 1367.68 144.373 1368.09 142.796C1368.55 141.006 1368.88 139.333 1369.15 137.734C1369.33 136.571 1369.47 135.437 1369.6 134.392C1369.74 133.193 1369.87 132.077 1369.94 131.038C1370.07 129.347 1370.11 127.859 1370.05 126.547C1369.89 122.313 1368.98 119.94 1368.98 119.94Z" fill="black"/>
<path fill-rule="evenodd" clip-rule="evenodd" d="M1379.67 116.481C1379.28 116.309 1379.1 115.858 1379.27 115.453C1379.44 115.068 1379.89 114.891 1380.28 115.064C1380.28 115.064 1381.36 115.299 1382.94 115.928C1383.47 116.146 1384.02 116.418 1384.62 116.729C1385.15 117.016 1385.67 117.371 1386.2 117.772C1386.53 118.018 1386.86 118.288 1387.16 118.594C1387.71 119.165 1388.22 119.791 1388.64 120.506C1389.04 121.144 1389.39 121.811 1389.64 122.562C1390.01 123.63 1390.25 124.702 1390.27 125.886C1390.35 126.304 1390.07 126.701 1389.65 126.795C1389.24 126.868 1388.83 126.598 1388.76 126.18C1388.28 124.869 1387.44 123.882 1386.57 122.905C1386.07 122.351 1385.53 121.874 1385.01 121.382C1384.65 121.034 1384.3 120.69 1383.96 120.349C1383.38 119.79 1382.85 119.248 1382.34 118.758C1380.81 117.361 1379.67 116.481 1379.67 116.481Z" fill="black"/>
<path fill-rule="evenodd" clip-rule="evenodd" d="M1326.36 28.7076C1326.04 28.4197 1326.02 27.9259 1326.29 27.6229C1326.58 27.299 1327.06 27.2725 1327.39 27.5388C1327.39 27.5388 1330.74 29.9468 1334.16 34.0834C1334.94 35.0054 1335.69 36.0359 1336.41 37.1467C1336.87 37.849 1337.3 38.5919 1337.69 39.3641C1338.63 41.2415 1339.38 43.2862 1339.83 45.4196C1340.49 48.5211 1340.52 51.7888 1339.65 55.0392C1339.57 55.4531 1339.18 55.7168 1338.75 55.6493C1338.34 55.5615 1338.06 55.1698 1338.14 54.7558C1338.34 52.764 1338.13 50.8495 1337.73 48.9874C1337.33 47.078 1336.64 45.284 1335.86 43.552C1335.38 42.4929 1334.84 41.4642 1334.3 40.4583C1333.74 39.3971 1333.18 38.36 1332.6 37.3864C1331.81 36.0921 1331.05 34.8733 1330.31 33.8002C1328.15 30.6743 1326.36 28.7076 1326.36 28.7076Z" fill="black"/>
<path fill-rule="evenodd" clip-rule="evenodd" d="M1344.26 37.4342C1343.94 37.1456 1343.9 36.6695 1344.17 36.3429C1344.45 36.0163 1344.94 35.9673 1345.26 36.2558C1345.26 36.2558 1346.06 36.6546 1347.21 37.5369C1347.59 37.8222 1347.98 38.1332 1348.38 38.542C1348.74 38.8893 1349.08 39.2765 1349.41 39.7088C1349.62 39.9837 1349.82 40.2787 1349.98 40.6081C1350.28 41.1691 1350.52 41.8008 1350.7 42.4581C1350.85 43.0626 1350.97 43.6563 1351 44.3139C1351.06 45.2332 1351.04 46.1261 1350.85 47.0814C1350.86 47.5003 1350.52 47.8517 1350.09 47.8738C1349.66 47.875 1349.32 47.531 1349.31 47.1122C1349.13 46.3612 1348.82 45.7301 1348.52 45.0538C1348.27 44.5124 1347.96 44.0647 1347.69 43.5597C1347.4 43.0513 1347.08 42.5989 1346.81 42.1202C1346.45 41.4714 1346.16 40.847 1345.87 40.2651C1344.95 38.5577 1344.26 37.4342 1344.26 37.4342Z" fill="black"/>
</g>
<defs>
<clipPath id="clip0_20_1301">
<rect width="153" height="118.521" fill="white" transform="translate(82.7568 614) rotate(41)"/>
</clipPath>
<clipPath id="clip1_20_1301">
<rect width="125" height="173" fill="white" transform="translate(1204 689.641) rotate(-42)"/>
</clipPath>
<clipPath id="clip2_20_1301">
<rect width="196" height="185" fill="white" transform="translate(-23 114.15) rotate(-42)"/>
</clipPath>
<clipPath id="clip3_20_1301">
<rect width="145.419" height="137" fill="white" transform="translate(1279.34 9) rotate(18)"/>
</clipPath>
</defs>
</svg>
