<svg width="12" height="8" viewBox="0 0 12 8" fill="none" xmlns="http://www.w3.org/2000/svg">
<path d="M5.28571 6C5.28571 6.39449 5.60551 6.71429 6 6.71429C6.39449 6.71429 6.71429 6.39449 6.71429 6C6.71429 5.60551 6.39449 5.28571 6 5.28571C5.60551 5.28571 5.28571 5.60551 5.28571 6Z" stroke="#EDEDED" stroke-width="1.42857" stroke-linecap="round" stroke-linejoin="round"/>
<path d="M1 6C1 6.39449 1.3198 6.71429 1.71429 6.71429C2.10877 6.71429 2.42857 6.39449 2.42857 6C2.42857 5.60551 2.10877 5.28571 1.71429 5.28571C1.3198 5.28571 1 5.60551 1 6Z" stroke="#EDEDED" stroke-width="1.42857" stroke-linecap="round" stroke-linejoin="round"/>
<path d="M5.28571 1.71429C5.28571 2.10877 5.60551 2.42857 6 2.42857C6.39449 2.42857 6.71429 2.10877 6.71429 1.71429C6.71429 1.3198 6.39449 1 6 1C5.60551 1 5.28571 1.3198 5.28571 1.71429Z" stroke="#EDEDED" stroke-width="1.42857" stroke-linecap="round" stroke-linejoin="round"/>
<path d="M1 1.71429C1 2.10877 1.3198 2.42857 1.71429 2.42857C2.10877 2.42857 2.42857 2.10877 2.42857 1.71429C2.42857 1.3198 2.10877 1 1.71429 1C1.3198 1 1 1.3198 1 1.71429Z" stroke="#EDEDED" stroke-width="1.42857" stroke-linecap="round" stroke-linejoin="round"/>
<path d="M9.57129 6C9.57129 6.39449 9.89109 6.71429 10.2856 6.71429C10.6801 6.71429 10.9999 6.39449 10.9999 6C10.9999 5.60551 10.6801 5.28571 10.2856 5.28571C9.89109 5.28571 9.57129 5.60551 9.57129 6Z" stroke="#EDEDED" stroke-width="1.42857" stroke-linecap="round" stroke-linejoin="round"/>
<path d="M9.57129 1.71429C9.57129 2.10877 9.89109 2.42857 10.2856 2.42857C10.6801 2.42857 10.9999 2.10877 10.9999 1.71429C10.9999 1.3198 10.6801 1 10.2856 1C9.89109 1 9.57129 1.3198 9.57129 1.71429Z" stroke="#EDEDED" stroke-width="1.42857" stroke-linecap="round" stroke-linejoin="round"/>
</svg>
