<svg width="12" height="14" viewBox="0 0 12 14" fill="none" xmlns="http://www.w3.org/2000/svg">
<path d="M7.33333 9.66667H10.6667V13M4.66667 4.33333H1.33333V1M10.945 5.00227C10.5712 4.07711 9.94541 3.27536 9.13867 2.68815C8.33193 2.10094 7.37678 1.75168 6.38151 1.68034C5.38624 1.609 4.39071 1.81827 3.50846 2.28441C2.62622 2.75055 1.89255 3.45503 1.39063 4.31742M1.05469 8.99805C1.42848 9.92321 2.05431 10.725 2.86105 11.3122C3.66779 11.8994 4.62392 12.2482 5.61919 12.3195C6.61445 12.3909 7.60917 12.1816 8.49142 11.7155C9.37366 11.2494 10.1068 10.545 10.6088 9.68262" stroke="#FFA70E" stroke-width="1.33333" stroke-linecap="round" stroke-linejoin="round"/>
</svg>
