<svg width="76" height="68" viewBox="0 0 76 68" fill="none" xmlns="http://www.w3.org/2000/svg">
<g clip-path="url(#clip0_16_721)">
<path fill-rule="evenodd" clip-rule="evenodd" d="M30.7751 16.6887C30.7386 16.7399 30.7194 16.8122 30.6905 16.8875C30.6185 17.0759 30.5667 17.2958 30.5281 17.5368C30.413 18.2554 30.4172 19.1291 30.4858 20.0043C30.57 21.0754 30.7501 22.148 30.9725 22.9539C31.0462 23.2205 31.1106 23.454 31.1805 23.6288C31.4916 23.683 32.1056 23.7809 32.6933 23.8306C34.793 24.0039 38.1484 24.0912 41.7657 24.1394C49.7209 24.2464 58.9201 24.159 58.9201 24.159C59.215 24.1485 59.4631 24.3759 59.4737 24.6667C59.4843 24.9589 59.2534 25.203 58.9585 25.2135C58.9585 25.2135 44.387 26.0842 36.0305 26.0963C33.5516 26.1008 31.602 26.0119 30.6841 25.8387C29.9919 25.7091 29.62 25.4064 29.4755 25.2241C29.2108 24.8912 28.8992 24.1982 28.6491 23.2943C28.3338 22.154 28.0794 20.634 28.0263 19.224C27.9842 18.1077 28.0782 17.0578 28.3248 16.2774C28.5394 15.5965 28.8844 15.0859 29.2979 14.762C29.5763 14.5451 30.3488 14.2634 31.5383 14.1233C33.1034 13.938 35.586 13.8325 38.427 13.8024C41.5489 13.7708 45.1079 13.822 48.3438 13.9063C53.507 14.0404 57.8446 14.2619 58.2928 14.3161C59.2002 14.4276 59.9769 15.0301 60.4698 16.2488C60.9531 17.4434 61.2003 19.2903 61.1494 21.7578C61.1514 22.0485 60.9136 22.2866 60.6183 22.2881C60.3233 22.2911 60.0819 22.056 60.0799 21.7638C60.016 19.929 59.8094 18.4738 59.4654 17.4148C59.1453 16.4311 58.7665 15.8225 58.1474 15.7788C57.5048 15.7306 48.8336 15.7713 41.2917 15.9852C37.7448 16.0846 34.4506 16.2157 32.3733 16.4401C31.5865 16.5245 30.5823 16.4236 30.702 16.7188C30.7151 16.752 30.747 16.7203 30.7751 16.6887ZM30.7751 16.6887C30.7856 16.6736 30.7978 16.6601 30.812 16.648C30.8029 16.6555 30.7894 16.6721 30.7751 16.6887Z" fill="black"/>
<path fill-rule="evenodd" clip-rule="evenodd" d="M60.7856 41.5265C60.6872 41.5024 60.5131 41.4632 60.3585 41.4376C59.6647 41.3232 58.5734 41.2327 57.2044 41.1499C53.1694 40.9089 46.7834 40.8185 40.9583 40.9209C36.6919 40.9962 32.7298 41.171 30.2356 41.5069C29.3035 41.632 28.062 41.5747 28.2445 41.9317C28.2472 41.9378 28.251 41.9377 28.2551 41.9362C28.2226 41.9905 28.2039 42.0673 28.1719 42.1532C28.0672 42.4304 27.9846 42.7783 27.9129 43.182C27.5608 45.1675 27.5396 48.3174 27.6877 51.4719C27.8366 54.6459 28.1557 57.8214 28.5254 59.8506C28.6627 60.6038 28.775 61.1762 28.9106 61.47C28.8726 61.3992 28.8252 61.3269 28.7905 61.3841C28.6142 61.6733 29.7286 61.6673 30.6155 61.7878C32.9275 62.1011 36.6505 62.2774 40.6693 62.3799C49.4992 62.6028 59.7349 62.4552 59.7349 62.4552C60.0299 62.4446 60.2772 62.6736 60.2868 62.9658C60.2963 63.2566 60.0646 63.5006 59.7696 63.5097C59.7696 63.5097 43.5229 64.302 34.253 63.9977C31.4743 63.9059 29.2985 63.6934 28.2921 63.3726C27.6949 63.1828 27.3591 62.88 27.203 62.6405C26.9439 62.2428 26.6259 61.2274 26.3558 59.8084C25.8625 57.2204 25.4106 53.147 25.2742 49.4262C25.1704 46.5986 25.2585 43.9699 25.6095 42.3099C25.8376 41.2313 26.2357 40.4871 26.6476 40.115C26.8329 39.9478 27.1209 39.7685 27.5251 39.6224C28.0513 39.4311 28.8683 39.2563 29.9141 39.1223C32.4789 38.7939 36.5527 38.6372 40.9369 38.6342C46.8258 38.6312 53.2782 38.8918 57.3481 39.2488C59.7586 39.4597 61.3963 39.773 61.78 40.0186C62.0998 40.2219 62.4784 40.7432 62.7106 41.6063C63.0112 42.7226 63.2214 44.5394 63.3442 46.6348C63.6784 52.3351 63.4257 60.1293 63.1924 61.0979C63.1294 61.3811 62.8441 61.5619 62.5557 61.5001C62.2675 61.4383 62.0846 61.1566 62.1476 60.8719C62.3177 60.0298 62.2806 53.9936 61.9163 48.7724C61.7387 46.2265 61.484 43.8765 61.1185 42.4334C61.0262 42.0703 60.8542 41.6771 60.7856 41.5265ZM28.2551 41.9362C28.2649 41.9197 28.2759 41.9046 28.289 41.8941C28.28 41.9016 28.2661 41.9287 28.2551 41.9362ZM28.9106 61.47C28.9294 61.5046 28.9459 61.5392 28.9572 61.5588C28.9413 61.5317 28.9257 61.5031 28.9106 61.47Z" fill="black"/>
<path fill-rule="evenodd" clip-rule="evenodd" d="M67.9917 66.0404C67.9786 66.3312 67.7285 66.5572 67.4336 66.5451C67.1387 66.5316 66.9101 66.2845 66.9232 65.9938C66.9863 63.9661 66.8976 57.2008 66.7672 49.0134C66.6463 41.4196 66.4765 32.607 66.3384 25.212C66.1797 16.7128 66.0633 10.1027 65.9968 9.43986C65.8622 8.06752 65.4602 7.26007 64.7382 6.83375C63.8597 6.31555 62.6637 6.29445 61.3188 6.29897L24.1423 6.28841C23.4251 6.35771 22.8415 6.80813 22.3642 7.57339C21.9451 8.24525 21.611 9.13104 21.3601 10.2262C20.797 12.6711 20.0386 18.5793 19.4799 25.1668C19.0513 30.2194 18.7383 35.6696 18.7364 40.2777C18.7402 40.5684 18.5037 40.808 18.2085 40.8125C17.9134 40.8155 17.6708 40.582 17.667 40.2913C17.5448 35.6545 17.7068 30.1606 18.0075 25.0629C18.4033 18.3578 19.0412 12.3412 19.5522 9.84357C19.9011 8.14735 20.4534 6.86389 21.1409 5.97812C21.9044 4.99292 22.8513 4.46264 23.9272 4.33459C24.3991 4.28036 31.2294 4.14783 38.9423 4.06196C48.9443 3.94898 60.4387 3.90076 61.3188 3.89624C63.1649 3.90227 64.7823 4.07852 65.9823 4.80009C67.2287 5.54878 68.1429 6.84428 68.3512 9.22593C68.4326 10.2021 68.4922 23.8924 68.4174 37.6686C68.3484 50.3602 68.1644 63.121 67.9917 66.0404Z" fill="black"/>
<path fill-rule="evenodd" clip-rule="evenodd" d="M24.3112 65.0703C24.5144 65.1034 24.7633 65.1396 25.0056 65.1637C27.5999 65.4318 33.1068 65.6156 39.1338 65.7632C49.6984 66.0239 61.848 66.1594 62.7903 66.0721C63.0835 66.0389 63.3486 66.2483 63.3818 66.5375C63.4151 66.8268 63.2039 67.0889 62.9107 67.122C61.8463 67.2591 46.4454 67.708 35.1539 67.696C30.3583 67.6914 26.3006 67.592 24.3741 67.3962C23.3756 67.2937 22.7801 67.0452 22.6062 66.9051C22.4741 66.7981 22.2832 66.5903 22.1556 66.2167C22.0519 65.9139 21.9394 65.2736 21.8499 64.3442C21.6819 62.6043 21.5327 59.7059 21.4433 56.0981C21.3824 53.6471 21.3481 50.8678 21.3427 47.9001C21.3305 41.2252 21.441 33.6073 21.6187 26.6687C21.89 16.0771 22.3506 7.07325 22.7759 5.3725C22.8416 5.0893 23.1285 4.91001 23.4162 4.97479C23.704 5.04107 23.8843 5.32427 23.8185 5.60748C23.4945 7.13498 23.4106 14.5375 23.4353 23.6589C23.4498 29.0006 23.5183 34.9269 23.5918 40.6136C23.6734 46.9345 23.7842 52.9572 23.9202 57.5487C24.0067 60.4667 24.0885 62.8016 24.2152 64.2538C24.2407 64.5461 24.2786 64.8413 24.3112 65.0703Z" fill="black"/>
<path fill-rule="evenodd" clip-rule="evenodd" d="M15.4058 41.7313C15.4018 41.7464 15.3909 41.778 15.3775 41.7689C15.2569 41.6906 15.6191 41.5701 15.8176 41.4918C16.284 41.308 16.8933 41.1769 17.5597 41.088C19.3041 40.8576 21.3858 40.8756 22.4282 40.9253C22.7219 40.954 22.9834 40.7416 23.0118 40.4508C23.04 40.1616 22.8246 39.9025 22.5307 39.8754C21.2666 39.6961 18.5284 39.428 16.5428 39.6389C15.7191 39.7277 15.0186 39.9206 14.5398 40.1872C14.0652 40.4493 13.7864 40.8214 13.6491 41.2236C13.4796 41.7283 13.2625 43.9834 13.152 46.9088C13.0889 48.5855 13.0411 50.4866 13.0656 52.3907C13.0901 54.2933 13.1835 56.1944 13.3029 57.8756C13.5016 60.6669 13.8232 62.8663 14.1171 63.5668C14.5453 64.558 15.5447 65.1832 16.8933 65.3926C18.9637 65.7104 21.8338 65.1681 23.0943 65.0009C23.3885 64.9768 23.6071 64.7207 23.5823 64.43C23.5574 64.1392 23.2986 63.9238 23.0045 63.9479C21.9721 63.9826 19.792 64.1814 17.9848 63.9269C17.4575 63.853 16.9691 63.7325 16.5639 63.5487C16.2419 63.4041 15.9949 63.2053 15.898 62.9085C15.7133 62.3632 15.664 60.8372 15.6072 58.8517C15.5631 57.3091 15.5506 55.5075 15.5244 53.6561C15.5081 52.5007 15.483 51.3256 15.456 50.1853C15.4019 47.8835 15.341 45.7218 15.3405 44.1189C15.3405 42.8837 15.3347 42.0115 15.4058 41.7313Z" fill="black"/>
<path fill-rule="evenodd" clip-rule="evenodd" d="M23.297 5.48999C22.7393 7.90176 22.4429 24.992 22.4795 40.4012C21.5544 40.3123 19.8186 40.2068 18.2016 40.2837C18.0634 29.6092 19.5086 14.3929 20.4561 10.0348C21.002 7.52364 21.9774 6.00368 23.297 5.48999Z" fill="black"/>
<path fill-rule="evenodd" clip-rule="evenodd" d="M18.859 40.2038C18.8889 39.9146 19.1517 39.7022 19.4454 39.7323C19.7389 39.7625 19.953 40.0216 19.9229 40.3108C19.9229 40.3108 19.9179 42.9696 20.1094 47.62C20.1465 48.5223 20.1808 49.4954 20.2148 50.5409C20.2351 51.166 20.2607 51.8138 20.265 52.4872C20.2746 53.9966 20.2534 55.6235 20.2433 57.3619C20.2304 59.6366 20.1826 62.08 20.2363 64.7012C20.2624 64.9919 20.0448 65.248 19.7508 65.2737C19.4568 65.2993 19.197 65.0853 19.171 64.7946C18.7541 62.181 18.389 59.7406 18.1613 57.4568C17.9866 55.7034 17.8678 54.0569 17.8257 52.5278C17.8067 51.8454 17.8186 51.1856 17.8337 50.5514C17.8589 49.4894 17.9052 48.5012 17.9717 47.5883C18.3151 42.8657 18.859 40.2038 18.859 40.2038Z" fill="black"/>
<path fill-rule="evenodd" clip-rule="evenodd" d="M19.3906 40.2581C20.6159 40.2581 21.7796 40.3334 22.4794 40.4012C22.5046 50.9868 22.6868 60.7785 23.0493 64.4752C22.323 64.5355 21.0399 64.7042 19.7033 64.7479C18.3822 50.0016 19.3906 40.2581 19.3906 40.2581Z" fill="black"/>
<path fill-rule="evenodd" clip-rule="evenodd" d="M73.7194 41.4737C73.6312 41.4134 73.471 41.308 73.3319 41.2583C72.7827 41.0624 72.0498 40.9419 71.2866 40.8681C69.8073 40.725 68.2353 40.7416 67.571 40.7822C67.2779 40.8154 67.0119 40.609 66.9776 40.3198C66.9433 40.029 67.1534 39.7669 67.4465 39.7338C68.5447 39.5485 71.999 39.19 73.8346 39.6524C74.9671 39.9371 75.5344 40.6241 75.5716 41.3923C75.5912 41.9 75.7254 43.9518 75.8324 46.594C75.8969 48.1908 75.9667 50 75.9847 51.8122C76.0027 53.6229 75.968 55.4352 75.9302 57.035C75.867 59.7089 75.7507 61.7952 75.6708 62.3511C75.5049 63.4418 74.9453 64.3396 73.6448 64.8759C72.4335 65.376 70.4789 65.5734 67.468 65.2751C67.1732 65.26 66.9462 65.0129 66.9611 64.7207C66.9763 64.43 67.2277 64.2055 67.5225 64.2206C69.6841 64.2251 71.2241 64.0338 72.2921 63.6828C73.3079 63.3484 73.7693 62.8543 73.8117 62.1583C73.8491 61.619 73.7555 59.6124 73.676 57.044C73.6266 55.4487 73.5633 53.6425 73.5459 51.8348C73.5285 50.0256 73.556 48.2164 73.5816 46.6211C73.6222 44.0918 73.6956 42.0989 73.7194 41.4737Z" fill="black"/>
<path fill-rule="evenodd" clip-rule="evenodd" d="M15.5166 63.2656C15.7935 63.365 15.9357 63.6693 15.8338 63.9435C15.7319 64.2162 15.4243 64.3563 15.1472 64.2554C13.9365 63.8938 11.179 62.6706 8.36932 61.1341C6.89179 60.3251 5.40798 59.4318 4.12727 58.546C2.88059 57.6858 1.82877 56.8227 1.13669 56.0755C0.474827 55.36 0.123773 54.6806 0.0377209 54.1624C-0.251407 52.1468 1.13763 50.69 3.65234 50.0378C4.90467 49.7139 6.42598 49.5572 7.99291 49.5362C10.2635 49.5045 12.6125 49.732 14.3133 49.9836C14.6071 50.0107 14.8235 50.2682 14.7962 50.559C14.7687 50.8482 14.508 51.0621 14.2141 51.035C11.8887 50.9446 8.33694 51.0651 5.58466 51.6933C4.62649 51.9117 3.77927 52.195 3.14258 52.5731C2.64443 52.8683 2.30647 53.2254 2.41465 53.7556C2.43006 53.8385 2.50622 53.9153 2.57959 54.0193C2.74742 54.2543 2.98268 54.5088 3.26036 54.786C4.13614 55.6642 5.43072 56.6946 6.86232 57.7371C7.68072 58.3321 8.53455 58.9362 9.38422 59.5177C11.931 61.2576 14.3983 62.7836 15.5166 63.2656Z" fill="black"/>
<path fill-rule="evenodd" clip-rule="evenodd" d="M15.3314 63.7612C12.5807 62.7609 1.65483 56.4068 1.22564 53.9589C0.55599 50.1386 9.74124 50.0935 14.2632 50.5092C14.3034 55.9384 14.5386 62.0017 15.0073 63.2385C15.0821 63.4358 15.1919 63.609 15.3314 63.7612Z" fill="black"/>
<path fill-rule="evenodd" clip-rule="evenodd" d="M32.3918 5.03509C32.4934 5.30925 32.3509 5.61204 32.0739 5.71297C31.7966 5.8124 31.4892 5.67229 31.3876 5.39812C31.1039 4.71421 30.7686 3.94444 30.2091 3.30271C29.772 2.80107 29.1798 2.39733 28.3465 2.19246C27.3645 1.94691 25.6024 1.84298 23.8965 1.93487C22.9615 1.98458 22.0461 2.10207 21.2886 2.29639C20.764 2.42896 20.328 2.58412 20.0888 2.82816C17.9985 4.92359 16.4064 7.6909 15.2563 10.8001C14.826 11.9631 14.4559 13.1728 14.1478 14.4186C13.6994 16.2323 13.3816 18.1198 13.2217 20.045C12.9606 23.1874 13.0983 26.4217 13.7078 29.5701C14.3195 32.7305 15.3739 35.8021 16.9669 38.5905C17.1204 38.8391 17.0405 39.1644 16.7884 39.3151C16.5362 39.4672 16.207 39.3874 16.0535 39.1388C14.1929 36.3369 12.8532 33.2066 12.0157 29.9407C11.1732 26.6552 10.8387 23.2401 10.977 19.9079C11.0626 17.8441 11.3327 15.812 11.7849 13.8657C12.0991 12.5159 12.5028 11.2054 12.9927 9.95805C14.3282 6.55806 16.2668 3.6055 18.6555 1.38202C19.3941 0.708656 21.0217 0.274796 22.872 0.202488C25.041 0.118128 27.498 0.405857 28.7515 0.80807C29.6343 1.0958 30.3002 1.53414 30.8099 2.06892C31.6476 2.94716 32.07 4.05742 32.3918 5.03509Z" fill="black"/>
<path fill-rule="evenodd" clip-rule="evenodd" d="M22.1019 5.85763C22.098 5.87269 22.042 5.89829 22.0597 5.88624C22.1068 5.8531 21.9594 5.81998 21.9002 5.75671C21.6714 5.51417 21.2463 5.32886 20.7616 5.05319C20.5681 4.94322 20.3503 4.8664 20.1302 4.76095C19.9322 4.66755 19.7664 4.51237 19.5329 4.44157C19.1068 4.31051 18.6866 4.1373 18.0961 4.20811C17.8242 4.32109 17.5104 4.19453 17.3956 3.92639C17.2809 3.65825 17.4086 3.34791 17.6805 3.23493C18.2249 2.79355 18.7371 2.60676 19.2679 2.45462C19.5547 2.37327 19.8236 2.37477 20.0991 2.37477C20.5259 2.37327 20.9221 2.48022 21.2808 2.6399C21.4784 2.72727 21.6579 2.84327 21.8166 2.97734C22.0626 3.18372 22.2827 3.39162 22.4492 3.63717C22.5834 3.83451 22.7058 4.00625 22.79 4.2066C23.1292 5.00801 23.2446 5.62111 23.1713 5.85009C23.173 6.14083 22.9345 6.37884 22.6394 6.38035C22.3453 6.38186 22.105 6.14836 22.1019 5.85763Z" fill="black"/>
<path fill-rule="evenodd" clip-rule="evenodd" d="M34.4675 5.4056C34.3543 5.67525 34.0409 5.80328 33.7684 5.69181C33.4959 5.57882 33.3667 5.27003 33.4801 5.00038C33.6654 4.42343 34.4444 2.93204 35.5563 1.80826C36.2807 1.07614 37.1684 0.565486 38.0831 0.401286C38.7434 0.295837 39.6915 0.173814 40.7777 0.0969868C41.6145 0.0382366 42.5315 -0.00547014 43.4518 0.000555529C44.1785 0.00507478 44.9059 0.0457716 45.5975 0.100003C46.8925 0.202439 48.0579 0.371137 48.8767 0.568478C49.9434 0.845659 50.9578 1.4377 51.72 2.20296C52.6484 3.13392 53.231 4.23661 53.206 5.09376C53.222 5.3845 52.9956 5.63305 52.701 5.64962C52.4062 5.66469 52.154 5.44176 52.138 5.15102C52.0546 4.55147 51.4587 3.90067 50.7082 3.35384C50.0802 2.89438 49.3047 2.563 48.5166 2.47713C47.9855 2.41236 47.3028 2.40029 46.5344 2.38975C45.7682 2.3792 44.925 2.39579 44.0661 2.40332C43.5138 2.40784 42.9561 2.41085 42.4107 2.40483C40.7644 2.38826 39.2332 2.35056 38.2991 2.4063C37.5738 2.4289 36.8602 2.86727 36.2488 3.38849C35.3706 4.13718 34.6755 5.01393 34.4675 5.4056Z" fill="black"/>
<path fill-rule="evenodd" clip-rule="evenodd" d="M54.8909 5.04252C54.9321 5.33175 54.7283 5.59842 54.4361 5.63909C54.1438 5.67976 53.8731 5.47941 53.8318 5.19018C53.6879 4.65841 53.8447 3.44573 54.4695 2.49518C54.8574 1.90466 55.4612 1.4934 56.2281 1.2825C56.7705 1.14843 57.4799 1.03997 58.2661 0.976697C58.896 0.926985 59.5719 0.902897 60.234 0.916455C60.7751 0.928507 61.3057 0.969172 61.7921 1.0219C63.0703 1.16049 64.0606 1.3699 64.2844 1.45275C65.424 1.91371 66.1499 2.63226 66.4487 3.46983C66.8065 4.4731 66.6766 5.55774 66.0479 6.2763C65.8814 6.51733 65.5485 6.57908 65.3047 6.41488C65.0609 6.25068 64.9981 5.92079 65.1646 5.68127C65.4089 5.22332 65.3161 4.64031 65.0096 4.14621C64.7695 3.75906 64.3145 3.50899 63.6972 3.38998C63.6053 3.3719 63.3456 3.39001 62.9769 3.37795C62.431 3.36138 61.6963 3.37344 60.8968 3.34633C60.1751 3.32222 59.4043 3.27248 58.676 3.24085C57.8614 3.20469 57.1104 3.14597 56.5485 3.19418C56.115 3.21828 55.7682 3.42315 55.5279 3.71991C55.1428 4.19444 54.8856 4.74425 54.8909 5.04252Z" fill="black"/>
</g>
<defs>
<clipPath id="clip0_16_721">
<rect width="76" height="67.7091" fill="white"/>
</clipPath>
</defs>
</svg>
