<svg width="72" height="62" viewBox="0 0 72 62" fill="none" xmlns="http://www.w3.org/2000/svg">
<g clip-path="url(#clip0_16_762)">
<path fill-rule="evenodd" clip-rule="evenodd" d="M45.0531 30.1383C44.8509 30.155 44.6738 30.0048 44.6581 29.8036C44.641 29.6022 44.7917 29.4249 44.9934 29.4073C47.2634 29.115 49.1355 30.6601 50.1168 32.6057C50.739 33.8408 50.972 35.2426 50.7589 36.4362C50.5795 37.4419 50.0668 38.2981 49.2369 38.8768C48.4555 39.4077 47.6178 39.7408 46.7691 39.8873C45.8738 40.0413 44.9651 39.9938 44.1119 39.7702C42.3905 39.3195 40.8788 38.1777 40.0362 36.6326C39.2484 35.1463 39.0455 33.6486 39.4123 32.374C39.7993 31.0279 40.783 29.9132 42.3719 29.3658C42.5605 29.2915 42.7731 29.3838 42.847 29.5721C42.921 29.7604 42.8282 29.973 42.6395 30.0473C41.4103 30.5941 40.6792 31.5271 40.4581 32.6264C40.2518 33.6541 40.5198 34.8155 41.2302 35.9381C41.944 37.0938 43.1622 37.8828 44.5015 38.1829C45.1462 38.3278 45.8203 38.3533 46.4921 38.2404C47.1241 38.1342 47.7553 37.9126 48.3461 37.5318C48.9826 37.1327 49.2905 36.4373 49.3678 35.6567C49.4473 34.8495 49.3053 33.9572 48.9685 33.1282C48.2987 31.4816 46.9183 30.0661 45.0531 30.1383Z" fill="black"/>
<path fill-rule="evenodd" clip-rule="evenodd" d="M42.9479 32.4367C43.0025 32.2423 43.2052 32.127 43.3996 32.1812C43.5955 32.2356 43.7089 32.4375 43.6549 32.6328C43.5878 33.2843 43.7263 33.763 43.9102 34.1481C43.9843 34.3048 44.0989 34.4128 44.2 34.5197C44.34 34.6673 44.5179 34.7288 44.6841 34.7692C44.9741 34.8395 45.2741 34.743 45.3374 34.3424C45.3905 34.0091 45.4111 33.6033 45.2805 33.0801C45.1993 32.8942 45.2837 32.6784 45.47 32.5969C45.6554 32.516 45.8718 32.6007 45.9524 32.7857C46.5187 33.6628 46.6106 34.3872 46.5445 34.9372C46.5114 35.2065 46.3957 35.4244 46.279 35.6241C46.0989 35.9321 45.8173 36.1309 45.5167 36.2769C45.1625 36.4503 44.7374 36.4925 44.3231 36.4027C43.8246 36.2929 43.3173 35.9885 42.9848 35.4805C42.8049 35.2062 42.6467 34.8894 42.5937 34.5055C42.5149 33.926 42.5668 33.2407 42.9479 32.4367Z" fill="black"/>
<path fill-rule="evenodd" clip-rule="evenodd" d="M17.2265 42.0569C17.1118 42.2237 16.8833 42.2669 16.7163 42.1527C16.5494 42.0385 16.5067 41.8101 16.6215 41.6433C17.3708 40.3817 18.616 40.1731 19.8599 40.5264C20.8081 40.7954 21.7484 41.4441 22.4537 42.2388C22.9676 42.8172 23.331 43.487 23.5156 44.1389C23.8145 45.2845 23.6456 46.2831 23.1956 47.0656C22.8507 47.6649 22.3375 48.1434 21.7354 48.4588C20.3305 49.1947 18.453 49.1038 17.185 47.8733C16.5194 47.2081 16.0864 46.4756 15.8434 45.7775C15.4438 44.6292 15.5216 43.6076 15.7324 43.231C15.8201 43.0483 16.0394 42.971 16.2219 43.0584C16.4044 43.1457 16.4813 43.3648 16.3937 43.5474C16.2736 43.8414 16.3874 44.58 16.7817 45.3853C17.0404 45.914 17.4473 46.4562 18.0348 46.922C18.9035 47.6316 20.0829 47.5733 20.9446 47.0526C21.2748 46.8539 21.5503 46.576 21.7453 46.2353C22.0101 45.7744 22.1217 45.1963 21.969 44.5167C21.8313 43.8218 21.3794 43.1033 20.7973 42.5305C20.3983 42.1393 19.9527 41.8009 19.4799 41.6018C18.6808 41.2637 17.8354 41.2819 17.2265 42.0569Z" fill="black"/>
<path fill-rule="evenodd" clip-rule="evenodd" d="M17.6064 44.3045C17.609 44.1276 17.7551 43.9862 17.932 43.9879C18.1094 43.9905 18.251 44.1357 18.2484 44.3126C18.3415 44.7035 18.5683 44.8782 18.7751 45.0147C18.8421 45.059 18.9222 45.0289 18.9934 45.0363C19.0556 45.0435 19.118 45.0594 19.1754 45.037C19.2305 45.015 19.303 45.0355 19.3468 44.9895C19.4994 44.8286 19.6509 44.6218 19.6231 44.2688C19.5677 44.1007 19.6594 43.9192 19.8278 43.8636C19.9961 43.808 20.1773 43.8988 20.2327 44.0668C20.5717 44.6057 20.5387 45.0791 20.4428 45.4778C20.406 45.6299 20.3177 45.7487 20.2394 45.8733C20.1337 46.0416 19.978 46.1567 19.8194 46.2662C19.619 46.4052 19.3774 46.4787 19.1336 46.4932C18.7825 46.5132 18.4107 46.4174 18.1232 46.174C18.0039 46.073 17.883 45.9705 17.7976 45.824C17.7386 45.7227 17.6684 45.6289 17.6322 45.5058C17.5345 45.171 17.4673 44.7941 17.6064 44.3045Z" fill="black"/>
<path fill-rule="evenodd" clip-rule="evenodd" d="M53.2804 27.8619C53.4319 27.9966 53.4454 28.2282 53.3096 28.3791C53.1753 28.5301 52.9435 28.5441 52.7925 28.4103C52.0394 27.7714 50.0216 26.4972 47.612 25.8615C45.8662 25.4007 43.9082 25.2772 42.0829 26.0433C40.7391 26.6019 37.6292 28.2597 34.944 29.0677C33.5451 29.4883 32.2461 29.66 31.3076 29.4448C29.6881 29.0627 27.0743 28.1224 24.3718 27.8128C22.8792 27.6413 21.3551 27.6535 19.9712 28.1395C19.5945 28.2702 19.2194 28.5925 18.8352 29.0117C18.3155 29.5803 17.8038 30.3237 17.3205 31.1298C15.9367 33.4419 14.7949 36.2663 14.5015 37.238C14.1894 38.2639 13.2267 39.8509 12.7177 41.4722C12.4299 42.3884 12.2798 43.3152 12.5761 44.1349C12.9697 45.2241 13.4306 45.9921 14.145 46.371C14.8248 46.7316 15.7066 46.738 16.9037 46.4094C17.0973 46.3507 17.3017 46.4611 17.3596 46.6552C17.4174 46.8494 17.3061 47.053 17.1125 47.1117C15.6732 47.576 14.5973 47.553 13.751 47.1484C12.8459 46.7167 12.1866 45.8242 11.6443 44.4937C11.3269 43.7147 11.3102 42.845 11.464 41.9561C11.7892 40.0682 12.9438 38.0883 13.2604 36.8892C13.5353 35.8569 14.6282 32.8449 16.0157 30.3753C16.6373 29.2704 17.3247 28.2762 18.0131 27.5888C18.4813 27.1218 18.9632 26.793 19.4289 26.62C21.0399 26.0324 22.8208 25.9516 24.5664 26.1516C27.3455 26.47 30.0229 27.4896 31.6855 27.9019C32.638 28.1454 34.0617 27.7989 35.5463 27.3142C37.9384 26.5325 40.4552 25.3213 41.6245 24.8805C43.3009 24.2551 45.0482 24.2461 46.6806 24.5817C49.749 25.2128 52.3904 27.0331 53.2804 27.8619Z" fill="black"/>
<path fill-rule="evenodd" clip-rule="evenodd" d="M22.9118 44.9254C22.7196 44.9908 22.5114 44.888 22.4473 44.6956C22.3829 44.5046 22.4862 44.2963 22.6783 44.2309C22.6783 44.2309 25.1679 43.1743 28.3887 41.9168C29.1247 41.6296 29.8999 41.3386 30.6934 41.0504C31.2031 40.8641 31.719 40.6775 32.2401 40.5062C33.5737 40.0692 34.9176 39.6718 36.1641 39.31C39.4828 38.3456 42.1027 37.6712 42.1027 37.6712C42.2939 37.6064 42.5022 37.7092 42.5666 37.9001C42.6316 38.092 42.5283 38.3003 42.3355 38.3648C42.3355 38.3648 39.8439 39.4165 36.6193 40.6627C35.4086 41.1302 34.0982 41.6297 32.7729 42.0902C32.2553 42.2704 31.7312 42.4336 31.2126 42.5956C30.4074 42.8476 29.6151 43.0871 28.8559 43.3043C25.5319 44.2571 22.9118 44.9254 22.9118 44.9254Z" fill="black"/>
<path fill-rule="evenodd" clip-rule="evenodd" d="M50.0635 34.5058C49.8675 34.5561 49.6675 34.4376 49.6185 34.2413C49.5686 34.0456 49.6876 33.8456 49.8842 33.7962C50.4654 33.6109 52.0574 32.9428 54.311 31.4089C55.1306 30.8523 56.0296 30.1792 57.0127 29.3837C57.6271 28.8861 58.2699 28.3391 58.9501 27.748C59.5573 27.2212 60.1952 26.6649 60.8521 26.058C61.7301 25.2452 62.6472 24.3594 63.5924 23.3728C64.4344 22.4936 65.3031 21.551 66.1845 20.5129C66.3066 20.3511 66.536 20.3186 66.6976 20.4402C66.8593 20.5618 66.8913 20.791 66.7692 20.9528C65.427 22.9482 64.1193 24.686 62.8155 26.1691C61.7621 27.3661 60.7284 28.4049 59.7221 29.2878C59.2615 29.693 58.7984 30.0571 58.3493 30.3952C57.5847 30.9715 56.8545 31.4678 56.1606 31.8904C53.0294 33.7995 50.7873 34.3654 50.0635 34.5058Z" fill="black"/>
<path fill-rule="evenodd" clip-rule="evenodd" d="M67.1474 18.4908C67.3041 18.6182 67.3266 18.8501 67.1981 19.0061C67.0702 19.1629 66.8387 19.1868 66.6828 19.0587C65.149 17.8878 62.2238 16.1431 59.1867 15.3094C57.387 14.8156 55.5472 14.6388 53.9512 15.1923C51.573 15.9797 49.6461 16.6758 48.0254 17.4211C46.683 18.038 45.5541 18.6848 44.5839 19.5294C43.1466 20.7547 41.6073 22.4862 38.6413 24.73C36.9578 26.0041 34.8167 27.4332 31.9864 29.0411C31.8136 29.1463 31.5875 29.0921 31.4826 28.9197C31.377 28.7464 31.4324 28.5213 31.6052 28.416C34.2889 26.6676 36.2978 25.1248 37.8864 23.7849C40.7069 21.406 42.1706 19.6411 43.54 18.362C44.602 17.3912 45.8292 16.5999 47.3268 15.9061C48.9983 15.1328 51.0125 14.4838 53.4801 13.7167C55.3646 13.1601 57.5031 13.3939 59.5637 14.0834C62.6888 15.13 65.6236 17.1644 67.1474 18.4908Z" fill="black"/>
<path fill-rule="evenodd" clip-rule="evenodd" d="M43.2127 16.2461C43.2346 16.3535 43.2787 16.5443 43.3304 16.6771C43.5344 17.1986 43.9075 17.78 44.1407 18.0751C44.2829 18.2691 44.2991 18.5291 44.1802 18.7404C44.0615 18.9503 43.8304 19.0721 43.5888 19.0511C43.5888 19.0511 41.8056 18.9583 39.4998 18.9521C38.2305 18.9487 36.8034 18.9736 35.4292 19.06C34.4977 19.1174 33.5922 19.2039 32.7774 19.3313C31.8153 19.4799 30.9854 19.6692 30.4341 19.9868C28.6403 20.985 25.5632 22.7946 22.9177 24.6988C21.0719 26.0282 19.4291 27.3871 18.6387 28.592C18.5347 28.7655 18.3082 28.8212 18.1351 28.7161C17.9625 28.612 17.9072 28.3859 18.0118 28.2132C18.7538 26.886 20.3559 25.3038 22.2153 23.7849C24.7864 21.684 27.8406 19.7058 29.6133 18.5958C30.2954 18.1837 31.316 17.8708 32.5209 17.6794C33.3896 17.5421 34.3585 17.4633 35.3521 17.427C36.7692 17.376 38.2384 17.4097 39.5425 17.4777C40.7468 17.5401 41.8083 17.6306 42.5575 17.7038C42.2975 17.1142 42.0935 16.4653 42.149 16.0587C42.187 15.7873 42.2943 15.5737 42.4731 15.4342C42.6261 15.3146 42.8304 15.2222 43.1172 15.2392C43.6685 15.2719 44.1758 15.4414 44.6572 15.762C45.1899 16.1172 45.6993 16.6495 46.2092 17.3605C46.3332 17.52 46.304 17.7502 46.1441 17.8745C45.9847 17.9996 45.7544 17.971 45.6297 17.8105C45.1408 17.2317 44.6725 16.7977 44.1872 16.5277C43.8732 16.3525 43.5523 16.2589 43.2127 16.2461ZM43.1218 16.2443C43.112 16.2447 43.1021 16.245 43.0931 16.2448C43.0832 16.2452 43.0655 16.2432 43.0679 16.2505C43.0732 16.2771 43.0973 16.266 43.1218 16.2443Z" fill="black"/>
<path fill-rule="evenodd" clip-rule="evenodd" d="M25.9128 21.6958C25.8754 21.498 26.0072 21.3057 26.2053 21.2679C26.4048 21.2303 26.5963 21.3608 26.6335 21.56C26.6335 21.56 26.9718 22.2732 27.3256 23.2622C27.4046 23.4823 27.4747 23.7136 27.5399 23.9544C27.582 24.1087 27.6233 24.2636 27.6487 24.423C27.7132 24.8332 27.7341 25.2425 27.7503 25.6261C27.7914 26.6721 27.7396 27.4606 27.7396 27.4606C27.7768 27.6599 27.6458 27.8516 27.4463 27.8891C27.2473 27.9275 27.0552 27.7963 27.0186 27.5978C27.0186 27.5978 26.6847 26.8817 26.3446 25.8924C26.2196 25.5293 26.0917 25.1392 26.0034 24.7349C25.9688 24.5768 25.9518 24.4169 25.9346 24.2583C25.908 24.0091 25.8901 23.7691 25.8839 23.5351C25.8558 22.4841 25.9128 21.6958 25.9128 21.6958Z" fill="black"/>
<path fill-rule="evenodd" clip-rule="evenodd" d="M28.4795 20.0553C28.4499 19.856 28.5882 19.6695 28.7886 19.6389C28.9888 19.6097 29.1751 19.7474 29.2047 19.9468C29.2047 19.9468 29.5645 20.9896 29.9348 22.3757C30.0188 22.6895 30.0948 23.0175 30.1648 23.3572C30.209 23.5744 30.2544 23.7934 30.2823 24.0165C30.3539 24.5871 30.3839 25.1579 30.4065 25.6896C30.467 27.122 30.43 28.2245 30.43 28.2245C30.4587 28.4245 30.3204 28.611 30.12 28.6416C29.9204 28.6716 29.7335 28.533 29.7039 28.3337C29.7039 28.3337 29.3496 27.2897 28.9919 25.9015C28.8596 25.387 28.7234 24.8311 28.6269 24.2648C28.5888 24.0435 28.5684 23.8203 28.5483 23.5995C28.5172 23.2537 28.4948 22.9171 28.4835 22.5933C28.4373 21.1575 28.4795 20.0553 28.4795 20.0553Z" fill="black"/>
<path fill-rule="evenodd" clip-rule="evenodd" d="M33.4434 18.421C33.4092 18.2223 33.5436 18.0321 33.7432 17.9983C33.943 17.963 34.1323 18.0975 34.1665 18.2962C34.1665 18.2962 34.4995 19.0446 34.8429 20.0745C34.92 20.3048 34.9881 20.5462 35.0513 20.7972C35.0909 20.957 35.1322 21.1195 35.155 21.2843C35.2157 21.7096 35.2335 22.1349 35.2454 22.5327C35.2765 23.6145 35.2173 24.4333 35.2173 24.4333C35.2516 24.632 35.1171 24.8222 34.9182 24.8569C34.7183 24.8921 34.5291 24.7576 34.4943 24.558C34.4943 24.558 34.1671 23.807 33.8358 22.7765C33.7146 22.3983 33.5906 21.9916 33.5058 21.5699C33.4729 21.4069 33.4565 21.2403 33.4413 21.0753C33.4178 20.8177 33.4019 20.5675 33.3974 20.3248C33.3785 19.2386 33.4434 18.421 33.4434 18.421Z" fill="black"/>
<path fill-rule="evenodd" clip-rule="evenodd" d="M33.7541 28.2421C33.9208 28.1259 34.1486 28.1676 34.2645 28.3339C34.379 28.4999 34.3373 28.7284 34.1701 28.8437C34.1701 28.8437 32.0869 30.5198 28.5725 32.5349C27.8457 32.952 27.0537 33.3753 26.2054 33.7976C25.6869 34.0553 25.1485 34.3151 24.5847 34.558C23.2844 35.1175 21.8757 35.6379 20.3882 36.1107C18.3432 36.759 16.1532 37.286 13.8774 37.6906C13.6797 37.7357 13.4831 37.6137 13.4374 37.4164C13.3917 37.2191 13.5153 37.0224 13.7124 36.9764C15.1468 36.5583 16.5279 36.0717 17.8682 35.5697C19.2817 35.0397 20.6301 34.4729 21.9168 33.9139C22.7445 33.5547 23.5429 33.1951 24.3132 32.852C25.1495 32.4794 25.9526 32.1268 26.7072 31.7829C27.7556 31.3051 28.7135 30.8581 29.5634 30.4437C32.1835 29.1666 33.7541 28.2421 33.7541 28.2421Z" fill="black"/>
<path fill-rule="evenodd" clip-rule="evenodd" d="M31.0507 30.209C31.2034 30.3417 31.2183 30.5736 31.0846 30.7255C30.9515 30.8783 30.7193 30.8938 30.5675 30.7605C30.4077 30.6603 30.1997 30.6103 29.9621 30.5539C29.505 30.4475 28.9545 30.461 28.3737 30.5288C28.0151 30.5703 27.6602 30.666 27.3077 30.7764C26.9834 30.878 26.6617 30.9929 26.3824 31.1838C26.2562 31.2589 26.1476 31.3132 26.0867 31.3934C26.059 31.431 25.9908 31.4291 25.9964 31.4656C26.0138 31.5849 26.0672 31.709 26.1807 31.7912C26.4544 31.9872 26.8245 32.1333 27.1833 32.0097C27.3635 31.9172 27.5847 31.9886 27.676 32.1689C27.7673 32.3493 27.6954 32.5704 27.5147 32.6621C26.9108 33.0833 26.132 33.0226 25.5397 32.7642C25.1965 32.6151 24.9507 32.3499 24.7788 32.0689C24.4181 31.4779 24.4959 30.6793 25.4558 29.8642C25.7951 29.6126 26.1681 29.4014 26.5701 29.2727C27.1481 29.0882 27.7681 29.028 28.3575 29.0815C29.5379 29.189 30.5712 29.6553 31.0507 30.209Z" fill="black"/>
<path fill-rule="evenodd" clip-rule="evenodd" d="M19.3357 27.3546C19.3505 27.1518 19.5257 26.9996 19.7278 27.0145C19.9301 27.028 20.0821 27.2027 20.0673 27.4056C20.0631 28.1091 20.5795 29.9348 21.2854 31.7473C21.564 32.4618 21.8773 33.1679 22.2043 33.8044C22.5661 34.5055 22.9391 35.1147 23.347 35.4873C24.0697 36.2122 24.867 36.8137 25.6482 37.3782C27.0469 38.3882 28.419 39.2498 29.4566 40.1832C30.0149 40.6851 30.4754 41.2049 30.7926 41.7837C30.9016 41.9547 30.8512 42.1815 30.6807 42.2902C30.5102 42.3989 30.2833 42.3491 30.174 42.1795C29.8347 41.7178 29.371 41.3336 28.8379 40.961C27.7136 40.1743 26.26 39.5176 24.8099 38.6393C23.9068 38.0928 23.0211 37.4501 22.1906 36.6983C21.9117 36.4252 21.6307 36.0741 21.3783 35.6532C20.9535 34.9466 20.5692 34.0528 20.2664 33.1001C19.539 30.808 19.2172 28.2222 19.3357 27.3546Z" fill="black"/>
<path fill-rule="evenodd" clip-rule="evenodd" d="M53.3094 17.6793C53.447 17.531 53.6794 17.5217 53.8275 17.6588C53.9755 17.7958 53.9844 18.0281 53.846 18.1769C53.4511 18.6927 52.6858 19.9273 51.4056 21.2937C51.0569 21.6663 50.6661 22.0383 50.236 22.4064C49.9697 22.6352 49.6891 22.8635 49.3856 23.0746C48.6795 23.5635 47.8849 24.0074 47.0169 24.3837C45.8453 24.8904 44.5515 25.2552 43.1362 25.4587C42.9396 25.5043 42.7417 25.3832 42.6959 25.186C42.65 24.9889 42.7723 24.7917 42.9697 24.7455C43.8004 24.4637 44.5564 24.1088 45.2796 23.7332C46.0476 23.3324 46.7455 22.8856 47.4047 22.4359C47.8275 22.1469 48.228 21.8528 48.6163 21.5708C49.0358 21.2638 49.4412 20.9715 49.819 20.6813C50.3375 20.2813 50.8107 19.9041 51.2329 19.545C52.2254 18.7016 52.9315 18.0123 53.3094 17.6793Z" fill="black"/>
<path fill-rule="evenodd" clip-rule="evenodd" d="M49.8072 24.5484C49.6171 24.6187 49.4062 24.5215 49.3363 24.3317C49.2664 24.1419 49.3642 23.931 49.5543 23.8608C49.5543 23.8608 49.9017 23.5143 50.5088 22.9573C50.697 22.785 50.8941 22.5865 51.1374 22.3985C51.2713 22.2955 51.4245 22.2136 51.578 22.1152C51.7267 22.0211 51.8791 21.9398 52.0377 21.8416C52.3489 21.6494 52.6541 21.4838 52.9709 21.2399C53.0936 21.079 53.3248 21.0491 53.4846 21.1719C53.6451 21.2955 53.6754 21.5259 53.5513 21.6865C53.3363 22.1844 53.1147 22.6011 52.829 22.9941C52.6215 23.2803 52.3953 23.5236 52.1524 23.7253C52.0471 23.8127 51.9327 23.881 51.821 23.9438C51.6339 24.0485 51.4566 24.134 51.2808 24.201C51.0689 24.2821 50.8872 24.3404 50.7077 24.3834C50.133 24.524 49.8072 24.5484 49.8072 24.5484Z" fill="black"/>
<path fill-rule="evenodd" clip-rule="evenodd" d="M57.0101 17.3621C56.8731 17.5112 56.6413 17.5214 56.4915 17.3855C56.3426 17.249 56.3329 17.0174 56.4692 16.8674C56.4692 16.8674 56.4798 16.5553 56.5629 16.0342C56.5863 15.8873 56.5816 15.7267 56.6255 15.5559C56.6538 15.4461 56.7218 15.3485 56.7634 15.2323C56.7912 15.1517 56.8397 15.0888 56.8698 15.0042C56.9487 14.7821 57.0539 14.6066 57.0879 14.3404C57.038 14.1447 57.157 13.9447 57.3538 13.8939C57.5504 13.8444 57.7495 13.9635 57.7994 14.1592C58.0055 14.4461 58.0952 14.697 58.1974 14.9909C58.2456 15.1298 58.2566 15.2547 58.274 15.3929C58.2993 15.5952 58.285 15.7876 58.2452 15.972C58.2236 16.0748 58.1845 16.1704 58.1385 16.2595C58.0625 16.4053 57.9913 16.5339 57.8943 16.6447C57.7802 16.7771 57.6913 16.8812 57.5773 16.9707C57.2212 17.25 57.0101 17.3621 57.0101 17.3621Z" fill="black"/>
<path fill-rule="evenodd" clip-rule="evenodd" d="M5.99793 33.7612C5.82078 33.8593 5.5979 33.7954 5.50016 33.618C5.40251 33.4407 5.46766 33.2178 5.64481 33.1197C5.64481 33.1197 7.12653 32.0699 9.08628 30.806C9.53258 30.5175 10.0056 30.2262 10.493 29.9353C10.8067 29.7489 11.1225 29.5598 11.448 29.3869C12.2797 28.9418 13.1287 28.5355 13.9189 28.1639C16.0274 27.1714 17.7035 26.4744 17.7035 26.4744C17.8816 26.377 18.1042 26.4411 18.2022 26.6182C18.2994 26.7959 18.2347 27.0184 18.0572 27.1168C18.0572 27.1168 16.5716 28.1617 14.6073 29.4148C13.8712 29.8835 13.0746 30.3843 12.254 30.8496C11.9335 31.0318 11.6047 31.1993 11.2798 31.3643C10.7731 31.6204 10.2742 31.8649 9.79259 32.0889C7.67693 33.0698 5.99793 33.7612 5.99793 33.7612Z" fill="black"/>
<path fill-rule="evenodd" clip-rule="evenodd" d="M2.97974 40.7307C2.802 40.8279 2.57884 40.7617 2.48273 40.5845C2.38594 40.4066 2.45238 40.1841 2.63003 40.0869C2.63003 40.0869 3.41546 39.4299 4.5047 38.651C4.75058 38.4764 5.01136 38.303 5.28486 38.1324C5.45956 38.0234 5.63642 37.9129 5.822 37.818C6.29734 37.573 6.78721 37.3673 7.24586 37.1815C8.48408 36.6802 9.46123 36.3728 9.46123 36.3728C9.63897 36.2756 9.86215 36.3418 9.95826 36.5189C10.055 36.6969 9.9887 36.9193 9.81096 37.0165C9.81096 37.0165 9.02164 37.6699 7.92723 38.4358C7.52224 38.7204 7.08286 39.0192 6.61896 39.2855C6.43852 39.3896 6.24965 39.4779 6.06342 39.5657C5.77143 39.7022 5.48404 39.8267 5.20358 39.9377C3.95859 40.4297 2.97974 40.7307 2.97974 40.7307Z" fill="black"/>
</g>
<defs>
<clipPath id="clip0_16_762">
<rect width="66" height="29.1713" fill="white" transform="translate(0 36.9067) rotate(-34)"/>
</clipPath>
</defs>
</svg>
