<svg width="59" height="30" viewBox="0 0 59 30" fill="none" xmlns="http://www.w3.org/2000/svg">
<g clip-path="url(#clip0_16_784)">
<path fill-rule="evenodd" clip-rule="evenodd" d="M47.3996 28.6206C47.6095 28.6195 47.7813 28.7905 47.7824 29.0007C47.7835 29.212 47.6127 29.3831 47.4028 29.3842C47.4028 29.3842 40.4052 29.5835 32.0612 29.7535C28.7451 29.821 25.2181 29.8842 21.8335 29.9245C18.7893 29.9615 15.8626 29.9855 13.3089 29.9844C8.927 29.9833 5.64681 29.9256 4.76695 29.8994C2.44928 29.8155 0.415495 27.4986 0.057676 24.7077C-0.222924 22.5171 0.490547 20.0726 2.85497 18.4332C5.06715 16.9038 7.01392 16.8929 8.59638 17.4964C11.2697 18.516 12.8717 21.3482 12.8717 21.3482C12.9783 21.5301 12.9174 21.7644 12.7358 21.8711C12.5541 21.9779 12.3214 21.9169 12.2148 21.735C12.2148 21.735 10.6922 19.2447 8.26356 18.4256C6.9367 17.9768 5.33251 18.0704 3.55102 19.4038C1.69993 20.7839 1.17898 22.7546 1.45958 24.5062C1.77933 26.5106 3.12904 28.285 4.80176 28.2992C5.67835 28.3123 8.9444 28.26 13.3067 28.2469C15.8593 28.2382 18.786 28.2491 21.8291 28.2676C25.2137 28.2894 28.7408 28.3286 32.0569 28.3733C40.4009 28.4833 47.3996 28.6206 47.3996 28.6206Z" fill="black"/>
<path fill-rule="evenodd" clip-rule="evenodd" d="M10.5825 18.882C10.6195 19.09 10.4825 19.2883 10.2748 19.3264C10.0681 19.3645 9.8702 19.2262 9.83214 19.0192C8.71082 13.6085 9.83646 9.30677 12.1596 6.16842C13.3396 4.57474 14.8361 3.28282 16.5154 2.30026C18.9124 0.898298 21.688 0.119431 24.457 0.012677C27.2967 -0.0962555 30.1321 0.497441 32.5444 1.77086C37.5527 4.41464 40.8438 9.98437 38.6621 18.5192C38.6142 18.7251 38.4087 18.8525 38.2042 18.8046C37.9997 18.7567 37.8714 18.5519 37.9193 18.3471C39.5724 10.443 36.4956 5.45604 31.8309 3.18262C29.6252 2.10747 27.0792 1.64666 24.5255 1.75342C23.1899 1.80897 21.8522 2.01376 20.5602 2.37978C18.6232 2.92879 16.7905 3.83075 15.2255 5.09218C11.73 7.91027 9.58196 12.5007 10.5825 18.882Z" fill="black"/>
<path fill-rule="evenodd" clip-rule="evenodd" d="M38.9586 16.6346C38.8216 16.7937 38.5802 16.8111 38.4214 16.6728C38.2626 16.5344 38.2452 16.2926 38.3833 16.1335C40.3475 13.6706 42.7 12.444 44.9372 12.1139C46.1476 11.9364 47.3277 12.0322 48.4044 12.3383C50.4284 12.9135 52.0935 14.2533 52.9375 16.0268C53.5422 17.2958 53.726 18.7926 53.3388 20.3939C55.4651 19.9996 57.0845 20.6107 57.9927 21.7327C59.1553 23.1695 59.2292 25.5202 57.5304 27.773C57.4108 27.9462 57.1726 27.9887 56.9997 27.8689C56.8278 27.7479 56.7843 27.5104 56.9051 27.3372C58.1079 25.4505 58.071 23.6074 57.0715 22.5366C56.1666 21.566 54.5004 21.3558 52.397 22.3024C52.0979 22.4266 51.7531 22.3558 51.5269 22.1237C51.3007 21.8928 51.2376 21.5464 51.367 21.2501C52.0663 19.5813 51.9685 18.0409 51.3692 16.773C50.7199 15.4026 49.4811 14.3568 47.9422 13.834C45.3004 12.9364 41.8603 13.529 38.9586 16.6346Z" fill="black"/>
</g>
<defs>
<clipPath id="clip0_16_784">
<rect width="58.8608" height="30" fill="white"/>
</clipPath>
</defs>
</svg>
