<svg width="88" height="88" viewBox="0 0 88 88" fill="none" xmlns="http://www.w3.org/2000/svg">
<g clip-path="url(#clip0_16_854)">
<path fill-rule="evenodd" clip-rule="evenodd" d="M12.9305 35.2859C12.7833 35.1184 12.7984 34.8619 12.9664 34.7127C13.1337 34.5643 13.391 34.5795 13.5381 34.747C13.5381 34.747 18.43 39.9207 24.5823 46.5902C25.9907 48.1167 27.4585 49.7277 28.9477 51.3737C29.9047 52.4322 30.8739 53.5047 31.8283 54.5884C34.2656 57.3588 36.6691 60.1571 38.8868 62.7525C44.7819 69.6488 49.3385 75.1201 49.3385 75.1201C49.4873 75.2878 49.4706 75.5441 49.3034 75.6925C49.1353 75.8417 48.879 75.8258 48.7309 75.659C48.7309 75.659 43.8442 70.4807 37.7031 63.8029C35.3926 61.2897 32.9 58.5689 30.4424 55.8177C29.4794 54.7399 28.532 53.65 27.5943 52.5731C26.1384 50.8982 24.7151 49.2485 23.3673 47.6663C17.4827 40.7609 12.9305 35.2859 12.9305 35.2859Z" fill="black"/>
<path fill-rule="evenodd" clip-rule="evenodd" d="M31.4368 55.4716C31.2879 55.6394 31.0309 55.6545 30.8652 55.5062C30.6978 55.3578 30.6825 55.1018 30.8314 54.9341C31.5691 54.0204 33.1879 51.7667 35.0561 49.9605C36.299 48.7576 37.6691 47.7855 38.9241 47.4017C39.7356 47.1662 40.7882 47.2737 41.7816 47.7189C42.5969 48.0848 43.3741 48.6767 43.9205 49.443C44.8755 50.7835 45.2017 52.6475 43.9005 54.7475C43.2639 55.7403 41.8621 57.1471 40.368 58.3755C38.7197 59.7318 36.983 60.8788 36.1674 61.1147C35.9555 61.1871 35.7241 61.0745 35.6523 60.863C35.5813 60.6507 35.6944 60.4207 35.9063 60.3483C36.6387 60.0591 38.1115 58.8185 39.5271 57.438C40.7857 56.2108 41.9853 54.8663 42.493 53.9229C43.2648 52.5418 43.0543 51.3762 42.4275 50.5297C41.9765 49.9191 41.328 49.4679 40.6692 49.2309C40.2087 49.0649 39.7497 48.9801 39.3698 49.0746C38.2975 49.3225 37.1301 50.1108 36.0075 51.0301C34.0427 52.637 32.2399 54.6526 31.4368 55.4716Z" fill="black"/>
<path fill-rule="evenodd" clip-rule="evenodd" d="M37.1124 40.6098C37.156 40.7112 37.2229 40.8306 37.297 40.9529C37.589 41.4354 37.9593 41.9355 37.9593 41.9355C38.1108 42.0992 38.1007 42.3559 37.9365 42.5079C37.7724 42.6598 37.5155 42.6504 37.3632 42.4858C37.3632 42.4858 36.7279 41.9175 36.3047 41.413C36.0771 41.1424 35.9353 40.8662 35.8795 40.6836C35.8517 40.5899 35.8616 40.4618 35.8969 40.301C35.9352 40.1208 36.1027 39.8068 36.3736 39.4228C36.6592 39.0169 37.0838 38.5269 37.5897 38.0688C38.0552 37.6473 38.597 37.2712 39.1484 37.0031C39.6011 36.7841 40.0692 36.648 40.5199 36.6191C41.3349 36.5642 42.1063 36.832 42.7268 37.5493C43.3433 38.3221 43.3349 39.3382 42.7047 40.356C42.3749 40.886 41.9066 41.4263 41.3914 41.9002C40.3471 42.8584 39.1783 43.5638 38.91 43.6118C38.6942 43.6708 38.472 43.5441 38.4128 43.3276C38.3543 43.1121 38.4826 42.8889 38.6984 42.8299C38.7666 42.8042 38.891 42.6701 39.0794 42.5002C39.5413 42.0833 40.1945 41.3778 40.7322 40.6226C41.0273 40.2099 41.2687 39.7797 41.4114 39.377C41.4978 39.132 41.5517 38.9045 41.3911 38.7426C41.1717 38.5062 40.9031 38.4443 40.6257 38.4589C40.3754 38.4729 40.1166 38.5355 39.857 38.6342C38.8985 39.0006 37.9398 39.7359 37.407 40.2848C37.2999 40.3948 37.1776 40.5347 37.1124 40.6098ZM37.0591 40.4373C37.0591 40.4373 37.0591 40.4373 37.0583 40.4364L37.0591 40.4373Z" fill="black"/>
<path fill-rule="evenodd" clip-rule="evenodd" d="M48.9107 54.1828C48.9543 54.2842 49.0212 54.4036 49.0954 54.5259C49.3873 55.0084 49.7576 55.5085 49.7576 55.5085C49.9092 55.6722 49.8991 55.9289 49.7349 56.0809C49.5707 56.2328 49.3138 56.2234 49.1615 56.0588C49.1615 56.0588 48.5263 55.4905 48.103 54.986C47.8755 54.7154 47.7337 54.4392 47.6778 54.2566C47.65 54.1629 47.66 54.0348 47.6952 53.874C47.7335 53.6938 47.901 53.3798 48.1719 52.9958C48.4576 52.5899 48.8821 52.0999 49.388 51.6418C49.8535 51.2202 50.3953 50.8442 50.9467 50.5761C51.3994 50.3571 51.8676 50.221 52.3182 50.1921C53.1332 50.1372 53.9046 50.405 54.5251 51.1223C55.1417 51.8951 55.1333 52.9112 54.503 53.929C54.1733 54.459 53.7049 54.9993 53.1897 55.4732C52.1455 56.4314 50.9767 57.1368 50.7083 57.1848C50.4925 57.2438 50.2703 57.1171 50.2111 56.9006C50.1527 56.6851 50.2809 56.4619 50.4967 56.4029C50.565 56.3772 50.6893 56.2431 50.8778 56.0732C51.3397 55.6563 51.9928 54.9508 52.5305 54.1956C52.8257 53.7829 53.0671 53.3526 53.2098 52.95C53.2961 52.705 53.3501 52.4775 53.1894 52.3156C52.9701 52.0792 52.7014 52.0173 52.424 52.0319C52.1737 52.0459 51.915 52.1085 51.6554 52.2072C50.6968 52.5736 49.7382 53.3089 49.2053 53.8578C49.0983 53.9678 48.9759 54.1077 48.9107 54.1828ZM48.8574 54.0103C48.8574 54.0103 48.8574 54.0103 48.8567 54.0094L48.8574 54.0103Z" fill="black"/>
<path fill-rule="evenodd" clip-rule="evenodd" d="M33.8515 28.9114C33.9614 28.7165 34.209 28.6482 34.4038 28.7574C34.5985 28.8667 34.6678 29.1142 34.5563 29.3091C34.5563 29.3091 34.4692 29.4843 34.4385 29.6962C34.4219 29.8148 34.4207 29.9565 34.5328 30.052C34.6975 30.192 35.0021 30.2227 35.5163 30.1767C36.4588 30.0921 41.0676 30.2891 46.1984 30.5957C48.8565 30.7541 51.6539 30.9384 54.1477 31.1232C58.6018 31.4547 62.0859 31.7722 62.0859 31.7722C62.5789 31.8167 62.9471 32.242 62.9226 32.7348C62.9226 32.7348 62.738 36.1388 62.456 40.4725C61.9734 47.8615 61.2271 57.9578 61.2647 58.4548C61.2832 58.7127 61.3344 58.9483 61.5031 59.0558C61.6512 59.1521 61.8587 59.1294 62.1316 59.0054C62.3321 58.9077 62.5754 58.9916 62.6725 59.1934C62.7698 59.3936 62.6852 59.637 62.483 59.7347C61.8776 60.0482 61.3983 59.9964 61.05 59.7971C60.6656 59.5756 60.4171 59.1166 60.347 58.5469C60.3001 58.1575 60.4164 51.8585 60.6088 45.5607C60.7622 40.5352 60.9611 35.5145 61.0427 33.5317C59.6648 33.4069 56.7994 33.1425 53.4647 32.8114C49.318 32.401 44.4494 31.8803 40.7991 31.5359C38.1517 31.2856 36.1583 31.1095 35.5761 31.1319C34.6963 31.1651 34.2078 30.9636 33.9414 30.71C33.6464 30.4307 33.556 30.0777 33.5859 29.7378C33.6235 29.3025 33.8515 28.9114 33.8515 28.9114Z" fill="black"/>
<path fill-rule="evenodd" clip-rule="evenodd" d="M38.7398 30.5298C38.8895 30.3629 39.1464 30.3494 39.3129 30.4986C39.4794 30.6477 39.4931 30.9037 39.3435 31.0705C39.3435 31.0705 37.5685 33.3849 35.134 36.2542C34.5799 36.9058 33.9873 37.5802 33.3721 38.2604C32.9777 38.6966 32.5756 39.1365 32.159 39.563C31.1001 40.6457 29.9947 41.6907 28.9407 42.6483C26.7136 44.6685 24.6948 46.2627 23.6087 46.8302C23.4169 46.945 23.1671 46.882 23.0529 46.6905C22.9378 46.4981 23.0016 46.2483 23.1942 46.1344C23.853 45.6827 24.838 44.7039 26.0247 43.4611C26.8543 42.593 27.7643 41.5953 28.7229 40.5508C29.3098 39.9104 29.9079 39.2512 30.5224 38.6038C31.1359 37.9587 31.7627 37.3236 32.3766 36.7072C33.2564 35.8246 34.1165 34.9866 34.9025 34.2222C37.1176 32.0716 38.7398 30.5298 38.7398 30.5298Z" fill="black"/>
<path fill-rule="evenodd" clip-rule="evenodd" d="M60.7425 53.5332C60.9279 53.4057 61.1804 53.4526 61.3067 53.6367C61.4338 53.8217 61.3863 54.0742 61.2017 54.201C61.2017 54.201 59.3703 55.6752 56.8131 57.6777C55.9054 58.3887 54.9087 59.1632 53.8633 59.9541C53.1327 60.505 52.3807 61.0669 51.6185 61.6132C50.8562 62.1595 50.0822 62.6869 49.3284 63.2059C48.1029 64.0492 46.9263 64.8501 45.8884 65.5808C44.4265 66.6113 43.2423 67.4739 42.595 68.0765C42.4391 68.238 42.1827 68.245 42.0207 68.0904C41.8587 67.9358 41.854 67.6797 42.0091 67.5173C42.884 66.495 44.8456 64.6918 47.229 62.7332C48.3867 61.7819 49.636 60.7893 50.912 59.8469C51.4167 59.474 51.9315 59.1198 52.4412 58.7702C53.2361 58.2262 54.0197 57.7027 54.7752 57.2174C58.1017 55.0758 60.7425 53.5332 60.7425 53.5332Z" fill="black"/>
<path fill-rule="evenodd" clip-rule="evenodd" d="M55.9754 65.0305C56.1666 64.9133 56.4157 64.9739 56.5316 65.1655C56.6475 65.3571 56.5863 65.6062 56.3951 65.7219C56.3951 65.7219 55.2565 66.6703 53.6246 68.0262C53.2766 68.3164 52.9035 68.6163 52.5106 68.9271C52.2681 69.1196 52.0202 69.3183 51.7582 69.5078C51.1323 69.9585 50.4668 70.4007 49.8035 70.8595C48.8004 71.5508 47.7932 72.2197 46.904 72.9467C46.7459 73.1056 46.4898 73.1078 46.3304 72.9509C46.171 72.7941 46.1698 72.5365 46.3279 72.3776C47.0691 71.4486 47.8963 70.5091 48.8058 69.6359C49.4053 69.0596 50.0242 68.5124 50.6543 68.0259C50.9172 67.8234 51.1885 67.6411 51.4552 67.4659C51.8837 67.1837 52.3008 66.9253 52.7026 66.6954C54.5807 65.6245 55.9754 65.0305 55.9754 65.0305Z" fill="black"/>
<path fill-rule="evenodd" clip-rule="evenodd" d="M52.2358 66.0223C52.1134 66.2099 51.8619 66.2632 51.6746 66.1413C51.4873 66.0195 51.4347 65.7682 51.5572 65.5806C52.7128 63.578 54.7959 62.0367 56.8516 61.2814C57.8437 60.9164 58.8336 60.7539 59.7116 60.7821C60.5085 60.8072 61.2171 61.0148 61.7951 61.3619C62.4494 61.7667 62.9705 62.2214 63.3551 62.7168C64.5411 64.2436 64.5798 66.0591 63.7439 67.5449C63.2687 68.3896 62.5123 69.1405 61.511 69.6467C59.8851 70.4692 57.6173 70.7032 55.0209 69.6906C54.8087 69.6195 54.6938 69.3902 54.7639 69.1777C54.8357 68.9653 55.0653 68.8499 55.2775 68.921C58.0972 69.6997 60.3228 69.0126 61.578 67.7531C62.5823 66.7454 62.8642 65.3446 62.0964 64.14C61.8103 63.6907 61.3963 63.2622 60.8224 62.8916C60.2997 62.5393 59.5692 62.4334 58.7592 62.4886C57.9944 62.5411 57.1659 62.7271 56.3455 63.0423C54.7823 63.6419 53.2423 64.6515 52.2358 66.0223Z" fill="black"/>
<path fill-rule="evenodd" clip-rule="evenodd" d="M33.7691 17.4924C33.5501 17.447 33.4087 17.2332 33.4547 17.0141C33.499 16.7949 33.7133 16.653 33.9332 16.6976C33.9332 16.6976 39.1517 17.6014 45.3523 18.7184C47.8203 19.163 50.4442 19.6405 52.9554 20.1119C55.7465 20.6352 58.3985 21.1433 60.5445 21.5725C63.5703 22.1751 65.59 22.6144 65.59 22.6144C65.9894 22.6943 66.2851 23.0327 66.3111 23.4387C66.3111 23.4387 66.5668 28.1438 66.8142 33.4837C67.1378 40.4794 67.4539 48.5578 67.4539 48.5578C67.4684 48.781 67.2988 48.9743 67.0755 48.9894C66.8513 49.0052 66.6583 48.8362 66.6439 48.613C66.6439 48.613 65.9042 40.563 65.3136 33.585C64.9662 29.4861 64.6744 25.7584 64.5574 24.259C63.7251 24.0978 62.1642 23.7907 60.172 23.3795C58.0295 22.9367 55.3898 22.3704 52.6152 21.7653C50.1183 21.2203 47.5176 20.637 45.0714 20.0832C38.9262 18.6945 33.7691 17.4924 33.7691 17.4924Z" fill="black"/>
<path fill-rule="evenodd" clip-rule="evenodd" d="M66.702 45.5242C66.9055 45.4299 67.1461 45.5177 67.2408 45.7201C67.3345 45.9233 67.246 46.1641 67.0433 46.2592C67.0433 46.2592 66.3924 46.8067 65.4621 47.4882C65.2579 47.6382 65.0417 47.7849 64.8131 47.9315C64.6687 48.0233 64.5219 48.1158 64.3685 48.1971C64.1282 48.3233 63.8796 48.4277 63.635 48.5347C63.3784 48.6475 63.1314 48.7428 62.889 48.8418C62.2899 49.0886 61.7842 49.2679 61.4895 49.4904C61.3399 49.6573 61.0838 49.6717 60.9172 49.5242C60.7498 49.3758 60.7353 49.1189 60.8843 48.9512C61.1404 48.5219 61.6672 47.9537 62.3689 47.3713C62.709 47.0879 63.0813 46.8117 63.4811 46.5759C63.6378 46.4842 63.8037 46.4103 63.9671 46.3387C64.2244 46.2268 64.4759 46.1276 64.7244 46.0462C65.8437 45.681 66.702 45.5242 66.702 45.5242Z" fill="black"/>
<path fill-rule="evenodd" clip-rule="evenodd" d="M37.596 17.7064C37.7169 17.5171 37.9686 17.4621 38.156 17.5824C38.345 17.7028 38.3992 17.9541 38.2784 18.1418C38.2784 18.1418 36.7888 20.8251 32.9369 25.493C32.2322 26.3474 31.4422 27.2607 30.5618 28.2327C30.0446 28.8032 29.4988 29.3954 28.909 29.9954C27.6181 31.3074 26.1566 32.6897 24.5314 34.1468C22.4892 35.9772 20.172 37.892 17.6021 39.9469C17.4341 40.0944 17.177 40.0776 17.0299 39.9085C16.8837 39.7402 16.901 39.4847 17.0699 39.3364C19.0285 37.47 20.798 35.6915 22.4345 34.0302C23.6854 32.7622 24.844 31.5576 25.9298 30.43C26.7447 29.5839 27.513 28.7797 28.2475 28.0249C29.5407 26.6926 30.7035 25.4981 31.7243 24.4209C35.8108 20.1077 37.596 17.7064 37.596 17.7064Z" fill="black"/>
<path fill-rule="evenodd" clip-rule="evenodd" d="M21.7423 27.8487C21.8734 27.6674 22.1273 27.6258 22.3082 27.7562C22.4901 27.886 22.531 28.1397 22.3991 28.3217C22.3991 28.3217 21.732 29.6256 20.6527 31.294C20.4148 31.663 20.1509 32.041 19.8677 32.425C19.688 32.6668 19.504 32.9125 19.3019 33.1479C18.8013 33.7269 18.2517 34.2813 17.6947 34.8006C16.7461 35.6835 15.7844 36.4276 14.9476 36.9712C14.7743 37.1127 14.5186 37.0886 14.3767 36.9166C14.2349 36.7429 14.2604 36.488 14.4329 36.3457C15.095 35.6629 15.7769 34.7273 16.522 33.7428C16.9692 33.1536 17.4161 32.5447 17.8805 31.9665C18.0703 31.7311 18.2715 31.5088 18.4668 31.2885C18.7787 30.9393 19.0837 30.6067 19.3799 30.2942C20.7294 28.8731 21.7423 27.8487 21.7423 27.8487Z" fill="black"/>
<path fill-rule="evenodd" clip-rule="evenodd" d="M19.5449 28.9617C19.6395 29.1641 19.551 29.4049 19.3482 29.5C19.1446 29.5943 18.9032 29.5072 18.8095 29.304C18.0673 27.9347 18.53 25.7813 19.5738 23.9096C20.1408 22.8932 20.8878 21.976 21.666 21.3103C22.404 20.6778 23.1987 20.2977 23.9143 20.1885C26.9126 19.866 28.3809 21.5163 28.4151 23.6816C28.4285 24.4828 28.2325 25.3681 27.8084 26.2327C27.0712 27.7384 25.6882 29.2146 23.6899 30.096C23.4899 30.1979 23.2454 30.1196 23.144 29.92C23.0425 29.722 23.1223 29.4767 23.3206 29.3746C25.2985 28.2155 26.4133 26.4184 26.7221 24.8136C27.0444 23.1343 26.2488 21.6875 24.1382 22.0037C23.6947 22.0479 23.2191 22.3006 22.7386 22.6555C22.0477 23.1673 21.3628 23.8805 20.7999 24.6791C20.226 25.4933 19.7589 26.3738 19.5487 27.2179C19.3911 27.8524 19.3499 28.4531 19.5449 28.9617Z" fill="black"/>
<path fill-rule="evenodd" clip-rule="evenodd" d="M47.3337 10.5744C47.15 10.4478 47.1049 10.1946 47.2336 10.0108C47.3607 9.82681 47.6141 9.78105 47.7977 9.90924C47.7977 9.90924 48.7534 10.3077 49.9791 11.0714C50.2461 11.2373 50.5147 11.4262 50.7876 11.6359C50.9596 11.7666 51.1328 11.9023 51.2932 12.0568C51.6876 12.4364 52.0517 12.8623 52.3823 13.3097C52.9203 14.0345 53.3401 14.7823 53.641 15.5081C53.7578 15.6989 53.6989 15.9491 53.5077 16.0664C53.3172 16.1845 53.068 16.1256 52.9503 15.9355C52.4829 15.3943 51.8672 14.9208 51.2343 14.3994C50.837 14.0713 50.4194 13.7639 50.0426 13.424C49.6373 13.0584 49.2803 12.6723 48.946 12.3231C47.986 11.3176 47.3337 10.5744 47.3337 10.5744Z" fill="black"/>
<path fill-rule="evenodd" clip-rule="evenodd" d="M52.6157 14.8476C52.7761 14.6913 53.0335 14.6942 53.1894 14.8541C53.3461 15.0133 53.3425 15.2705 53.1821 15.4267C53.1821 15.4267 52.6963 16.2134 51.9411 17.1898C51.7722 17.407 51.5879 17.6239 51.3903 17.8416C51.2639 17.9805 51.1357 18.121 50.9938 18.2474C50.6304 18.571 50.2403 18.8566 49.8642 19.1162C49.0334 19.6914 48.3087 20.0903 47.958 20.2466C47.7735 20.3733 47.5209 20.3265 47.3948 20.1408C47.2685 19.9567 47.3161 19.704 47.5014 19.5782C47.7573 19.3251 48.1933 18.6843 48.7964 17.9549C49.0828 17.608 49.3877 17.2419 49.7259 16.9035C49.8592 16.7708 50.0046 16.6521 50.1483 16.5348C50.3747 16.3503 50.5978 16.1778 50.8205 16.0209C51.8232 15.3131 52.6157 14.8476 52.6157 14.8476Z" fill="black"/>
<path fill-rule="evenodd" clip-rule="evenodd" d="M49.2353 11.5436C49.3672 11.3616 49.621 11.3217 49.802 11.4521C49.9837 11.5835 50.0239 11.8363 49.892 12.0183C49.892 12.0183 49.3435 13.1533 48.4562 14.5782C48.2581 14.8959 48.0374 15.2193 47.8 15.5466C47.6489 15.756 47.4938 15.9659 47.3222 16.164C46.8887 16.6648 46.4118 17.1315 45.9376 17.5589C45.035 18.3711 44.1568 19.0014 43.4865 19.3392C43.3012 19.465 43.0487 19.4182 42.9233 19.2333C42.797 19.0492 42.8445 18.7966 43.0307 18.67C43.4665 18.2743 43.9426 17.6248 44.4903 16.8793C44.7165 16.5709 44.9434 16.2511 45.1856 15.9258C45.4188 15.6113 45.6516 15.2911 45.9006 14.9843C46.0616 14.7862 46.2308 14.5978 46.3982 14.4125C46.6642 14.12 46.9261 13.8403 47.1818 13.5782C48.3403 12.3982 49.2353 11.5436 49.2353 11.5436Z" fill="black"/>
<path fill-rule="evenodd" clip-rule="evenodd" d="M31.5249 55.6114C31.6997 55.4717 31.9553 55.499 32.0945 55.6734C32.2338 55.8477 32.2048 56.1041 32.03 56.2438C31.636 56.5939 31.8247 57.1111 32.0964 57.7168C32.7172 59.0967 34.0581 60.7981 34.4537 62.242C34.6983 63.1361 34.5905 63.9462 34.0783 64.6195C33.6209 65.2146 32.8783 65.4393 31.8984 65.2655C30.9824 65.1035 29.7707 64.5465 28.4492 63.7344C27.2338 62.9878 25.9089 62.0287 24.5951 61.0629C22.5302 59.5439 20.5079 57.9893 18.9368 57.2962C18.2856 57.0096 17.7472 56.8318 17.3435 56.9837C16.9617 57.1288 16.7819 57.5577 16.7342 58.3063C16.7306 58.5299 16.5472 58.7092 16.3226 58.7069C16.0997 58.7047 15.9202 58.521 15.9238 58.2974C15.8913 57.3842 16.1163 56.7831 16.4563 56.4079C17.0313 55.7733 18.063 55.726 19.3772 56.1801C21.0748 56.7663 23.3437 58.1754 25.5814 59.6513C26.9137 60.5306 28.2363 61.4289 29.4221 62.1662C30.5246 62.8518 31.4843 63.4136 32.2435 63.5878C32.4058 63.6243 32.5512 63.6556 32.6804 63.6382C32.7351 63.6305 32.7898 63.6334 32.8255 63.5932C33.053 63.3357 33.0726 63.0034 33.011 62.6359C32.9596 62.3331 32.8644 62.0118 32.7387 61.6817C32.225 60.3404 31.3195 58.8713 31.022 57.7186C30.7886 56.8163 30.8783 56.0754 31.5249 55.6114Z" fill="black"/>
<path fill-rule="evenodd" clip-rule="evenodd" d="M36.4129 61.6425C36.3968 61.4192 36.5641 61.2249 36.7876 61.2066C37.011 61.1899 37.2057 61.3574 37.2218 61.5807C37.3344 62.2099 37.5077 62.9073 37.6562 63.6538C37.7966 64.3644 37.9165 65.0991 37.9614 65.8377C38.0007 66.4709 37.9723 67.0986 37.8687 67.6999C37.793 68.1408 37.6723 68.5687 37.4906 68.9654C37.0384 69.9479 36.2836 70.7923 35.1004 71.3065C34.0179 71.7776 32.5643 71.9789 30.5987 71.7589C30.3735 71.7541 30.1972 71.569 30.2017 71.3446C30.207 71.1212 30.3935 70.9437 30.6171 70.9484C31.6741 70.8683 32.5309 70.6762 33.2535 70.4338C34.1618 70.1279 34.7822 69.685 35.2327 69.1633C35.5314 68.8164 35.7291 68.4241 35.8858 68.0093C36.0545 67.5641 36.175 67.0936 36.2479 66.6001C36.3407 65.9775 36.3855 65.337 36.3984 64.6966C36.4215 63.602 36.3882 62.5411 36.4129 61.6425Z" fill="black"/>
</g>
<defs>
<clipPath id="clip0_16_854">
<rect width="62.7996" height="61.1894" fill="white" transform="translate(46.1802) rotate(49)"/>
</clipPath>
</defs>
</svg>
