<svg width="109" height="67" viewBox="0 0 109 67" fill="none" xmlns="http://www.w3.org/2000/svg">
<g clip-path="url(#clip0_16_789)">
<path fill-rule="evenodd" clip-rule="evenodd" d="M52.3784 51.8794C52.4102 51.9124 52.4435 51.9626 52.4622 51.9855C52.4348 51.9511 52.4059 51.9153 52.3784 51.8794ZM64.7002 1.98055C64.4791 2.01211 64.1439 2.06809 63.8318 2.15272C60.786 2.97041 54.3853 5.80793 46.3664 8.26098C42.4537 9.45738 38.1596 10.5548 33.6893 11.3065C33.841 11.7799 34.1155 12.4398 34.3207 13.0853C36.0733 18.6183 40.9901 30.4905 45.6469 39.9972C48.1465 45.1012 50.5536 49.5254 52.3784 51.8794C52.3481 51.8464 52.3178 51.8277 52.3033 51.8636C52.1848 52.1706 53.2266 51.8536 54.0732 51.6585C56.3243 51.1435 59.8397 49.8739 63.5963 48.382C71.7944 45.127 81.118 40.8177 81.118 40.8177C81.3709 40.6972 81.6728 40.8033 81.7942 41.0544C81.9156 41.304 81.8087 41.6053 81.5573 41.7244C81.5573 41.7244 66.8645 48.92 58.1868 52.0745C55.5152 53.0457 53.374 53.6152 52.3293 53.565C51.7268 53.5363 51.341 53.3067 51.1258 53.0442C47.229 48.273 40.4902 34.4598 36.0155 23.8716C33.7702 18.5623 32.1014 14.055 31.5841 11.9047C31.3486 10.9263 31.392 10.2593 31.4989 9.98529C31.7026 9.46599 32.0768 9.23932 32.4958 9.1762C37.7941 8.37286 42.8569 7.03729 47.3489 5.64723C53.6412 3.69913 58.821 1.63053 61.9506 0.64072C63.3189 0.207491 64.3433 -0.0162907 64.9516 0.000923664C65.8618 0.0281798 66.2967 0.468602 66.4398 1.01084C66.9122 2.80544 68.7891 7.2941 71.1124 12.5947C76.1665 24.1212 83.3532 39.4234 83.3532 39.4234C83.4746 39.673 83.3676 39.9742 83.1162 40.0947C82.8648 40.2152 82.5614 40.1091 82.4401 39.8595C82.4401 39.8595 74.8676 24.7165 69.5592 13.2847C67.2532 8.31836 65.3807 4.04198 64.7002 1.98055ZM33.5997 10.9837C33.7485 10.8259 33.8959 10.6294 33.7008 10.6222C33.5694 10.6179 33.5506 10.7542 33.5997 10.9837Z" fill="black"/>
<path fill-rule="evenodd" clip-rule="evenodd" d="M52.3498 41.5092C52.0825 41.5881 51.7994 41.436 51.7199 41.1706C51.639 40.9052 51.7921 40.624 52.0594 40.5451C52.0594 40.5451 54.8668 39.4191 58.5266 38.0362C59.3559 37.7234 60.2301 37.4064 61.1273 37.0908C61.7009 36.8885 62.2832 36.6819 62.8712 36.4968C64.3638 36.0263 65.8736 35.5989 67.2853 35.1886C70.201 34.3408 72.6919 33.6422 73.7756 33.0985C74.0154 32.9565 74.3261 33.0354 74.4691 33.2735C74.6121 33.5116 74.5327 33.8215 74.2928 33.9621C73.2597 34.6736 70.8497 35.8485 67.9398 37.0377C66.5657 37.5986 65.0891 38.1696 63.5937 38.676C63.0056 38.8754 62.4103 39.0504 61.8208 39.2211C60.9034 39.4879 60.0018 39.7346 59.1378 39.9527C55.3306 40.9153 52.3498 41.5092 52.3498 41.5092Z" fill="black"/>
<path fill-rule="evenodd" clip-rule="evenodd" d="M49.3132 36.0501C49.0459 36.129 48.7627 35.9769 48.6833 35.7115C48.6024 35.4461 48.7555 35.165 49.0228 35.0861C49.0228 35.0861 50.5789 34.3458 52.9441 33.3704C53.4397 33.1652 53.97 32.9615 54.5335 32.7578C54.8788 32.6316 55.2357 32.5011 55.6055 32.392C56.4811 32.1338 57.4073 31.9114 58.3566 31.6934C59.7451 31.3735 61.1596 31.1196 62.5437 30.8183C62.8081 30.7294 63.0971 30.87 63.1867 31.1325C63.2763 31.395 63.1347 31.6805 62.8703 31.7709C61.5815 32.3734 60.2854 33.0045 58.9648 33.5568C58.0618 33.9355 57.1732 34.2885 56.3034 34.5797C55.935 34.7016 55.5665 34.7991 55.2097 34.8924C54.6274 35.0459 54.0711 35.1793 53.5437 35.2897C51.0297 35.8177 49.3132 36.0501 49.3132 36.0501Z" fill="black"/>
<path fill-rule="evenodd" clip-rule="evenodd" d="M46.9514 31.0823C46.6841 31.1612 46.4009 31.009 46.3214 30.7437C46.2405 30.4783 46.3937 30.1971 46.661 30.1182C46.661 30.1182 49.0204 29.1299 52.2511 27.8847C52.9649 27.6092 53.7205 27.3323 54.5051 27.0555C54.9992 26.8805 55.5035 26.7012 56.0193 26.542C57.285 26.1518 58.5911 25.7974 59.8655 25.4531C62.0024 24.875 64.0368 24.3801 65.655 23.8909C65.9151 23.789 66.2098 23.9168 66.3124 24.175C66.415 24.4318 66.2864 24.7244 66.0264 24.8262C64.489 25.5736 62.5732 26.4688 60.4983 27.3094C59.2673 27.8086 57.9958 28.2993 56.7316 28.7239C56.2172 28.896 55.7 29.0438 55.1929 29.1872C54.3881 29.4139 53.605 29.6219 52.8594 29.8012C49.4799 30.6174 46.9514 31.0823 46.9514 31.0823Z" fill="black"/>
<path fill-rule="evenodd" clip-rule="evenodd" d="M44.6536 25.1342C44.3863 25.2131 44.1031 25.0611 44.0236 24.7957C43.9427 24.5303 44.0958 24.2491 44.3631 24.1702C44.3631 24.1702 46.6576 23.2019 49.8232 21.9768C50.5197 21.7071 51.258 21.436 52.0252 21.1649C52.5092 20.9942 53.0005 20.8177 53.5047 20.6628C54.7386 20.2841 56.0159 19.9412 57.2671 19.607C59.3304 19.0547 61.3113 18.5813 62.9367 18.1065C63.1982 18.0061 63.4915 18.1352 63.5912 18.3934C63.6924 18.653 63.5623 18.9442 63.3008 19.0447C61.7606 19.7834 59.8968 20.6528 57.8985 21.4633C56.6906 21.9524 55.4481 22.433 54.217 22.8462C53.7128 23.014 53.2085 23.1574 52.7115 23.2966C51.9241 23.5189 51.1597 23.7197 50.4301 23.8948C47.117 24.6881 44.6536 25.1342 44.6536 25.1342Z" fill="black"/>
<path fill-rule="evenodd" clip-rule="evenodd" d="M42.2742 20.6553C42.0069 20.7342 41.7237 20.5821 41.6442 20.3168C41.5633 20.0514 41.7164 19.7701 41.9837 19.6913C41.9837 19.6913 42.8911 19.1548 44.4573 18.4189C44.7694 18.2725 45.1046 18.1305 45.4702 17.9899C45.6898 17.9038 45.9181 17.8149 46.1594 17.7475C46.7171 17.5911 47.3167 17.4763 47.9524 17.3659C48.8367 17.2124 49.7426 17.1278 50.7092 16.9944C50.975 16.9097 51.2597 17.0546 51.3449 17.32C51.4316 17.584 51.2842 17.8666 51.0184 17.9526C50.1529 18.4045 49.3611 18.855 48.5448 19.2351C47.9596 19.5077 47.3962 19.7515 46.8457 19.938C46.6073 20.0184 46.3674 20.0743 46.1377 20.1274C45.7534 20.2163 45.395 20.2881 45.0526 20.3411C43.3332 20.6065 42.2742 20.6553 42.2742 20.6553Z" fill="black"/>
<path fill-rule="evenodd" clip-rule="evenodd" d="M105.886 46.5688C103.12 44.0698 100.56 41.502 98.2756 39.0404C93.2085 33.5791 89.462 28.6988 87.5042 26.613C87.1936 26.2816 86.867 25.989 86.698 25.8427C86.214 26.1181 85.3601 26.5542 84.3689 27.039C81.7855 28.3029 78.2571 29.9382 78.2571 29.9382C78.0072 30.0616 77.7023 29.9598 77.5795 29.7102C77.4553 29.462 77.5578 29.1593 77.8092 29.0374C77.8092 29.0374 81.2494 27.2556 83.7664 25.8885C84.9324 25.2559 85.8946 24.7165 86.1851 24.4985C86.4076 24.3321 86.7558 24.246 87.2181 24.4684C87.6444 24.6735 88.4101 25.3721 89.4475 26.4752C91.4588 28.6141 94.6692 32.3325 98.7192 36.5457C101.609 39.551 104.92 42.8203 108.573 45.906C108.833 46.1284 108.955 46.4038 108.975 46.7151C108.989 46.9317 108.962 47.3047 108.582 47.6691C108.452 47.7939 108.112 48.0248 107.563 48.3017C106.221 48.9788 103.282 50.2426 99.4936 51.7431C95.3469 53.3842 90.1772 55.318 85.0104 57.1599C75.3963 60.5884 65.791 63.6742 62.7741 64.0228C62.4981 64.0601 62.2424 63.8664 62.2048 63.5909C62.1673 63.3169 62.3623 63.063 62.6397 63.0257C65.8921 62.5308 76.7978 58.4079 87.039 54.3597C93.2576 51.9023 99.2263 49.4637 103.071 47.8097C104.221 47.3147 105.179 46.8973 105.886 46.5688Z" fill="black"/>
<path fill-rule="evenodd" clip-rule="evenodd" d="M16.2747 35.5214C21.1745 40.5652 26.1472 45.1027 30.7881 49.0391C33.175 51.0646 35.4752 52.9281 37.6382 54.6122C43.0014 58.7867 47.5369 61.8222 50.5436 63.3199C51.503 63.7976 52.2861 64.1203 52.8741 64.2495C53.01 64.2796 53.192 64.2939 53.2715 64.2996C54.1109 63.5952 56.8258 61.1006 60.1172 58.068C66.9817 51.7431 76.3169 43.0829 76.3169 43.0829C76.5177 42.8906 76.8385 42.895 77.0335 43.0944C77.2286 43.2938 77.2228 43.6122 77.022 43.8059C77.022 43.8059 68.0032 52.7976 61.3338 59.3304C57.9427 62.6514 55.1498 65.3353 54.4606 65.9221C54.0575 66.2649 53.2628 66.4543 52.1069 66.1545C49.8934 65.5835 45.5978 63.2409 40.2143 59.3921C36.9244 57.0394 33.2126 54.1274 29.3115 50.7318C24.5023 46.5459 19.4209 41.6125 14.41 36.1799C14.2166 35.969 14.1125 35.7137 14.1518 35.3996C14.1781 35.1887 14.3682 34.7511 14.9272 34.3107C15.8701 33.5676 18.1559 32.245 20.9719 30.8176C26.7685 27.8811 34.8106 24.4842 37.7147 24.543C37.9936 24.5444 38.2204 24.7696 38.219 25.0479C38.2175 25.3248 37.9893 25.55 37.7104 25.5486C36.3045 25.5658 33.6836 26.5011 30.7202 27.7822C25.5498 30.0172 19.384 33.3539 16.799 35.1298C16.6197 35.2532 16.4339 35.3952 16.2747 35.5214ZM53.1674 64.3843C53.1674 64.3843 53.1674 64.3843 53.1674 64.3857V64.3843Z" fill="black"/>
<path fill-rule="evenodd" clip-rule="evenodd" d="M26.2801 38.8653C26.0431 39.0116 25.7305 38.9399 25.5828 38.7046C25.4351 38.4693 25.5078 38.158 25.7451 38.0117C25.7451 38.0117 26.9881 36.9143 28.6916 35.5989C29.0773 35.3005 29.4891 35.0036 29.9168 34.7066C30.1913 34.5173 30.4687 34.325 30.7591 34.1543C31.5047 33.7139 32.2733 33.3251 32.9914 32.9708C34.9218 32.0197 36.4591 31.39 36.4591 31.39C36.6975 31.2422 37.0096 31.3154 37.1569 31.5506C37.3043 31.7859 37.2321 32.0958 36.9951 32.2435C36.9951 32.2435 35.7453 33.3338 34.0346 34.6349C33.3974 35.1183 32.7068 35.6319 31.98 36.1009C31.6969 36.2846 31.4007 36.4466 31.1088 36.6073C30.6522 36.8583 30.2014 37.0937 29.7622 37.3045C27.8203 38.2427 26.2801 38.8653 26.2801 38.8653Z" fill="black"/>
<path fill-rule="evenodd" clip-rule="evenodd" d="M30.1669 43.6666C29.9298 43.8142 29.6173 43.7413 29.4696 43.506C29.3218 43.2708 29.3946 42.9592 29.6318 42.8131C29.6318 42.8131 31.0101 41.6309 32.8831 40.2117C33.3081 39.8891 33.7608 39.5669 34.2304 39.244C34.5318 39.0381 34.8364 38.829 35.154 38.6415C35.9678 38.158 36.8072 37.7264 37.5896 37.3323C39.6894 36.2776 41.362 35.5631 41.362 35.5631C41.5994 35.4155 41.9122 35.4884 42.0596 35.7237C42.2085 35.9589 42.1355 36.2691 41.8981 36.4166C41.8981 36.4166 40.513 37.5916 38.6328 38.9964C37.9313 39.5196 37.1715 40.076 36.3749 40.5882C36.0645 40.7887 35.7411 40.9675 35.4224 41.1448C34.9239 41.4218 34.4322 41.6823 33.9539 41.9173C31.8438 42.9593 30.1669 43.6666 30.1669 43.6666Z" fill="black"/>
<path fill-rule="evenodd" clip-rule="evenodd" d="M36.9945 48.3351C36.7575 48.4824 36.4449 48.4097 36.2971 48.1744C36.1495 47.9391 36.2222 47.6289 36.4594 47.4816C36.4594 47.4816 37.4736 46.5274 38.8941 45.3851C39.2141 45.1274 39.556 44.8728 39.9145 44.6195C40.1438 44.4581 40.3756 44.2941 40.6204 44.1515C41.2485 43.7823 41.9011 43.4666 42.5113 43.179C44.1589 42.4037 45.4671 41.9146 45.4671 41.9146C45.7052 41.7674 46.0171 41.8401 46.1645 42.0753C46.3131 42.3107 46.2399 42.6209 46.0031 42.7681C46.0031 42.7681 44.9825 43.7164 43.5545 44.8431C43.0252 45.2598 42.4521 45.7016 41.8412 46.0982C41.6038 46.2535 41.3532 46.3875 41.1064 46.5203C40.7191 46.7276 40.3382 46.9205 39.9646 47.0909C38.3057 47.853 36.9945 48.3351 36.9945 48.3351Z" fill="black"/>
<path fill-rule="evenodd" clip-rule="evenodd" d="M41.3539 51.9652C41.1168 52.1117 40.8044 52.0405 40.6565 51.804C40.5089 51.5687 40.5816 51.2581 40.8188 51.1117C40.8188 51.1117 41.5894 50.3112 42.7108 49.3506C42.9611 49.1359 43.2295 48.9272 43.514 48.7191C43.6956 48.5873 43.8789 48.4532 44.0753 48.3406C44.581 48.0474 45.1085 47.8087 45.6043 47.5918C46.955 47.0021 48.0175 46.6627 48.0175 46.6627C48.2553 46.515 48.5674 46.5874 48.7148 46.8227C48.8635 47.0594 48.79 47.3686 48.5534 47.5164C48.5534 47.5164 47.777 48.312 46.6475 49.2558C46.2327 49.6018 45.7844 49.9655 45.2961 50.2873C45.1071 50.4127 44.905 50.5167 44.706 50.62C44.3926 50.7821 44.0853 50.9291 43.7812 51.0564C42.4186 51.6325 41.3539 51.9652 41.3539 51.9652Z" fill="black"/>
<path fill-rule="evenodd" clip-rule="evenodd" d="M82.4949 32.1215C82.3244 31.9021 82.3663 31.585 82.5889 31.4172C82.8113 31.2479 83.1292 31.2895 83.2983 31.5104C83.2983 31.5104 84.8876 33.1128 86.8844 35.2732C87.3352 35.7609 87.7961 36.2802 88.2613 36.8182C88.559 37.1625 88.861 37.511 89.1456 37.874C89.8651 38.7921 90.5471 39.7446 91.1915 40.6398C92.4832 42.4344 93.5524 44.0109 94.2243 44.7583C94.4294 44.9477 94.441 45.2661 94.2503 45.4684C94.0595 45.6721 93.7388 45.6836 93.5351 45.4942C92.71 44.863 91.2522 43.5375 89.6701 41.8878C88.8985 41.0844 88.0952 40.2151 87.3424 39.3085C87.0448 38.9513 86.7674 38.5783 86.4957 38.2111C86.0695 37.6358 85.6649 37.0678 85.2922 36.5155C83.6436 34.0696 82.4949 32.1215 82.4949 32.1215Z" fill="black"/>
<path fill-rule="evenodd" clip-rule="evenodd" d="M77.9253 42.9981C77.7504 42.7815 77.7866 42.4645 78.0047 42.2909C78.2229 42.1173 78.5422 42.1517 78.7156 42.3684C79.412 42.9579 80.1012 43.4888 80.763 44.0827C81.0288 44.3222 81.2773 44.5661 81.5172 44.8143C81.6819 44.9836 81.8423 45.1499 81.9853 45.3293C82.3696 45.8127 82.6861 46.299 82.9822 46.7523C83.5949 47.6862 84.0153 48.4623 84.3765 48.9428C84.5817 49.1322 84.5933 49.4507 84.4026 49.653C84.2118 49.8567 83.8911 49.8681 83.6873 49.6787C83.1513 49.3387 82.3826 48.8094 81.4912 48.0362C81.0736 47.6733 80.6329 47.2716 80.2125 46.7996C80.0579 46.6275 79.9192 46.4367 79.7805 46.2416C79.5767 45.9576 79.3817 45.665 79.1953 45.3551C78.7373 44.5905 78.3544 43.8043 77.9253 42.9981Z" fill="black"/>
<path fill-rule="evenodd" clip-rule="evenodd" d="M74.305 45.6594C74.1272 45.4443 74.159 45.1272 74.3758 44.9508C74.591 44.7758 74.9103 44.8073 75.0881 45.0211C75.6241 45.3854 76.1081 45.6666 76.5878 46.0281C76.78 46.173 76.9534 46.3208 77.1224 46.4786C77.2366 46.5847 77.3478 46.6894 77.4417 46.8071C77.6989 47.1313 77.8882 47.4612 78.0688 47.771C78.443 48.4123 78.6496 48.9316 78.8851 49.3103C79.0903 49.4997 79.1019 49.8181 78.9111 50.0204C78.7204 50.2241 78.3997 50.2356 78.1959 50.0463C77.7711 49.8268 77.2409 49.5484 76.5979 49.0794C76.2974 48.8584 75.9853 48.616 75.6906 48.3032C75.5851 48.1914 75.4955 48.0623 75.4045 47.9303C75.273 47.7367 75.1502 47.5387 75.0375 47.322C74.7586 46.7855 74.5636 46.2576 74.305 45.6594Z" fill="black"/>
<path fill-rule="evenodd" clip-rule="evenodd" d="M70.1259 49.6692C69.9482 49.454 69.9799 49.137 70.1952 48.9605C70.412 48.7855 70.7313 48.8156 70.909 49.0308C71.4479 49.4009 71.9363 49.6878 72.4203 50.0536C72.6154 50.2014 72.7902 50.352 72.9607 50.5112C73.0763 50.6188 73.189 50.725 73.2843 50.844C73.5444 51.1711 73.7366 51.5054 73.9201 51.8196C74.2986 52.468 74.511 52.9916 74.7494 53.3732C74.9546 53.5625 74.9661 53.8809 74.7754 54.0832C74.5847 54.2869 74.2639 54.2984 74.0602 54.1091C73.6325 53.8867 73.0965 53.6027 72.4492 53.1264C72.1443 52.9026 71.8294 52.6559 71.5317 52.3403C71.4248 52.2269 71.3338 52.0964 71.2427 51.9615C71.1098 51.7664 70.9856 51.5671 70.87 51.3476C70.5868 50.8053 70.3888 50.2717 70.1259 49.6692Z" fill="black"/>
<path fill-rule="evenodd" clip-rule="evenodd" d="M12.0438 44.7827C14.4828 46.4827 17.8064 48.2084 21.3684 49.9399C22.5817 50.5295 23.82 51.1248 25.0617 51.7173C26.9359 52.6124 28.8157 53.5019 30.6391 54.3396C32.0984 55.011 33.5144 55.6551 34.8538 56.259C40.5031 58.8067 44.7785 60.5741 44.7785 60.5741C45.0414 60.6688 45.1758 60.9571 45.0804 61.2182C44.9851 61.4793 44.6932 61.6141 44.4317 61.518C44.4317 61.518 38.778 59.7708 31.8672 57.0681C29.2333 56.0381 26.4173 54.869 23.6751 53.5951C22.313 52.961 20.9729 52.294 19.6811 51.6083C16.2264 49.7778 13.1116 47.8325 10.8185 46.0265C10.3839 45.6807 10.1975 45.2289 10.3174 44.6651C10.407 44.2434 10.7178 43.6896 11.248 43.1158C13.1281 41.0788 17.7369 38.2155 17.7369 38.2155C17.9686 38.0591 18.2836 38.1208 18.4399 38.3503C18.5963 38.5798 18.5351 38.8925 18.3035 39.0489C18.3035 39.0489 12.9712 42.8633 12.0438 44.7827Z" fill="black"/>
<path fill-rule="evenodd" clip-rule="evenodd" d="M50.5911 63.9768C50.8699 64.0012 51.078 64.2437 51.0534 64.5205C51.0303 64.7974 50.7847 65.0026 50.5058 64.9796C48.2157 64.8634 42.3684 64.0802 35.5328 62.594C33.6256 62.1794 31.6432 61.7017 29.6436 61.1666C28.3504 60.8209 27.0486 60.4494 25.7594 60.0448C23.5888 59.3649 21.4449 58.6088 19.3942 57.8012C15.9748 56.4556 12.8255 54.9522 10.2375 53.3885C9.13302 52.7143 9.0654 51.6485 9.76312 50.4722C10.7989 48.7264 13.6139 46.7008 13.6139 46.7008C13.8353 46.5315 14.1536 46.5716 14.3241 46.7926C14.4946 47.012 14.4533 47.3277 14.2318 47.4969C14.2318 47.4969 12.3331 49.0635 11.3078 50.5712C11.1032 50.8724 10.9395 51.1708 10.8429 51.4505C10.7546 51.7044 10.7458 51.9368 10.996 52.0673C13.5947 53.4402 16.7517 54.6753 20.1288 55.8387C22.1754 56.5445 24.3044 57.2116 26.4432 57.8586C27.7176 58.2445 28.9948 58.6289 30.2605 59.0005C32.2241 59.5757 34.1602 60.1209 36.0211 60.6301C42.6747 62.4477 48.3458 63.7115 50.5911 63.9768Z" fill="black"/>
<path fill-rule="evenodd" clip-rule="evenodd" d="M9.71071 35.1886C9.91732 35.0022 10.2379 35.0165 10.4261 35.2216C10.6143 35.4268 10.5993 35.7452 10.3927 35.9332C10.3927 35.9332 9.14462 37.4408 7.50283 39.5023C6.91377 40.2425 6.28713 41.0559 5.61845 41.8721C5.09397 42.5133 4.53553 43.1431 4.01018 43.7858C3.47024 44.4456 2.94215 45.0883 2.48327 45.7396C1.83699 46.6563 1.2943 47.5285 1.00027 48.3835C0.938286 48.6532 0.666502 48.8238 0.394002 48.7621C0.121504 48.7005 -0.0492765 48.4308 0.0127078 48.1597C0.195192 46.7194 0.839165 45.0668 1.77673 43.4171C2.31364 42.4732 2.93941 41.5364 3.62773 40.6685C3.90341 40.3214 4.20047 39.9943 4.49696 39.6787C4.96278 39.1824 5.43077 38.7161 5.89486 38.29C7.96316 36.395 9.71071 35.1886 9.71071 35.1886Z" fill="black"/>
<path fill-rule="evenodd" clip-rule="evenodd" d="M6.82568 46.7639C7.01206 46.5573 7.33253 46.5386 7.54073 46.7237C7.74908 46.9087 7.76686 47.2272 7.58047 47.4338C7.58047 47.4338 7.20842 48.263 6.66241 49.4379C6.47703 49.8381 6.29512 50.277 6.06077 50.7174C5.88392 51.0488 5.6672 51.3673 5.47272 51.7015C5.27767 52.0372 5.067 52.3456 4.89766 52.6885C4.67588 53.136 4.46219 53.5449 4.36119 54.0068C4.36119 54.2851 4.13435 54.5103 3.85477 54.5103C3.57534 54.5103 3.34835 54.2851 3.34835 54.0068C3.21817 53.4057 3.21614 52.8061 3.27235 52.1591C3.3076 51.7517 3.38909 51.3601 3.49876 50.9599C3.6129 50.5453 3.7636 50.1422 3.95476 49.7649C4.05792 49.5626 4.18174 49.3733 4.30946 49.194C4.51218 48.907 4.71749 48.6445 4.93769 48.4107C5.94186 47.3434 6.82568 46.7639 6.82568 46.7639Z" fill="black"/>
<path fill-rule="evenodd" clip-rule="evenodd" d="M23.8464 21.8919C23.6178 22.0526 23.3017 21.9981 23.1407 21.7714C22.9798 21.5433 23.0345 21.2306 23.263 21.0699C23.263 21.0699 25.2235 19.3743 28.595 17.5122C29.2987 17.1235 30.0674 16.7405 30.8952 16.369C31.4024 16.1409 31.9283 15.9156 32.4817 15.7162C33.7633 15.2571 35.1532 14.8699 36.6183 14.5672C38.6339 14.1497 40.7766 13.9202 43.0046 13.8758C43.282 13.8485 43.5305 14.0508 43.5579 14.3276C43.5839 14.6045 43.3802 14.8498 43.1028 14.8771C41.7129 15.1252 40.385 15.4709 39.0919 15.8439C37.7308 16.2355 36.4391 16.6888 35.2038 17.1407C34.412 17.4319 33.6477 17.7274 32.9094 18.0072C32.1075 18.3113 31.3374 18.5924 30.612 18.875C29.605 19.2681 28.6861 19.6353 27.8668 19.9868C25.3587 21.0598 23.8464 21.8919 23.8464 21.8919Z" fill="black"/>
<path fill-rule="evenodd" clip-rule="evenodd" d="M15.2561 15.8769C15.0017 15.9917 14.7011 15.8798 14.5855 15.6274C14.4698 15.3749 14.5825 15.0765 14.8369 14.9617C14.8369 14.9617 16.2214 14.0364 18.2584 13.0136C18.7061 12.7884 19.186 12.5732 19.6912 12.3638C20.0095 12.2318 20.3358 12.1013 20.6743 11.9937C21.5075 11.7312 22.3792 11.5303 23.2437 11.3768C24.6817 11.1229 26.0635 11.0268 27.2539 11.0727C27.5313 11.0483 27.7769 11.2535 27.8015 11.5303C27.8246 11.8072 27.618 12.0511 27.3391 12.074C26.2497 12.3035 25.049 12.7812 23.7721 13.2661C22.9888 13.5631 22.2018 13.8858 21.4164 14.167C21.0945 14.2817 20.7695 14.3764 20.4515 14.4711C19.9433 14.6246 19.4531 14.7651 18.9834 14.8914C16.8281 15.4695 15.2561 15.8769 15.2561 15.8769Z" fill="black"/>
</g>
<defs>
<clipPath id="clip0_16_789">
<rect width="109" height="66.3041" fill="white"/>
</clipPath>
</defs>
</svg>
