<svg width="170" height="168" viewBox="0 0 170 168" fill="none" xmlns="http://www.w3.org/2000/svg">
<g clip-path="url(#clip0_16_915)">
<path fill-rule="evenodd" clip-rule="evenodd" d="M93.449 40.7323L87.6039 57.5209C89.1923 57.9677 92.4698 59.0557 95.1203 60.8871C96.9977 62.2132 98.5425 63.9164 99.0966 65.9906C99.9866 69.3751 99.092 72.2492 97.4787 74.4508C95.5162 77.1164 92.4451 78.775 90.2427 79.1451C88.9101 79.382 87.3159 79.1874 85.7682 78.8C83.9168 78.3601 82.1369 77.6432 81.0105 77.1386L77.1893 89.4104L93.7192 94.6888C94.0512 94.7967 94.3277 95.0252 94.4848 95.3303C94.6351 95.6564 94.6607 96.0111 94.5458 96.3434C94.5458 96.3434 93.1744 100.379 92.821 104.238C92.6579 106.033 92.6765 107.794 93.2991 108.99C94.2081 110.717 95.8732 111.766 97.6082 112.053C99.3376 112.315 101.152 111.796 102.326 110.329C103.183 109.245 103.936 107.872 104.58 106.487C106.082 103.257 106.968 99.9638 106.968 99.9638C107.078 99.5607 107.344 99.2314 107.702 99.0473C108.066 98.8423 108.487 98.8175 108.876 98.9437L128.066 105.341C128.884 105.606 129.325 106.489 129.056 107.302L112.727 157.09C112.431 157.987 111.462 158.481 110.562 158.188C110.562 158.188 83.2919 149.351 56.0534 140.408C28.817 131.466 1.60105 122.461 1.60105 122.461C1.20226 122.332 0.874444 122.04 0.682923 121.678C0.496102 121.294 0.461665 120.867 0.592741 120.47L33.7408 21.0086C33.8291 20.737 34.0301 20.5019 34.2942 20.3567C34.5537 20.2331 34.8549 20.2156 35.1325 20.3059L92.9647 39.7434C93.161 39.8072 93.3218 39.9517 93.4121 40.1428C93.5023 40.3338 93.5143 40.5456 93.449 40.7323ZM91.7227 40.9799L35.4976 22.7345C32.0927 33.2704 4.07764 119.94 4.07764 119.94C10.1393 121.886 33.6416 129.476 57.1324 137.109C80.4624 144.689 103.765 152.353 110.005 154.404C112.821 145.986 125.591 107.794 125.591 107.794L109.37 102.246C108.925 103.603 108.185 105.672 107.215 107.713C106.455 109.314 105.556 110.893 104.561 112.118C102.695 114.422 99.8565 115.278 97.1537 114.816C94.608 114.381 92.1809 112.808 90.8679 110.256C90.0565 108.675 89.9055 106.362 90.1469 103.992C90.4339 101.198 91.2105 98.3319 91.6883 96.7547L75.3151 91.3425C74.6887 91.1389 74.3491 90.4511 74.5465 89.8222L79.262 75.2308C79.3618 74.9167 79.5926 74.6682 79.9006 74.5373C80.2086 74.4064 80.5531 74.4258 80.8485 74.568C80.8485 74.568 83.4834 75.9787 86.2937 76.707C87.5422 77.0203 88.8185 77.227 89.8954 77.0456C91.7047 76.7556 94.2115 75.3989 95.8472 73.2277C97.1577 71.4821 97.8956 69.2039 97.2132 66.4874C96.7995 64.8052 95.5233 63.4898 94.0353 62.4288C90.7142 60.033 86.2622 58.9792 86.2622 58.9792C86.0174 58.9228 85.8086 58.7625 85.6829 58.56C85.5639 58.3365 85.5426 58.0754 85.6303 57.8267L91.7227 40.9799Z" fill="black"/>
<path fill-rule="evenodd" clip-rule="evenodd" d="M17.8995 72.8254C17.4965 72.6945 17.2732 72.2523 17.4001 71.8546C17.527 71.457 17.9613 71.2285 18.3643 71.3594L36.3733 76.7027C37.0443 75.2344 38.4838 72.2604 40.2282 69.6625C41.5935 67.6344 43.1807 65.8401 44.7034 65.0182C47.4149 63.543 50.4054 63.5677 52.9546 64.4884C55.9001 65.561 58.2075 67.8584 58.9322 70.4731C59.4205 72.2026 59.3659 74.4024 59.0321 76.5808C58.6491 79.0666 57.918 81.5086 57.3853 83.0911L76.1749 88.5262C76.6264 88.6498 77.0042 88.9575 77.2218 89.3747C77.4415 89.7926 77.4874 90.2695 77.3401 90.7298L71.9488 107.088C71.6882 107.904 70.8236 108.363 69.9937 108.139C69.9937 108.139 66.3399 107.045 62.7903 107.092C61.2458 107.122 59.7096 107.339 58.5971 108.063C56.9036 109.176 55.807 110.853 55.4795 112.663C55.152 114.474 55.5531 116.429 56.8057 118.13C57.4585 119.012 58.5275 119.729 59.6628 120.306C62.282 121.665 65.2708 122.313 65.2708 122.313C65.5725 122.365 65.8267 122.562 65.9807 122.82C66.1367 123.079 66.1716 123.391 66.0766 123.683L60.4587 140.014C60.3229 140.432 59.8933 140.639 59.4903 140.508C59.0852 140.376 58.8593 139.957 58.9951 139.539L63.7036 124.159C62.4842 123.856 60.4757 123.295 58.6264 122.394C57.1242 121.675 55.7383 120.74 54.849 119.619C53.062 117.376 52.4689 114.711 52.8456 112.223C53.2344 109.67 54.6722 107.319 56.9896 105.693C58.5051 104.637 60.5832 104.181 62.703 104.107C65.2149 103.999 67.7847 104.395 69.3506 104.719L73.508 91.3557L54.7034 85.8464C54.2394 85.7188 53.8599 85.3875 53.6533 84.9508C53.4466 84.514 53.4265 84.0223 53.6113 83.5741C53.6113 83.5741 55.1641 79.8747 55.8281 76.048C56.117 74.3632 56.2661 72.6327 55.9144 71.2711C55.4621 69.5302 53.8729 68.0206 51.9155 67.246C50.1017 66.5412 47.9521 66.4434 45.9772 67.4418C44.728 68.0754 43.473 69.5155 42.3192 71.1272C39.9055 74.4778 38.033 78.5357 38.033 78.5357C37.8001 79.0606 37.2071 79.3298 36.658 79.1514L17.8995 72.8254Z" fill="black"/>
<path fill-rule="evenodd" clip-rule="evenodd" d="M167.931 62.3226C168.214 62.6455 168.19 63.1229 167.873 63.4123C167.552 63.701 167.072 63.6605 166.782 63.3585C166.782 63.3585 136.79 30.5597 130.962 24.1848L123.266 32.1484C124.677 33.4615 127.025 35.9337 128.594 38.8461C129.771 41.0301 130.484 43.4796 130.219 45.8881C129.79 49.745 127.278 52.6016 124.085 54.082C120.87 55.5785 116.962 55.6714 113.875 54.0679C113.093 53.6752 112.05 52.8283 110.985 51.7661C109.601 50.3695 108.131 48.6442 107.14 47.4446L98.8258 55.0455L112.374 70.3968C112.673 70.7481 112.827 71.1908 112.793 71.6419C112.762 72.0937 112.541 72.5302 112.198 72.8114C112.198 72.8114 108.93 75.538 106.545 79.1058C105.541 80.6045 104.688 82.2445 104.361 83.9171C103.918 86.1985 104.636 88.1643 106.049 89.4086C107.511 90.6921 109.654 91.227 111.894 90.7072C113.31 90.3822 114.882 89.4375 116.364 88.3714C119.639 85.9936 122.474 82.8954 122.474 82.8954C122.744 82.5904 123.129 82.4151 123.528 82.4293C123.934 82.4227 124.308 82.6136 124.566 82.9284L135.333 95.9206L169.086 67.8489C169.407 67.5838 169.892 67.6259 170.169 67.9468C170.445 68.2677 170.402 68.7619 170.081 69.027L135.968 98.5757C135.717 98.7944 135.395 98.8976 135.065 98.8828C134.744 98.8478 134.445 98.6813 134.229 98.4495L123.465 85.8972C122.293 87.1102 120.292 89.0702 118.097 90.713C116.279 92.086 114.327 93.2073 112.584 93.6342C109.311 94.442 106.182 93.6098 104.014 91.7503C101.798 89.8523 100.555 86.8845 101.196 83.3275C101.574 81.2558 102.577 79.1792 103.806 77.2918C105.437 74.7955 107.457 72.6569 108.739 71.4103L95.0584 56.0622C94.4186 55.3461 94.475 54.2556 95.1861 53.6089L106.169 43.6409C106.526 43.3179 107.005 43.1503 107.488 43.1916C107.971 43.233 108.409 43.4909 108.707 43.865C108.707 43.865 110.68 46.4464 112.698 48.6266C113.706 49.6934 114.688 50.7055 115.422 51.0826C117.619 52.2353 120.404 52.1468 122.712 51.0951C124.934 50.0843 126.738 48.1757 127.063 45.5326C127.29 43.7351 126.713 41.9306 125.862 40.2915C123.834 36.3753 120.22 33.3532 120.22 33.3532C119.902 33.0882 119.709 32.7022 119.685 32.3015C119.667 31.88 119.815 31.489 120.106 31.1908L130.034 21.273C130.292 21.0105 130.649 20.8721 131.021 20.8775C131.393 20.8829 131.745 21.0436 131.991 21.3314L167.931 62.3226Z" fill="black"/>
<path fill-rule="evenodd" clip-rule="evenodd" d="M131.983 102.94C131.779 102.574 131.916 102.11 132.291 101.908C132.663 101.706 133.134 101.836 133.338 102.202C133.338 102.202 135.418 105.234 136.14 111.059C136.279 112.19 136.339 113.434 136.314 114.766C136.303 115.547 136.256 116.387 136.149 117.23C135.904 119.091 135.453 121.069 134.744 123.195C133.885 125.78 132.636 128.493 130.992 131.424C130.81 131.827 130.359 131.98 129.971 131.808C129.584 131.636 129.411 131.187 129.593 130.784C130.209 129.044 130.683 127.373 131.089 125.796C131.553 124.006 131.877 122.333 132.145 120.734C132.334 119.571 132.471 118.437 132.596 117.392C132.744 116.193 132.866 115.077 132.938 114.038C133.065 112.347 133.106 110.859 133.052 109.547C132.888 105.313 131.983 102.94 131.983 102.94Z" fill="black"/>
<path fill-rule="evenodd" clip-rule="evenodd" d="M142.666 99.4813C142.278 99.3093 142.097 98.8577 142.273 98.4527C142.439 98.0679 142.891 97.8915 143.281 98.0642C143.281 98.0642 144.359 98.2989 145.939 98.9278C146.468 99.1459 147.021 99.418 147.622 99.7287C148.15 100.016 148.674 100.371 149.197 100.772C149.53 101.018 149.86 101.288 150.162 101.594C150.713 102.165 151.218 102.791 151.641 103.506C152.041 104.144 152.387 104.811 152.635 105.562C153.006 106.63 153.251 107.702 153.268 108.886C153.347 109.304 153.075 109.701 152.654 109.795C152.238 109.868 151.834 109.598 151.755 109.18C151.276 107.869 150.443 106.882 149.569 105.905C149.073 105.351 148.526 104.874 148.007 104.382C147.647 104.034 147.3 103.69 146.962 103.349C146.38 102.79 145.85 102.248 145.337 101.758C143.809 100.361 142.666 99.4813 142.666 99.4813Z" fill="black"/>
<path fill-rule="evenodd" clip-rule="evenodd" d="M89.3623 11.7076C89.045 11.4197 89.0184 10.9259 89.2946 10.6229C89.5775 10.299 90.0641 10.2725 90.3861 10.5388C90.3861 10.5388 93.7448 12.9468 97.1628 17.0834C97.9388 18.0054 98.6935 19.0359 99.4105 20.1467C99.8656 20.849 100.303 21.5919 100.689 22.3641C101.633 24.2415 102.381 26.2862 102.833 28.4196C103.492 31.5211 103.524 34.7888 102.65 38.0392C102.573 38.4531 102.176 38.7168 101.755 38.6493C101.342 38.5615 101.061 38.1698 101.138 37.7558C101.335 35.764 101.131 33.8495 100.732 31.9874C100.329 30.078 99.6428 28.284 98.8621 26.552C98.3752 25.4929 97.8393 24.4642 97.3028 23.4583C96.7381 22.3971 96.1772 21.36 95.5979 20.3864C94.8135 19.0921 94.0484 17.8733 93.3053 16.8002C91.1493 13.6743 89.3623 11.7076 89.3623 11.7076Z" fill="black"/>
<path fill-rule="evenodd" clip-rule="evenodd" d="M107.262 20.4342C106.943 20.1456 106.899 19.6695 107.174 19.3429C107.449 19.0163 107.938 18.9673 108.257 19.2558C108.257 19.2558 109.058 19.6546 110.209 20.5369C110.59 20.8222 110.978 21.1332 111.383 21.542C111.741 21.8893 112.079 22.2765 112.414 22.7088C112.62 22.9837 112.818 23.2787 112.978 23.6081C113.283 24.1691 113.521 24.8008 113.695 25.4581C113.85 26.0626 113.971 26.6563 114.004 27.3139C114.061 28.2332 114.036 29.1261 113.848 30.0814C113.858 30.5003 113.517 30.8517 113.088 30.8738C112.665 30.875 112.317 30.531 112.308 30.1122C112.129 29.3612 111.822 28.7301 111.518 28.0538C111.274 27.5124 110.962 27.0647 110.687 26.5597C110.403 26.0513 110.076 25.5989 109.812 25.1202C109.45 24.4714 109.164 23.847 108.866 23.2651C107.948 21.5577 107.262 20.4342 107.262 20.4342Z" fill="black"/>
</g>
<defs>
<clipPath id="clip0_16_915">
<rect width="145.419" height="137" fill="white" transform="translate(42.3354 -8) rotate(18)"/>
</clipPath>
</defs>
</svg>
