<svg width="211" height="249" viewBox="0 0 211 249" fill="none" xmlns="http://www.w3.org/2000/svg">
<g clip-path="url(#clip0_16_924)">
<path fill-rule="evenodd" clip-rule="evenodd" d="M-2.04396 173.264C-2.54016 173.518 -3.14837 173.334 -3.41262 172.841C-3.65795 172.369 -3.482 171.749 -2.9858 171.495C1.68111 168.678 6.36762 166.768 11.1387 165.897C14.5615 165.24 18.0344 165.154 21.4971 165.615C24.8301 166.078 28.171 167.034 31.4693 168.606C35.1408 170.342 38.7488 172.867 42.3438 176.057C44.233 173.779 46.5186 172.375 49.3538 172.17C51.9071 171.988 54.9455 172.755 58.5753 174.952C59.0593 175.209 59.2399 175.816 58.9855 176.314C58.712 176.792 58.1116 176.986 57.6276 176.729C54.4043 175.205 51.818 174.724 49.6827 175.069C47.203 175.492 45.5384 177.261 44.2712 179.787C43.9851 180.276 43.506 180.63 42.9385 180.718C42.3901 180.827 41.8106 180.656 41.3813 180.273C37.403 176.927 33.4111 174.517 29.5223 172.745C26.5824 171.39 23.7178 170.428 20.7953 169.865C17.7487 169.298 14.6933 169.124 11.619 169.429C7.10591 169.836 2.57133 171.109 -2.04396 173.264Z" fill="black"/>
<path fill-rule="evenodd" clip-rule="evenodd" d="M74.5043 105.225C74.356 104.705 74.6698 104.152 75.1961 103.986C75.7203 103.822 76.28 104.127 76.4454 104.67C76.4454 104.67 78.8963 111.085 81.834 119.64C82.4873 121.553 83.1617 123.602 83.8062 125.677C84.2346 127.024 84.6565 128.376 85.0252 129.737C85.983 133.186 86.83 136.695 87.6048 140.039C89.0506 146.281 90.1523 151.947 90.869 155.651C91.0025 156.185 90.6651 156.72 90.1282 156.857C89.5912 156.994 89.0487 156.674 88.9132 156.142C87.7809 152.581 85.8397 147.17 83.825 141.094C82.7625 137.856 81.6236 134.417 80.6188 131.011C80.214 129.643 79.8559 128.272 79.5107 126.928C78.9578 124.808 78.4368 122.737 77.9775 120.765C75.9027 111.972 74.5043 105.225 74.5043 105.225Z" fill="black"/>
<path fill-rule="evenodd" clip-rule="evenodd" d="M72.0056 132.608C72.2569 132.651 72.7062 132.708 73.081 132.717C75.4813 132.788 79.2881 132.247 82.7463 131.25C85.4246 130.494 87.9306 129.546 89.1869 128.261C89.204 128.245 89.1999 128.211 89.2148 128.197C89.5227 127.343 90.0279 125.541 90.5534 122.951C92.5653 113.018 94.61 91.9329 86.0594 67.3403C80.3109 50.8089 69.8553 32.7039 51.3416 15.3116C50.9375 14.9442 50.9128 14.3122 51.2862 13.899C51.6573 13.4879 52.2922 13.4553 52.6942 13.8246C72.0622 31.102 83.2734 49.3345 89.4902 66.0986C98.8938 91.4627 96.9755 113.473 94.9886 123.807C94.4328 126.732 93.8486 128.759 93.5065 129.721C93.2328 130.468 92.9446 130.881 92.8337 131.02C91.9504 132.046 90.5754 133.015 88.881 133.848C86.2275 135.121 82.7373 136.108 79.4884 136.685C76.4611 137.217 73.6303 137.38 71.8734 137.191C70.2124 136.994 69.1761 136.349 68.719 135.76C59.0331 123.197 48.8109 101.341 44.1656 77.3501C40.1123 56.4442 40.2761 33.9349 48.3736 14.5971C48.5916 14.0929 49.1735 13.8386 49.6802 14.0367C50.2059 14.2561 50.452 14.8425 50.2362 15.3447C42.7972 34.3975 43.2668 56.3367 47.6149 76.6307C52.5471 99.5934 62.4746 120.483 72.0056 132.608Z" fill="black"/>
<path fill-rule="evenodd" clip-rule="evenodd" d="M43.21 43.4936C42.652 43.4571 42.2183 42.9625 42.2638 42.4212C42.2922 41.8567 42.7849 41.4518 43.3408 41.4901C43.3408 41.4901 45.3859 41.1497 48.6138 40.3216C49.6684 40.0648 50.8105 39.7291 52.0633 39.3708C52.792 39.1765 53.5463 38.9592 54.3495 38.7748C55.4361 38.4892 56.5909 38.2578 57.7905 37.9475C59.7997 37.447 61.8557 36.9043 63.9549 35.9763C64.4367 35.6965 65.05 35.8373 65.3369 36.3103C65.6259 36.7813 65.4844 37.409 65.0005 37.6907C63.0771 39.2686 61.1817 40.5902 59.1995 41.6052C57.7224 42.3579 56.2585 42.9449 54.8479 43.3683C54.2257 43.5436 53.5994 43.6457 53.0114 43.7518C52.0272 43.9067 51.0791 43.9903 50.2143 44.0377C45.9225 44.1687 43.21 43.4936 43.21 43.4936Z" fill="black"/>
<path fill-rule="evenodd" clip-rule="evenodd" d="M54.1019 105.352C53.5354 105.362 53.0738 104.93 53.0511 104.373C53.0285 103.817 53.4615 103.35 54.0259 103.342C54.0259 103.342 57.5837 102.756 62.8013 101.637C64.559 101.248 66.502 100.807 68.5665 100.333C69.8108 100.06 71.0998 99.7844 72.4186 99.5207C74.2977 99.1373 76.232 98.781 78.1751 98.34C81.6265 97.5801 85.0676 96.7143 88.2855 95.4334C88.7779 95.1825 89.3952 95.3964 89.6309 95.8769C89.8858 96.3787 89.6847 96.9831 89.1902 97.2359C86.095 99.1377 82.7531 100.8 79.2753 102.084C76.9333 102.961 74.5787 103.695 72.2543 104.21C71.2827 104.431 70.3261 104.599 69.3718 104.727C67.8677 104.965 66.4064 105.126 65.0389 105.241C58.6167 105.713 54.1019 105.352 54.1019 105.352Z" fill="black"/>
<path fill-rule="evenodd" clip-rule="evenodd" d="M67.6642 63.9279C67.1555 63.6931 66.9476 63.1106 67.172 62.6007C67.3985 62.0889 67.9909 61.8633 68.4996 62.0981C73.6958 64.0779 76.0449 68.6982 76.1962 73.1421C76.2876 76.2928 75.1502 79.3569 73.1834 81.5127C71.7137 83.0669 69.7549 84.0993 67.4138 84.3984C64.6424 84.6999 62.2278 84.1412 60.2935 82.9578C57.178 81.0674 55.2129 77.6411 54.8772 74.0175C54.3821 68.6901 57.1208 62.8756 64.015 61.479C64.5541 61.3401 65.1011 61.6559 65.2366 62.1882C65.3913 62.7417 65.0562 63.2744 64.5171 63.4133C59.5032 65.0798 57.8525 69.5294 58.6264 73.4896C59.0683 75.8245 60.4412 77.9368 62.5417 79.0861C63.7633 79.7566 65.2389 80.0831 66.9516 79.8881C68.9135 79.7381 70.408 78.5846 71.3282 76.9863C72.0114 75.8323 72.4479 74.4771 72.5606 73.067C72.8338 69.665 71.4418 65.9533 67.6642 63.9279Z" fill="black"/>
<path fill-rule="evenodd" clip-rule="evenodd" d="M109.476 134.124C108.184 124.858 106.999 115.033 106.874 114.106C106.571 111.723 105.069 109.304 103.208 107.053C99.889 103.037 95.4233 99.5909 93.5768 98.0205C93.1449 97.6781 93.0734 97.0497 93.4233 96.6192C93.7541 96.1674 94.3889 96.0961 94.8208 96.4385C96.8697 97.9422 101.726 101.152 105.449 105.074C107.914 107.665 109.829 110.598 110.4 113.51C110.597 114.526 112.677 125.778 114.264 135.625C115.518 143.464 116.439 150.409 116.439 150.409C116.608 151.527 115.897 152.59 114.806 152.88C113.698 153.146 112.573 152.543 112.206 151.488C112.206 151.488 110.125 145.241 107.166 137.975C105.386 133.612 103.32 128.891 101.13 124.936C99.5469 122.089 97.9445 119.644 96.3642 118.065C95.4518 117.155 94.6134 116.524 93.7596 116.33C93.2039 116.215 92.8469 115.69 92.9648 115.16C93.0657 114.608 93.5921 114.249 94.1457 114.366C96.9672 114.789 100.374 118.457 103.581 123.46C105.666 126.701 107.686 130.463 109.476 134.124Z" fill="black"/>
<path fill-rule="evenodd" clip-rule="evenodd" d="M54.0014 105.982C54.2513 105.487 54.8586 105.287 55.3545 105.533C55.8526 105.778 56.0456 106.374 55.7978 106.866C54.7658 109.181 52.9269 115.686 51.8792 121.594C51.1792 125.573 50.7226 129.217 51.4104 130.831C51.9835 132.2 53.9265 136.301 56.207 141.253C57.74 144.568 59.4344 148.238 61.0013 151.754C61.5384 152.964 62.0607 154.148 62.5532 155.283C62.4683 150.548 62.5336 145.101 63.011 140.399C63.5318 135.081 64.6433 130.693 66.4199 129.016C66.8123 128.624 67.4364 128.601 67.8426 129.005C68.2318 129.386 68.2438 130.03 67.8513 130.421C66.4072 131.991 65.9416 135.913 65.7731 140.568C65.3741 151.588 67.2678 166.51 67.2678 166.51C67.3855 167.559 66.7154 168.508 65.7204 168.789C64.7062 169.047 63.6653 168.56 63.2321 167.603C63.2321 167.603 61.4654 163.921 59.185 158.893C57.9684 156.216 56.6075 153.17 55.2807 150.092C51.8798 142.224 48.6494 134.24 47.9068 132.214C47.5822 131.314 47.4244 129.993 47.531 128.396C47.6575 126.319 48.1596 123.712 48.828 120.955C50.3339 114.903 52.7564 108.296 54.0014 105.982Z" fill="black"/>
<path fill-rule="evenodd" clip-rule="evenodd" d="M70.6598 135.359C70.3751 134.884 70.5379 134.276 71.0005 133.975C71.4801 133.697 72.0911 133.839 72.3779 134.312C73.1922 135.35 74.2544 137.28 76.5769 138.075C77.2624 138.305 78.076 138.342 79.0665 138.297C79.878 138.259 80.7814 138.1 81.8233 137.816C83.4296 137.524 84.7378 137.155 85.8161 136.761C87.1863 136.259 88.1815 135.824 88.7619 135.071C89.7136 133.868 89.8436 132.327 89.5717 130.339C89.4383 129.805 89.7755 129.27 90.3124 129.133C90.8515 128.994 91.3942 129.314 91.5276 129.848C92.5653 132.57 92.6705 134.861 91.6688 136.88C90.8785 138.476 89.2918 139.905 86.5639 141.091C85.526 141.564 84.2518 141.903 82.8093 142.278C81.6887 142.479 80.6705 142.587 79.776 142.584C77.7782 142.536 76.2198 142.092 75.0323 141.39C73.7171 140.612 72.7624 139.624 72.1143 138.553C71.411 137.377 71.0207 136.189 70.6598 135.359Z" fill="black"/>
<path fill-rule="evenodd" clip-rule="evenodd" d="M90.5735 141.522C90.293 141.043 90.4579 140.433 90.9205 140.132C91.4001 139.854 92.0261 140.022 92.3066 140.5C92.3066 140.5 95.8968 145.504 100.288 152.096C101.28 153.589 102.298 155.174 103.331 156.823C103.975 157.86 104.657 158.939 105.265 160.008C106.867 162.8 108.351 165.619 109.732 168.264C113.371 175.264 116.019 180.847 116.019 180.847C116.299 181.325 116.134 181.936 115.655 182.214C115.192 182.515 114.568 182.345 114.286 181.868C114.286 181.868 110.708 176.853 106.341 170.24C104.719 167.774 102.964 165.082 101.311 162.337C100.665 161.264 100.072 160.181 99.477 159.1C98.5401 157.403 97.6501 155.742 96.8239 154.138C93.1918 147.093 90.5735 141.522 90.5735 141.522Z" fill="black"/>
<path fill-rule="evenodd" clip-rule="evenodd" d="M89.955 163.517C89.8513 162.995 90.1929 162.456 90.7234 162.325C91.2752 162.213 91.8029 162.546 91.9257 163.09C91.9257 163.09 93.9441 169.586 96.2559 177.973C96.7814 179.886 97.294 181.888 97.815 183.959C98.1411 185.282 98.4629 186.609 98.7528 187.964C99.4891 191.419 100.096 194.876 100.658 198.104C102.134 206.666 103.07 213.405 103.07 213.405C103.193 213.949 102.851 214.487 102.3 214.599C101.769 214.73 101.239 214.399 101.117 213.856C101.117 213.856 99.111 207.348 96.8396 198.963C95.9815 195.81 95.0683 192.398 94.2893 188.981C93.9633 187.62 93.7053 186.274 93.4431 184.932C93.0286 182.842 92.6504 180.796 92.3337 178.849C90.8805 170.266 89.955 163.517 89.955 163.517Z" fill="black"/>
<path fill-rule="evenodd" clip-rule="evenodd" d="M76.356 145.048C76.3248 144.499 76.7386 144.01 77.2903 143.975C77.8419 143.941 78.3164 144.36 78.3475 144.91C78.3475 144.91 79.4176 153.414 80.499 164.295C80.7574 166.795 80.9816 169.403 81.1887 172.064C81.3311 173.784 81.4628 175.512 81.5477 177.245C81.7842 181.689 81.8993 186.127 81.9914 190.239C82.233 201.183 82.1983 209.759 82.1983 209.759C82.2286 210.309 81.7962 210.775 81.2436 210.811C80.6913 210.846 80.2167 210.427 80.1866 209.877C80.1866 209.877 79.1461 201.384 78.0849 190.485C77.6796 186.385 77.279 181.974 76.985 177.543C76.866 175.802 76.7919 174.06 76.7283 172.347C76.6213 169.672 76.5399 167.051 76.4945 164.552C76.2927 153.611 76.356 145.048 76.356 145.048Z" fill="black"/>
<path fill-rule="evenodd" clip-rule="evenodd" d="M121.787 139.974C121.816 140.525 121.385 140.99 120.833 141.025C120.282 141.06 119.81 140.639 119.781 140.088C119.218 134.012 120.02 128.672 122.87 124.528C125.215 121.069 128.991 118.439 134.642 116.892C133.196 111.766 132.842 106.504 133.545 101.483C134.389 95.4508 136.693 89.7584 140.069 85.1021C146.949 75.5586 158.279 70.1681 171.338 74.3441C171.864 74.4864 172.178 75.05 172.02 75.5775C171.88 76.1262 171.322 76.4367 170.779 76.2712C158.935 73.311 149.226 78.6661 143.465 87.4327C140.66 91.69 138.836 96.7578 138.077 102.099C137.371 107.199 137.561 112.531 139.158 117.714C139.342 118.279 139.267 118.885 138.964 119.389C138.659 119.895 138.147 120.24 137.582 120.364C131.732 121.205 127.838 123.287 125.391 126.376C122.645 129.888 121.686 134.561 121.787 139.974Z" fill="black"/>
</g>
<defs>
<clipPath id="clip0_16_924">
<rect width="196" height="185" fill="white" transform="translate(-59 111.15) rotate(-42)"/>
</clipPath>
</defs>
</svg>
