<svg width="209" height="199" viewBox="0 0 209 199" fill="none" xmlns="http://www.w3.org/2000/svg">
<g clip-path="url(#clip0_16_939)">
<path fill-rule="evenodd" clip-rule="evenodd" d="M18.7072 100.567C18.2523 101.07 17.4597 101.083 16.9744 100.633C16.4865 100.185 16.4633 99.4124 16.9157 98.9117C24.003 91.1296 30.0642 82.7304 34.7739 73.4938C39.3247 64.5404 42.6349 54.8362 44.3971 44.1913C44.5399 43.3624 45.2283 42.7425 46.0702 42.6848C56.8784 41.7311 67.5742 39.5712 78.1117 35.3126C87.5237 31.4604 96.7995 25.9104 105.858 17.9406C106.326 17.5195 106.958 17.3234 107.585 17.3662C108.212 17.409 108.783 17.6882 109.19 18.1617C109.19 18.1617 132.116 44.4909 148.675 63.8998C157.191 73.8809 164.049 82.087 165.391 84.0065C172.477 94.2016 174.567 106.935 173.991 119.64C172.764 146.051 160.024 172.044 160.024 172.044C159.711 172.699 159.124 173.181 158.432 173.384C158.432 173.384 129.944 181.338 103.08 176.718C90.6955 174.609 78.654 169.809 69.8322 160.477L21.8539 107.912C21.405 107.429 21.4362 106.654 21.9376 106.203C22.4184 105.723 23.2031 105.764 23.652 106.247L72.5323 157.906C80.901 166.479 92.2167 170.671 103.826 172.498C126.64 176.049 150.575 170.28 155.954 168.845C158.19 163.889 167.553 141.779 168.471 119.428C168.959 107.969 167.238 96.3976 160.825 87.1846C159.534 85.312 152.821 77.2559 144.542 67.3875C130.688 50.8667 112.417 29.3107 107.094 23.038C98.0837 30.4036 88.9259 35.6145 79.6365 39.2162C69.1281 43.3085 58.4636 45.3465 47.7154 46.1996C45.6664 56.6357 42.1679 66.1359 37.478 74.8878C32.4752 84.2482 26.108 92.736 18.7072 100.567Z" fill="black"/>
<path fill-rule="evenodd" clip-rule="evenodd" d="M59.2106 100.237C58.7092 100.688 57.9504 100.671 57.4861 100.155C57.0423 99.6676 57.0762 98.8901 57.5802 98.4362L97.3437 61.0923C97.7906 60.6899 98.379 60.4866 98.972 60.513C99.565 60.5394 100.131 60.8235 100.521 61.2665C100.521 61.2665 110.422 72.2417 118.947 81.9347C124.836 88.6319 130.049 94.7242 131.1 96.2054C134.347 100.846 135.772 107.454 136.058 114.293C136.598 127.348 133.146 141.054 133.146 141.054C132.913 142.012 132.167 142.777 131.197 142.996C131.197 142.996 117.272 146.01 103.765 142.624C97.8703 141.161 92.042 138.471 87.4612 133.864C86.4599 132.851 83.1269 129.129 79.1106 124.574C71.0108 115.385 60.0873 102.809 60.0873 102.809C59.6462 102.319 59.6826 101.539 60.1866 101.085C60.6881 100.634 61.4674 100.679 61.9086 101.169C61.9086 101.169 73.2946 113.329 81.6985 122.197C85.8063 126.53 89.2124 130.093 90.2269 131.047C94.3801 134.965 99.6039 137.125 104.826 138.259C114.66 140.424 124.641 139.001 128.45 138.279C129.22 134.458 130.958 124.302 130.505 114.578C130.232 108.847 129.286 103.256 126.593 99.3769C125.98 98.4816 123.814 95.8561 120.949 92.4127C113.864 83.8969 102.544 70.5568 98.5879 65.9015L59.2106 100.237Z" fill="black"/>
<path fill-rule="evenodd" clip-rule="evenodd" d="M27.2358 87.9385C26.7973 87.4462 26.8363 86.664 27.3377 86.2125C27.8417 85.7587 28.6185 85.8064 29.0571 86.2986C29.0571 86.2986 36.8306 94.0072 46.4993 104.071C48.7133 106.374 50.9941 108.802 53.3006 111.301C54.8073 112.933 56.314 114.564 57.7559 116.207C61.5065 120.488 65.1327 124.834 68.4749 128.875C77.3746 139.632 84.1219 148.217 84.1219 148.217C84.5604 148.709 84.5189 149.494 84.0174 149.945C83.516 150.397 82.7366 150.352 82.3006 149.857C82.3006 149.857 74.5429 142.135 64.9028 132.045C61.2826 128.254 57.3888 124.149 53.5785 119.922C52.1132 118.3 50.6689 116.612 49.2245 114.925C47.0115 112.342 44.8656 109.791 42.8361 107.323C33.9675 96.5382 27.2358 87.9385 27.2358 87.9385Z" fill="black"/>
<path fill-rule="evenodd" clip-rule="evenodd" d="M38.2378 68.7878C37.7811 68.3119 37.8043 67.5436 38.2825 67.0663C38.7607 66.5891 39.5532 66.6228 40.0125 67.0963C40.0125 67.0963 42.924 69.1438 46.4851 72.0539C47.2986 72.7222 48.1118 73.4373 48.9327 74.1923C49.4671 74.6917 49.9808 75.163 50.4736 75.6998C51.7429 77.0783 52.8647 78.4965 53.9269 79.8747C56.7318 83.5123 58.6741 86.4793 58.6741 86.4793C59.1566 86.9786 59.1332 87.7468 58.655 88.2241C58.151 88.6779 57.3818 88.67 56.925 88.1941C56.925 88.1941 54.0264 86.1348 50.4732 83.1708C49.1537 82.071 47.7698 80.8894 46.4613 79.5929C45.9452 79.0771 45.4704 78.5237 44.9958 77.9705C44.2736 77.1267 43.5929 76.2923 42.9639 75.4579C40.1669 71.7663 38.2378 68.7878 38.2378 68.7878Z" fill="black"/>
<path fill-rule="evenodd" clip-rule="evenodd" d="M40.9971 61.7738C40.5302 61.2604 40.5898 60.5063 41.0913 60.0548C41.5953 59.601 42.3514 59.6206 42.8184 60.1339C42.8184 60.1339 46.7741 63.4823 51.6735 68.0824C52.7912 69.1304 53.9294 70.2534 55.0752 71.4163C55.8055 72.1594 56.5564 72.9306 57.2451 73.7112C59.0327 75.7436 60.7166 77.8697 62.2558 79.8456C66.3835 85.1405 69.3621 89.4152 69.3621 89.4152C69.8032 89.9051 69.7694 90.6826 69.2654 91.1364C68.764 91.5879 68.0052 91.5708 67.5409 91.055C67.5409 91.055 63.5749 87.6692 58.73 83.0668C56.9128 81.3412 54.9616 79.4562 53.1142 77.4777C52.3789 76.6923 51.7107 75.8929 51.0428 75.0936C49.9957 73.8419 48.9902 72.5998 48.057 71.3857C43.963 66.0604 40.9971 61.7738 40.9971 61.7738Z" fill="black"/>
<path fill-rule="evenodd" clip-rule="evenodd" d="M43.0295 55.3685C42.5625 54.8552 42.5962 54.0775 43.0976 53.626C43.6016 53.1722 44.3836 53.2152 44.8274 53.7028C44.8274 53.7028 47.4598 55.5815 50.7005 58.3133C51.4467 58.9487 52.1696 59.6052 52.8948 60.3062C53.3724 60.7634 53.8473 61.223 54.2807 61.7199C55.3976 63.0022 56.3873 64.3522 57.3022 65.6296C59.7583 69.0678 61.3981 71.8399 61.3981 71.8399C61.8676 72.3509 61.8107 73.1028 61.3299 73.5825C60.8285 74.0339 60.0465 73.991 59.6002 73.5057C59.6002 73.5057 56.9807 71.6153 53.7738 68.8531C52.5835 67.8237 51.3261 66.7146 50.1495 65.4862C49.6928 65.0103 49.2775 64.4969 48.865 63.9812C48.2332 63.196 47.6455 62.4178 47.0837 61.6163C44.6563 58.1523 43.0295 55.3685 43.0295 55.3685Z" fill="black"/>
</g>
<defs>
<clipPath id="clip0_16_939">
<rect width="125" height="173" fill="white" transform="translate(0 83.6414) rotate(-42)"/>
</clipPath>
</defs>
</svg>
