<svg width="194" height="188" viewBox="0 0 194 188" fill="none" xmlns="http://www.w3.org/2000/svg">
<g clip-path="url(#clip0_16_961)">
<path fill-rule="evenodd" clip-rule="evenodd" d="M103.854 71.4634C106.784 70.452 109.849 70.7705 112.442 72.056C115.099 73.3514 117.22 75.7186 118.256 78.7498C119.281 81.8416 118.934 85.0546 117.561 87.7444C116.163 90.4417 113.684 92.5747 110.543 93.563C107.374 94.4454 104.127 94.0103 101.459 92.4898C98.8272 90.9875 96.7557 88.4913 95.9042 85.3767C95.0813 82.2823 95.5424 79.178 97.025 76.6269C98.4788 74.1701 100.848 72.212 103.854 71.4634ZM104.266 72.825C101.794 73.6722 99.9175 75.4555 98.8495 77.6269C97.8158 79.731 97.5931 82.2225 98.4134 84.6329C99.1902 86.9707 100.864 88.7571 102.904 89.8075C104.904 90.8407 107.278 91.1072 109.584 90.3947C111.903 89.7359 113.72 88.1982 114.812 86.2481C115.923 84.2637 116.334 81.8877 115.682 79.5129C115.031 77.0523 113.467 75.0907 111.443 73.8931C109.35 72.659 106.799 72.1883 104.266 72.825Z" fill="black"/>
<path fill-rule="evenodd" clip-rule="evenodd" d="M98.335 67.6732C97.9948 67.8787 97.5498 67.7672 97.3322 67.4098C97.1145 67.0524 97.2207 66.608 97.5609 66.4026C101.861 63.6969 106.852 62.9645 111.488 64.0215C116.173 65.0486 120.464 67.9433 123.267 72.334C126.068 76.7808 126.795 81.9369 125.698 86.6732C124.604 91.4618 121.617 95.7645 117.125 98.5314C112.592 101.215 107.371 101.815 102.616 100.558C97.9135 99.3242 93.6683 96.2932 91.0369 91.7986C88.7255 87.8169 88.0123 83.3588 88.7477 79.1667C89.4811 74.9758 91.6391 71.0652 95.0454 68.2476C95.3563 68.0056 95.796 68.0116 96.071 68.3344C96.3223 68.6172 96.2905 69.071 96.0043 69.3524C93.0241 72.0213 91.2329 75.656 90.7393 79.4848C90.2596 83.1966 91.0235 87.0809 93.2003 90.492C95.588 94.2647 99.289 96.7011 103.323 97.6328C107.326 98.5829 111.665 98.0267 115.408 95.7117C119.168 93.4413 121.652 89.877 122.644 85.9103C123.658 81.9297 123.188 77.5423 120.948 73.7348C118.661 69.7928 115.019 67.1575 110.978 66.067C106.865 64.9664 102.312 65.38 98.335 67.6732Z" fill="black"/>
<path fill-rule="evenodd" clip-rule="evenodd" d="M99.8637 58.2426C106.445 56.1582 113.257 56.9371 118.965 59.909C124.747 62.926 129.361 68.1546 131.499 74.8502C133.611 81.5539 132.796 88.5255 129.763 94.3557C126.685 100.133 121.365 104.775 114.559 106.793C107.738 108.748 100.742 107.824 94.9502 104.61C89.2046 101.45 84.6543 96.0687 82.6961 89.3195C80.7591 82.564 81.7042 75.6873 84.848 70.0243C87.9777 64.4987 93.2112 60.0816 99.8637 58.2426ZM100.271 59.588C94.1551 61.5345 89.4036 65.7418 86.6708 71.0164C83.9885 76.2761 83.2652 82.4876 85.2058 88.5756C87.0886 94.5475 91.2305 99.1831 96.3911 101.918C101.522 104.661 107.651 105.442 113.597 103.613C119.575 101.907 124.252 97.922 127.008 92.8403C129.79 87.7509 130.672 81.6258 128.925 75.6134C127.167 69.4713 123.118 64.6749 117.982 61.7998C112.756 58.818 106.457 57.887 100.271 59.588Z" fill="black"/>
<path fill-rule="evenodd" clip-rule="evenodd" d="M96.2889 51.9823C104.588 48.9648 113.344 49.5456 120.826 53.024C128.363 56.4832 134.57 62.86 137.707 71.2822C140.818 79.7136 140.227 88.6649 136.71 96.2017C133.166 103.748 126.703 109.963 118.191 112.969C109.681 115.973 100.719 115.203 93.141 111.496C85.6193 107.857 79.4871 101.366 76.525 92.8822C73.5838 84.3908 74.3252 75.5611 77.9515 68.1607C81.5281 60.778 87.9357 54.844 96.2889 51.9823ZM96.7903 53.379C88.948 56.2352 83.032 61.9958 79.8267 69.0726C76.6431 76.0543 76.0895 84.2056 78.993 92.0108C81.8206 99.6679 87.5371 105.518 94.4523 108.76C101.339 112.011 109.419 112.656 117.076 109.865C124.784 107.231 130.627 101.671 133.885 94.8381C137.169 87.9959 137.867 79.8809 135.175 72.1759C132.454 64.3063 126.833 58.3347 119.925 54.9161C112.963 51.5162 104.685 50.6793 96.7903 53.379Z" fill="black"/>
<path fill-rule="evenodd" clip-rule="evenodd" d="M81.7903 49.9133C81.4777 50.1581 81.0194 50.0978 80.7473 49.752C80.4751 49.4062 80.5253 48.9476 80.838 48.7028C89.9606 41.4193 101.247 38.5895 112.028 39.7883C122.923 41.0379 133.335 46.4385 140.765 55.7113C148.173 65.0017 151.113 76.393 149.861 87.2943C148.656 98.2982 143.178 108.736 133.833 116.054C124.493 123.368 113.039 126.189 102.048 124.736C91.1492 123.349 80.762 117.79 73.4802 108.401C66.6859 99.6084 63.8373 89.1235 64.5949 78.8889C65.3638 68.6453 69.8716 58.8274 77.7267 51.4186C78.0384 51.1746 78.5188 51.2176 78.7529 51.4534C79.0561 51.7749 79.0322 52.2128 78.7213 52.4563C71.2968 59.6675 67.2376 69.2738 66.6625 79.0862C66.0986 88.75 68.9644 98.6626 75.4996 106.819C82.4318 115.504 92.2134 120.559 102.438 121.775C112.569 122.924 123.203 120.326 131.792 113.46C140.511 106.772 145.555 97.0933 146.765 86.9237C147.996 76.7373 145.389 66.0632 138.642 57.3735C131.782 48.4934 122.039 43.2675 111.806 41.9191C101.459 40.5195 90.664 43.1042 81.7903 49.9133Z" fill="black"/>
<path fill-rule="evenodd" clip-rule="evenodd" d="M108.209 82.9189C107.809 82.8969 107.506 82.5524 107.538 82.145C107.556 81.7531 107.897 81.4515 108.297 81.4735C108.297 81.4735 115.446 81.5177 124.548 81.7931C126.64 81.8449 128.829 81.9264 131.05 82.0359C132.49 82.0922 133.927 82.1728 135.38 82.267C139.081 82.5212 142.763 82.8683 146.174 83.1973C155.261 84.0574 162.36 84.9011 162.36 84.9011C162.761 84.9231 163.063 85.268 163.032 85.6753C163.013 86.0672 162.673 86.3685 162.272 86.3466C162.272 86.3466 155.131 86.2816 146.018 85.9969C142.587 85.8954 138.894 85.7569 135.189 85.553C133.745 85.4664 132.299 85.3506 130.863 85.2437C128.647 85.0569 126.463 84.8709 124.385 84.668C115.313 83.7668 108.209 82.9189 108.209 82.9189Z" fill="black"/>
<path fill-rule="evenodd" clip-rule="evenodd" d="M157.008 85.1948C157.128 85.2718 157.236 85.3656 157.359 85.4453C159.183 86.8136 161.186 88.4459 161.186 88.4459C161.535 88.641 161.648 89.0921 161.451 89.4373C161.254 89.7825 160.82 89.8943 160.47 89.6993C160.47 89.6993 158.043 88.8118 155.949 87.916C155.289 87.6414 154.684 87.3598 154.188 87.1193C153.506 86.7707 153.055 86.515 153.055 86.515C152.535 86.1983 152.203 85.6384 152.222 85.0297C152.255 84.4056 152.604 83.8673 153.151 83.6086C153.151 83.6086 154.432 83.0366 155.935 82.5224C157.949 81.8272 160.268 81.2336 160.268 81.2336C160.629 81.0587 161.059 81.2144 161.228 81.5788C161.41 81.9277 161.255 82.3636 160.894 82.5385C160.894 82.5385 158.97 83.9648 157.173 85.0933C157.118 85.1271 157.063 85.161 157.008 85.1948Z" fill="black"/>
<path fill-rule="evenodd" clip-rule="evenodd" d="M159.21 94.5299C158.827 94.4415 158.561 94.0742 158.641 93.6815C158.72 93.2888 159.095 93.0432 159.491 93.1161C159.491 93.1161 163.883 93.591 169.463 94.419C170.74 94.6046 172.077 94.8161 173.439 95.0486C174.308 95.2057 175.183 95.3687 176.071 95.5429C178.298 96.0383 180.525 96.5881 182.576 97.1205C188.047 98.5335 192.28 99.7938 192.28 99.7938C192.677 99.8667 192.929 100.25 192.85 100.643C192.77 101.035 192.396 101.281 191.999 101.208C191.999 101.208 187.615 100.713 182.027 99.8778C179.938 99.5563 177.682 99.1991 175.433 98.7657C174.551 98.5978 173.671 98.4032 172.812 98.1993C171.475 97.8799 170.151 97.5719 168.915 97.2308C163.447 95.7934 159.21 94.5299 159.21 94.5299Z" fill="black"/>
<path fill-rule="evenodd" clip-rule="evenodd" d="M106.469 84.5043C106.122 84.3114 105.975 83.8849 106.161 83.5301C106.347 83.1752 106.784 83.0384 107.131 83.2313C107.131 83.2313 113.117 85.9071 120.67 89.5103C122.398 90.3332 124.198 91.2182 126.029 92.1306C127.205 92.7185 128.393 93.3163 129.56 93.9502C132.559 95.5509 135.528 97.2081 138.26 98.7669C145.529 102.912 151.143 106.298 151.143 106.298C151.504 106.475 151.637 106.917 151.451 107.272C151.265 107.627 150.829 107.763 150.482 107.571C150.482 107.571 144.506 104.877 136.963 101.255C134.123 99.9002 131.069 98.4145 128.052 96.852C126.862 96.2519 125.706 95.6002 124.548 94.974C122.757 93.9879 121.005 93.0093 119.346 92.0559C112.085 87.8915 106.469 84.5043 106.469 84.5043Z" fill="black"/>
<path fill-rule="evenodd" clip-rule="evenodd" d="M147.841 105.574C147.855 105.64 147.868 105.707 147.882 105.773C148.293 107.326 148.601 109.089 148.601 109.089C148.752 109.464 148.583 109.889 148.223 110.038C147.85 110.203 147.429 110.027 147.279 109.652C147.279 109.652 146.193 108.219 145.323 106.865C144.686 105.848 144.225 104.904 144.225 104.904C144.016 104.423 144.045 103.878 144.309 103.428C144.574 102.979 145.042 102.679 145.556 102.636C145.556 102.636 145.93 102.582 146.482 102.573C146.88 102.565 147.36 102.574 147.887 102.598C149.56 102.72 151.415 103 151.415 103C151.81 102.963 152.169 103.249 152.214 103.641C152.258 104.032 151.958 104.397 151.563 104.434C151.563 104.434 149.811 105.058 148.182 105.49C148.064 105.523 147.945 105.556 147.841 105.574Z" fill="black"/>
<path fill-rule="evenodd" clip-rule="evenodd" d="M107.468 80.7801C107.54 81.1683 107.278 81.5385 106.885 81.6045C106.492 81.6706 106.12 81.4022 106.049 81.0139C106.049 81.0139 104.511 74.5126 102.75 66.1603C102.342 64.2564 101.942 62.2504 101.553 60.1994C101.295 58.8886 101.042 57.5544 100.819 56.2188C100.257 52.7953 99.7771 49.3611 99.3288 46.1991C98.1712 37.7457 97.4181 31.1115 97.4181 31.1115C97.3465 30.7231 97.6221 30.3375 98.0017 30.2869C98.3947 30.2209 98.7795 30.4738 98.8374 30.8775C98.8374 30.8775 100.371 37.3742 102.105 45.7313C102.754 48.877 103.456 52.26 104.068 55.6727C104.313 57.0007 104.516 58.3455 104.723 59.6668C105.035 61.7323 105.331 63.7558 105.588 65.6921C106.735 74.1358 107.468 80.7801 107.468 80.7801Z" fill="black"/>
<path fill-rule="evenodd" clip-rule="evenodd" d="M98.9448 35.238C99.115 35.0054 99.2861 34.774 99.4739 34.5296C100.689 32.9491 102.172 31.2765 102.172 31.2765C102.373 30.9346 102.812 30.826 103.162 31.0217C103.498 31.2328 103.622 31.6667 103.421 32.0085C103.421 32.0085 102.674 34.131 101.89 35.9502C101.302 37.3144 100.69 38.4674 100.69 38.4674C100.447 38.8819 100.027 39.1688 99.5495 39.2428C99.0718 39.3168 98.5746 39.1837 98.2065 38.8637C98.2065 38.8637 97.6838 38.4362 96.9999 37.7601C96.6424 37.4222 96.2622 37.0104 95.8603 36.5794C94.3062 34.848 92.6435 32.8048 92.6435 32.8048C92.342 32.5427 92.2993 32.0979 92.5685 31.7883C92.8242 31.4941 93.2841 31.459 93.5855 31.7211C93.5855 31.7211 95.8269 33.0987 97.7578 34.3967C98.1853 34.6868 98.5963 34.9622 98.9448 35.238Z" fill="black"/>
<path fill-rule="evenodd" clip-rule="evenodd" d="M70.4949 8.93025C70.3512 8.56069 70.5492 8.13467 70.9219 7.99663C71.2947 7.85859 71.7073 8.0541 71.8508 8.42351C71.8508 8.42351 73.7002 12.2059 75.8943 17.1301C76.3992 18.2485 76.8957 19.4409 77.3914 20.66C77.7185 21.4335 78.0385 22.228 78.333 23.0275C79.0744 25.0854 79.7422 27.1609 80.3556 29.0803C81.9777 34.214 83.084 38.2739 83.084 38.2739C83.2275 38.6433 83.0295 39.0694 82.6569 39.2075C82.2842 39.3456 81.8716 39.1501 81.7279 38.7805C81.7279 38.7805 79.8951 34.9856 77.7245 30.0546C76.9103 28.2054 76.0449 26.203 75.2457 24.1765C74.9445 23.3711 74.6691 22.5605 74.387 21.7716C73.9592 20.53 73.5551 19.3091 73.1966 18.1278C71.5957 12.9854 70.4949 8.93025 70.4949 8.93025Z" fill="black"/>
<path fill-rule="evenodd" clip-rule="evenodd" d="M33.4276 109.506C34.4884 108.743 36.5516 107.33 39.1916 105.548C46.781 100.431 59.1269 92.2732 65.667 87.9564C65.9994 87.7289 66.4464 87.8185 66.6706 88.1493C66.8947 88.4801 66.8135 88.9256 66.4811 89.1529C60.9317 93.0263 51.1133 99.902 43.735 105.121C39.8043 107.901 36.5596 110.218 35.0482 111.35C34.7138 111.603 34.388 111.863 34.307 111.929C34.1006 112.157 33.8438 112.287 33.5487 112.329C33.197 112.377 32.8487 112.265 32.5816 112.032C32.5816 112.032 29.0696 109.034 26.352 107.297C26.4011 107.339 26.4368 107.397 26.4854 107.44C28.7664 110.129 33.0214 114.045 37.7616 118.166C47.2201 126.388 58.5643 135.434 60.5058 137.149C64.2446 140.481 69.6408 144.981 75.1756 149.466C81.8846 154.891 88.8187 160.266 93.3423 163.383C91.0659 161.132 88.4705 158.876 88.4705 158.876C88.0403 158.529 87.9169 157.933 88.1639 157.441L105.852 123.242C106.033 122.883 106.466 122.743 106.812 122.935C107.171 123.111 107.32 123.54 107.139 123.899C107.139 123.899 90.7112 157.671 90.7111 157.671C92.2153 158.952 95.724 162.029 97.5895 164.194C98.307 165.062 98.7865 165.833 98.9527 166.358C99.1846 167.103 98.9962 167.673 98.6862 168.055C98.44 168.358 98.0778 168.586 97.5271 168.597C97.2374 168.617 96.795 168.531 96.2256 168.281C94.8431 167.704 92.1133 165.957 88.6591 163.525C79.7203 157.195 65.7869 146.143 58.3274 139.604C57.1033 138.513 52.103 134.465 46.2303 129.523C40.1908 124.436 33.2458 118.399 28.4671 113.674C25.2636 110.481 23.0199 107.824 22.4918 106.359C22.0902 105.304 22.3182 104.523 22.7818 104.029C23.1191 103.67 23.6116 103.419 24.288 103.464C24.8296 103.5 25.6483 103.803 26.5883 104.349C28.8019 105.621 31.9776 108.273 33.4276 109.506ZM97.1634 165.916C97.3803 166.051 97.5362 166.077 97.5504 165.954C97.5823 165.71 97.3798 165.778 97.1634 165.916ZM34.4082 111.799C34.408 111.799 34.408 111.799 34.4082 111.799C34.4083 111.799 34.4083 111.799 34.4082 111.799Z" fill="black"/>
<path fill-rule="evenodd" clip-rule="evenodd" d="M100.857 122.841C101.041 122.485 101.475 122.346 101.835 122.523C102.182 122.716 102.33 123.143 102.146 123.5C102.146 123.5 97.2912 133.793 93.017 142.662C89.7462 149.44 86.8146 155.372 86.8146 155.372C86.5925 155.804 86.1891 156.105 85.7085 156.204C85.2413 156.287 84.7485 156.158 84.3831 155.84C84.3831 155.84 80.6559 152.736 75.9762 148.722C71.9637 145.289 67.2911 141.145 63.4608 137.952C62.8577 137.454 62.7672 136.56 63.2543 135.951L81.3057 114.489C81.5625 114.168 82.0122 114.125 82.3268 114.371C82.6413 114.617 82.6942 115.07 82.4375 115.391L66.3293 136.613C69.3647 139.007 72.8277 141.8 75.9811 144.46C79.7564 147.606 83.1038 150.542 84.9535 152.15C86.125 149.934 88.2917 145.866 90.6711 141.465C95.3609 132.795 100.857 122.841 100.857 122.841Z" fill="black"/>
<path fill-rule="evenodd" clip-rule="evenodd" d="M77.7029 111.33C77.9552 111.033 78.4123 110.995 78.7137 111.257C79.0285 111.504 79.0606 111.967 78.8084 112.264L61.2127 134.095C60.9604 134.392 60.602 134.57 60.2178 134.589C59.8338 134.608 59.4418 134.485 59.161 134.214C59.161 134.214 52.4342 128.393 45.3276 122.623C42.0606 119.974 38.7509 117.287 35.8812 115.309C35.4546 115.02 35.2059 114.531 35.2078 114.016C35.1961 113.517 35.4548 113.036 35.8798 112.753C35.8798 112.753 43.5856 107.791 51.3354 102.868C59.0725 97.961 66.8515 93.0906 66.8515 93.0906C67.1729 92.8807 67.6213 92.9715 67.8447 93.3016C68.0683 93.6318 67.9844 94.0755 67.6497 94.301C67.6497 94.301 60.1781 99.6015 52.6614 104.863C47.428 108.522 42.1734 112.162 39.4748 114.029C41.9824 115.802 44.7436 117.903 47.4 120.076C52.8197 124.516 57.8865 129.137 60.0244 131.105L77.7029 111.33Z" fill="black"/>
<path fill-rule="evenodd" clip-rule="evenodd" d="M66.0737 88.555C66.3498 90.2898 66.7505 91.997 67.2577 93.6881L36.7531 114.028C45.9505 120.311 60.1132 133.166 60.1132 133.166L78.2494 111.805C79.4107 112.923 80.6174 113.972 81.8783 114.932L64.3566 136.855C72.7499 143.689 85.4037 154.661 85.4037 154.661L101.509 123.163C103.158 123.401 104.82 123.541 106.488 123.578L89.2401 157.969C89.2401 157.969 98.6786 165.983 97.6568 167.215C96.5305 168.573 70.6073 148.295 59.4164 138.377C55.8971 135.236 21.1978 107.763 23.7828 104.955C24.8946 103.747 33.3876 111.103 33.3876 111.103C33.7911 110.502 56.3812 95.1323 66.0737 88.555Z" fill="black"/>
</g>
<defs>
<clipPath id="clip0_16_961">
<rect width="153" height="118.521" fill="white" transform="translate(77.7568) rotate(41)"/>
</clipPath>
</defs>
</svg>
