<svg width="11" height="10" viewBox="0 0 11 10" fill="none" xmlns="http://www.w3.org/2000/svg">
<path d="M5.43409 3.45305V5.33452M5.43409 7.21597H5.43907M4.62963 1.03536L0.645599 7.68638C0.563458 7.82864 0.519995 7.98991 0.519535 8.15418C0.519075 8.31844 0.561634 8.47996 0.642978 8.62267C0.724321 8.76537 0.841614 8.8843 0.983187 8.9676C1.12476 9.0509 1.28568 9.09569 1.44993 9.09749H9.41798C9.58224 9.09569 9.74316 9.0509 9.88473 8.9676C10.0263 8.8843 10.1436 8.76537 10.2249 8.62267C10.3063 8.47996 10.3488 8.31844 10.3484 8.15418C10.3479 7.98991 10.3045 7.82864 10.2223 7.68638L6.23829 1.03536C6.15444 0.897126 6.03637 0.782833 5.89548 0.703511C5.75459 0.62419 5.59564 0.58252 5.43396 0.58252C5.27228 0.58252 5.11332 0.62419 4.97243 0.703511C4.83155 0.782833 4.71348 0.897126 4.62963 1.03536Z" stroke="#FF0000" stroke-width="0.940738" stroke-linecap="round" stroke-linejoin="round"/>
</svg>
