<svg width="11" height="12" viewBox="0 0 11 12" fill="none" xmlns="http://www.w3.org/2000/svg">
<path d="M3.5131 1.94574V0.900024H6.76643V1.94574H3.5131ZM4.59754 7.69717H5.68199V4.56002H4.59754V7.69717ZM5.13977 11.88C4.47102 11.88 3.8406 11.7559 3.24849 11.5077C2.65675 11.2592 2.13947 10.9215 1.69665 10.4945C1.25384 10.0675 0.903564 9.56865 0.645828 8.99804C0.388453 8.42708 0.259766 7.81917 0.259766 7.17431C0.259766 6.52945 0.388453 5.92154 0.645828 5.35058C0.903564 4.77997 1.25384 4.28117 1.69665 3.85417C2.13947 3.42717 2.65675 3.08958 3.24849 2.84139C3.8406 2.59286 4.47102 2.4686 5.13977 2.4686C5.70006 2.4686 6.23777 2.55574 6.75288 2.73002C7.26799 2.90431 7.75147 3.15702 8.20332 3.48817L8.96243 2.75617L9.72154 3.48817L8.96243 4.22017C9.30584 4.65588 9.56791 5.1221 9.74865 5.61881C9.92939 6.11552 10.0198 6.63402 10.0198 7.17431C10.0198 7.81917 9.89108 8.42708 9.6337 8.99804C9.37597 9.56865 9.02569 10.0675 8.58288 10.4945C8.14006 10.9215 7.62278 11.2592 7.03104 11.5077C6.43893 11.7559 5.80851 11.88 5.13977 11.88ZM5.13977 10.8343C6.18806 10.8343 7.08273 10.477 7.82377 9.76245C8.5648 9.04788 8.93532 8.18517 8.93532 7.17431C8.93532 6.16345 8.5648 5.30074 7.82377 4.58617C7.08273 3.8716 6.18806 3.51431 5.13977 3.51431C4.09147 3.51431 3.1968 3.8716 2.45577 4.58617C1.71473 5.30074 1.34421 6.16345 1.34421 7.17431C1.34421 8.18517 1.71473 9.04788 2.45577 9.76245C3.1968 10.477 4.09147 10.8343 5.13977 10.8343Z" fill="#4E4E4E"/>
</svg>
