<svg width="14" height="14" viewBox="0 0 14 14" fill="none" xmlns="http://www.w3.org/2000/svg">
<g clip-path="url(#clip0_20_1481)">
<path d="M13.8998 6.24825C13.4092 5.17531 11.4851 1.67651 7.29395 1.67651C3.10277 1.67651 1.17874 5.17531 0.688092 6.24825C0.622228 6.39204 0.588135 6.54833 0.588135 6.70648C0.588135 6.86464 0.622228 7.02093 0.688092 7.16472C1.17874 8.23654 3.10277 11.7353 7.29395 11.7353C11.4851 11.7353 13.4092 8.23654 13.8998 7.1636C13.9655 7.01998 13.9996 6.86388 13.9996 6.70593C13.9996 6.54797 13.9655 6.39187 13.8998 6.24825V6.24825ZM7.29395 10.6177C3.76945 10.6177 2.12483 7.61904 1.70571 6.71207C2.12483 5.79281 3.76945 2.79416 7.29395 2.79416C10.8101 2.79416 12.4552 5.77995 12.8822 6.70593C12.4552 7.6319 10.8101 10.6177 7.29395 10.6177Z" fill="#9CA3AF"/>
<path d="M7.29387 3.91199C6.74125 3.91199 6.20104 4.07586 5.74155 4.38288C5.28206 4.6899 4.92393 5.12628 4.71245 5.63684C4.50097 6.1474 4.44563 6.7092 4.55345 7.25121C4.66126 7.79322 4.92737 8.29108 5.31814 8.68184C5.7089 9.07261 6.20676 9.33872 6.74877 9.44654C7.29078 9.55435 7.85258 9.49901 8.36314 9.28753C8.8737 9.07605 9.31008 8.71792 9.6171 8.25843C9.92412 7.79894 10.088 7.25873 10.088 6.70611C10.0871 5.96533 9.79244 5.25515 9.26863 4.73135C8.74483 4.20754 8.03465 3.91287 7.29387 3.91199V3.91199ZM7.29387 8.38258C6.9623 8.38258 6.63817 8.28425 6.36248 8.10004C6.08678 7.91583 5.87191 7.654 5.74502 7.34766C5.61813 7.04133 5.58493 6.70425 5.64962 6.37904C5.7143 6.05384 5.87397 5.75512 6.10843 5.52066C6.34289 5.2862 6.64161 5.12653 6.96681 5.06185C7.29202 4.99716 7.6291 5.03036 7.93543 5.15725C8.24177 5.28414 8.5036 5.49901 8.68781 5.77471C8.87202 6.0504 8.97035 6.37453 8.97035 6.70611C8.97035 7.15073 8.79372 7.57715 8.47932 7.89155C8.16492 8.20595 7.7385 8.38258 7.29387 8.38258Z" fill="#9CA3AF"/>
</g>
<defs>
<clipPath id="clip0_20_1481">
<rect width="13.4118" height="13.4118" fill="white" transform="translate(0.588135)"/>
</clipPath>
</defs>
</svg>
