<svg width="14" height="14" viewBox="0 0 14 14" fill="none" xmlns="http://www.w3.org/2000/svg">
<g clip-path="url(#clip0_20_1477)">
<path d="M13.3117 6.24818C12.7718 5.07729 11.981 4.03944 10.9953 3.20818L12.6897 1.51383L11.899 0.722534L10.0588 2.56106C9.04022 1.97191 7.88242 1.66644 6.70581 1.67645C2.51463 1.67645 0.590605 5.17524 0.0999575 6.24818C0.0340936 6.39197 0 6.54826 0 6.70642C0 6.86457 0.0340936 7.02087 0.0999575 7.16465C0.639857 8.33555 1.43064 9.37339 2.41628 10.2047L0.722487 11.899L1.51266 12.6892L3.35287 10.8507C4.3714 11.4398 5.5292 11.7453 6.70581 11.7353C10.897 11.7353 12.821 8.23648 13.3117 7.16353C13.3774 7.01991 13.4114 6.86381 13.4114 6.70586C13.4114 6.54791 13.3774 6.39181 13.3117 6.24818V6.24818ZM1.11758 6.712C1.53669 5.79274 3.18131 2.79409 6.70581 2.79409C7.58294 2.78897 8.44858 2.99359 9.23058 3.39092L8.24425 4.37724C7.70774 4.02105 7.06452 3.86144 6.42374 3.92551C5.78295 3.98958 5.18406 4.27338 4.72869 4.72874C4.27333 5.18411 3.98953 5.78299 3.92547 6.42378C3.8614 7.06457 4.021 7.70779 4.37719 8.2443L3.2154 9.40609C2.32149 8.67816 1.60424 7.75705 1.11758 6.712V6.712ZM8.38228 6.70586C8.38228 7.15049 8.20565 7.5769 7.89126 7.8913C7.57686 8.2057 7.15044 8.38233 6.70581 8.38233C6.45686 8.38136 6.21136 8.32405 5.98772 8.21468L8.21463 5.98777C8.324 6.21141 8.38132 6.45691 8.38228 6.70586V6.70586ZM5.02934 6.70586C5.02934 6.26123 5.20597 5.83481 5.52037 5.52041C5.83477 5.20601 6.26118 5.02939 6.70581 5.02939C6.95476 5.03035 7.20026 5.08767 7.4239 5.19703L5.19699 7.42395C5.08762 7.20031 5.0303 6.95481 5.02934 6.70586ZM6.70581 10.6176C5.82868 10.6228 4.96304 10.4181 4.18105 10.0208L5.16737 9.03448C5.70388 9.39067 6.3471 9.55027 6.98789 9.4862C7.62868 9.42213 8.22756 9.13834 8.68293 8.68297C9.13829 8.22761 9.42209 7.62872 9.48616 6.98793C9.55022 6.34715 9.39062 5.70392 9.03443 5.16742L10.1957 4.00618C11.0913 4.73478 11.809 5.65809 12.294 6.70586C11.8671 7.63183 10.2219 10.6176 6.70581 10.6176Z" fill="#9CA3AF"/>
</g>
<defs>
<clipPath id="clip0_20_1477">
<rect width="13.4118" height="13.4118" fill="white"/>
</clipPath>
</defs>
</svg>
