<svg width="648" height="149" viewBox="0 0 648 149" fill="none" xmlns="http://www.w3.org/2000/svg">
<g clip-path="url(#clip0_20_1302)">
<path fill-rule="evenodd" clip-rule="evenodd" d="M52.3785 133.879C52.4102 133.912 52.4435 133.963 52.4622 133.986C52.4348 133.951 52.4059 133.915 52.3785 133.879ZM64.7002 83.9806C64.4791 84.0121 64.1439 84.0681 63.8318 84.1527C60.786 84.9704 54.3853 87.8079 46.3664 90.261C42.4537 91.4574 38.1596 92.5548 33.6893 93.3065C33.841 93.7799 34.1155 94.4398 34.3207 95.0853C36.0733 100.618 40.9901 112.491 45.6469 121.997C48.1465 127.101 50.5536 131.525 52.3785 133.879C52.3481 133.846 52.3178 133.828 52.3033 133.864C52.1848 134.171 53.2266 133.854 54.0732 133.658C56.3243 133.144 59.8397 131.874 63.5963 130.382C71.7944 127.127 81.118 122.818 81.118 122.818C81.3709 122.697 81.6728 122.803 81.7942 123.054C81.9156 123.304 81.8087 123.605 81.5573 123.724C81.5573 123.724 66.8645 130.92 58.1868 134.074C55.5152 135.046 53.374 135.615 52.3293 135.565C51.7268 135.536 51.341 135.307 51.1258 135.044C47.229 130.273 40.4902 116.46 36.0155 105.872C33.7702 100.562 32.1014 96.055 31.5841 93.9047C31.3486 92.9263 31.392 92.2593 31.4989 91.9853C31.7026 91.466 32.0768 91.2393 32.4958 91.1762C37.7941 90.3729 42.8569 89.0373 47.3489 87.6472C53.6412 85.6991 58.821 83.6305 61.9506 82.6407C63.3189 82.2075 64.3433 81.9837 64.9516 82.0009C65.8618 82.0282 66.2967 82.4686 66.4398 83.0108C66.9122 84.8054 68.7891 89.2941 71.1124 94.5947C76.1665 106.121 83.3532 121.423 83.3532 121.423C83.4746 121.673 83.3676 121.974 83.1162 122.095C82.8648 122.215 82.5614 122.109 82.4401 121.859C82.4401 121.859 74.8676 106.717 69.5592 95.2847C67.2532 90.3184 65.3807 86.042 64.7002 83.9806ZM33.5997 92.9837C33.7485 92.8259 33.8959 92.6294 33.7008 92.6222C33.5694 92.6179 33.5506 92.7542 33.5997 92.9837Z" fill="black"/>
<path fill-rule="evenodd" clip-rule="evenodd" d="M52.3498 123.509C52.0825 123.588 51.7994 123.436 51.7199 123.171C51.639 122.905 51.7921 122.624 52.0594 122.545C52.0594 122.545 54.8668 121.419 58.5266 120.036C59.3559 119.723 60.2301 119.406 61.1273 119.091C61.7009 118.888 62.2832 118.682 62.8712 118.497C64.3638 118.026 65.8736 117.599 67.2853 117.189C70.201 116.341 72.6919 115.642 73.7756 115.099C74.0154 114.956 74.3261 115.035 74.4691 115.273C74.6121 115.512 74.5327 115.822 74.2928 115.962C73.2597 116.674 70.8497 117.848 67.9398 119.038C66.5657 119.599 65.0891 120.17 63.5937 120.676C63.0056 120.875 62.4103 121.05 61.8208 121.221C60.9034 121.488 60.0018 121.735 59.1378 121.953C55.3306 122.915 52.3498 123.509 52.3498 123.509Z" fill="black"/>
<path fill-rule="evenodd" clip-rule="evenodd" d="M49.3132 118.05C49.0459 118.129 48.7627 117.977 48.6833 117.711C48.6024 117.446 48.7555 117.165 49.0228 117.086C49.0228 117.086 50.5789 116.346 52.9441 115.37C53.4397 115.165 53.97 114.962 54.5335 114.758C54.8788 114.632 55.2357 114.501 55.6055 114.392C56.4811 114.134 57.4073 113.911 58.3566 113.693C59.7451 113.373 61.1596 113.12 62.5437 112.818C62.8081 112.729 63.0971 112.87 63.1867 113.132C63.2763 113.395 63.1347 113.68 62.8703 113.771C61.5815 114.373 60.2854 115.005 58.9648 115.557C58.0618 115.936 57.1732 116.288 56.3034 116.58C55.935 116.702 55.5665 116.799 55.2097 116.892C54.6274 117.046 54.0711 117.179 53.5437 117.29C51.0297 117.818 49.3132 118.05 49.3132 118.05Z" fill="black"/>
<path fill-rule="evenodd" clip-rule="evenodd" d="M46.9514 113.082C46.6841 113.161 46.4009 113.009 46.3214 112.744C46.2405 112.478 46.3937 112.197 46.661 112.118C46.661 112.118 49.0204 111.13 52.2511 109.885C52.9649 109.609 53.7205 109.332 54.5051 109.055C54.9992 108.88 55.5035 108.701 56.0193 108.542C57.285 108.152 58.5911 107.797 59.8655 107.453C62.0024 106.875 64.0368 106.38 65.655 105.891C65.9151 105.789 66.2098 105.917 66.3124 106.175C66.415 106.432 66.2864 106.724 66.0264 106.826C64.489 107.574 62.5732 108.469 60.4983 109.309C59.2673 109.809 57.9958 110.299 56.7316 110.724C56.2172 110.896 55.7 111.044 55.1929 111.187C54.3881 111.414 53.605 111.622 52.8594 111.801C49.4799 112.617 46.9514 113.082 46.9514 113.082Z" fill="black"/>
<path fill-rule="evenodd" clip-rule="evenodd" d="M44.6536 107.134C44.3863 107.213 44.1031 107.061 44.0236 106.796C43.9427 106.53 44.0958 106.249 44.3631 106.17C44.3631 106.17 46.6576 105.202 49.8232 103.977C50.5197 103.707 51.258 103.436 52.0252 103.165C52.5092 102.994 53.0005 102.818 53.5047 102.663C54.7386 102.284 56.0159 101.941 57.2671 101.607C59.3304 101.055 61.3113 100.581 62.9367 100.106C63.1982 100.006 63.4916 100.135 63.5912 100.393C63.6924 100.653 63.5623 100.944 63.3008 101.045C61.7606 101.783 59.8968 102.653 57.8985 103.463C56.6906 103.952 55.4481 104.433 54.217 104.846C53.7128 105.014 53.2085 105.157 52.7115 105.297C51.9241 105.519 51.1597 105.72 50.4301 105.895C47.117 106.688 44.6536 107.134 44.6536 107.134Z" fill="black"/>
<path fill-rule="evenodd" clip-rule="evenodd" d="M42.2742 102.655C42.0069 102.734 41.7237 102.582 41.6442 102.317C41.5633 102.051 41.7164 101.77 41.9837 101.691C41.9837 101.691 42.8911 101.155 44.4573 100.419C44.7694 100.273 45.1046 100.13 45.4702 99.9899C45.6898 99.9038 45.9181 99.8149 46.1594 99.7475C46.7171 99.5911 47.3167 99.4763 47.9524 99.3659C48.8367 99.2124 49.7426 99.1278 50.7092 98.9944C50.975 98.9097 51.2597 99.0546 51.3449 99.32C51.4316 99.584 51.2843 99.8666 51.0184 99.9526C50.1529 100.405 49.3611 100.855 48.5448 101.235C47.9596 101.508 47.3962 101.752 46.8457 101.938C46.6073 102.018 46.3674 102.074 46.1377 102.127C45.7534 102.216 45.395 102.288 45.0526 102.341C43.3332 102.607 42.2742 102.655 42.2742 102.655Z" fill="black"/>
<path fill-rule="evenodd" clip-rule="evenodd" d="M105.886 128.569C103.12 126.07 100.56 123.502 98.2756 121.04C93.2085 115.579 89.462 110.699 87.5042 108.613C87.1936 108.282 86.867 107.989 86.698 107.843C86.214 108.118 85.3601 108.554 84.3689 109.039C81.7855 110.303 78.2571 111.938 78.2571 111.938C78.0072 112.062 77.7023 111.96 77.5795 111.71C77.4553 111.462 77.5578 111.159 77.8092 111.037C77.8092 111.037 81.2494 109.256 83.7664 107.889C84.9324 107.256 85.8946 106.717 86.1851 106.498C86.4076 106.332 86.7558 106.246 87.2181 106.468C87.6444 106.674 88.4101 107.372 89.4475 108.475C91.4588 110.614 94.6692 114.332 98.7192 118.546C101.609 121.551 104.92 124.82 108.573 127.906C108.833 128.128 108.955 128.404 108.975 128.715C108.989 128.932 108.962 129.305 108.582 129.669C108.452 129.794 108.112 130.025 107.563 130.302C106.221 130.979 103.282 132.243 99.4936 133.743C95.3469 135.384 90.1772 137.318 85.0104 139.16C75.3963 142.588 65.791 145.674 62.7741 146.023C62.4981 146.06 62.2424 145.866 62.2048 145.591C62.1673 145.317 62.3623 145.063 62.6397 145.026C65.8921 144.531 76.7978 140.408 87.039 136.36C93.2576 133.902 99.2263 131.464 103.071 129.81C104.221 129.315 105.179 128.897 105.886 128.569Z" fill="black"/>
<path fill-rule="evenodd" clip-rule="evenodd" d="M16.2747 117.521C21.1745 122.565 26.1472 127.103 30.7881 131.039C33.175 133.065 35.4752 134.928 37.6382 136.612C43.0014 140.787 47.5369 143.822 50.5436 145.32C51.503 145.798 52.2861 146.12 52.8741 146.249C53.01 146.28 53.192 146.294 53.2715 146.3C54.1109 145.595 56.8258 143.101 60.1172 140.068C66.9817 133.743 76.3169 125.083 76.3169 125.083C76.5177 124.891 76.8385 124.895 77.0335 125.094C77.2286 125.294 77.2228 125.612 77.0219 125.806C77.0219 125.806 68.0032 134.798 61.3338 141.33C57.9427 144.651 55.1498 147.335 54.4606 147.922C54.0575 148.265 53.2628 148.454 52.1069 148.154C49.8934 147.584 45.5978 145.241 40.2143 141.392C36.9244 139.039 33.2126 136.127 29.3115 132.732C24.5023 128.546 19.4209 123.612 14.41 118.18C14.2166 117.969 14.1125 117.714 14.1518 117.4C14.1781 117.189 14.3682 116.751 14.9272 116.311C15.8701 115.568 18.1559 114.245 20.9719 112.818C26.7685 109.881 34.8106 106.484 37.7147 106.543C37.9936 106.544 38.2204 106.77 38.219 107.048C38.2175 107.325 37.9893 107.55 37.7104 107.549C36.3045 107.566 33.6836 108.501 30.7202 109.782C25.5498 112.017 19.384 115.354 16.799 117.13C16.6197 117.253 16.4339 117.395 16.2747 117.521ZM53.1674 146.384C53.1674 146.384 53.1674 146.384 53.1674 146.386V146.384Z" fill="black"/>
<path fill-rule="evenodd" clip-rule="evenodd" d="M26.2801 120.865C26.0431 121.012 25.7305 120.94 25.5828 120.705C25.4351 120.469 25.5078 120.158 25.7451 120.012C25.7451 120.012 26.9881 118.914 28.6916 117.599C29.0773 117.3 29.4891 117.004 29.9168 116.707C30.1913 116.517 30.4687 116.325 30.7591 116.154C31.5047 115.714 32.2733 115.325 32.9914 114.971C34.9218 114.02 36.4591 113.39 36.4591 113.39C36.6975 113.242 37.0096 113.315 37.1569 113.551C37.3043 113.786 37.2321 114.096 36.9951 114.244C36.9951 114.244 35.7453 115.334 34.0346 116.635C33.3974 117.118 32.7068 117.632 31.98 118.101C31.6969 118.285 31.4007 118.447 31.1088 118.607C30.6522 118.858 30.2014 119.094 29.7622 119.305C27.8203 120.243 26.2801 120.865 26.2801 120.865Z" fill="black"/>
<path fill-rule="evenodd" clip-rule="evenodd" d="M30.1669 125.667C29.9298 125.814 29.6173 125.741 29.4696 125.506C29.3218 125.271 29.3946 124.959 29.6318 124.813C29.6318 124.813 31.0101 123.631 32.8831 122.212C33.3081 121.889 33.7608 121.567 34.2304 121.244C34.5318 121.038 34.8364 120.829 35.154 120.641C35.9678 120.158 36.8072 119.726 37.5896 119.332C39.6894 118.278 41.362 117.563 41.362 117.563C41.5994 117.416 41.9122 117.488 42.0596 117.724C42.2085 117.959 42.1355 118.269 41.8981 118.417C41.8981 118.417 40.513 119.592 38.6328 120.996C37.9313 121.52 37.1715 122.076 36.3749 122.588C36.0645 122.789 35.7411 122.968 35.4224 123.145C34.9239 123.422 34.4322 123.682 33.9539 123.917C31.8438 124.959 30.1669 125.667 30.1669 125.667Z" fill="black"/>
<path fill-rule="evenodd" clip-rule="evenodd" d="M36.9945 130.335C36.7575 130.482 36.4449 130.41 36.2971 130.174C36.1495 129.939 36.2222 129.629 36.4594 129.482C36.4594 129.482 37.4736 128.527 38.8941 127.385C39.2141 127.127 39.556 126.873 39.9145 126.62C40.1438 126.458 40.3756 126.294 40.6204 126.152C41.2485 125.782 41.9011 125.467 42.5113 125.179C44.1589 124.404 45.4671 123.915 45.4671 123.915C45.7052 123.767 46.0171 123.84 46.1645 124.075C46.3131 124.311 46.2399 124.621 46.0031 124.768C46.0031 124.768 44.9825 125.716 43.5545 126.843C43.0252 127.26 42.4521 127.702 41.8412 128.098C41.6038 128.254 41.3532 128.387 41.1064 128.52C40.7191 128.728 40.3382 128.921 39.9646 129.091C38.3057 129.853 36.9945 130.335 36.9945 130.335Z" fill="black"/>
<path fill-rule="evenodd" clip-rule="evenodd" d="M41.3539 133.965C41.1168 134.112 40.8044 134.041 40.6565 133.804C40.5089 133.569 40.5816 133.258 40.8188 133.112C40.8188 133.112 41.5894 132.311 42.7108 131.351C42.9611 131.136 43.2295 130.927 43.514 130.719C43.6956 130.587 43.8789 130.453 44.0753 130.341C44.581 130.047 45.1085 129.809 45.6043 129.592C46.955 129.002 48.0175 128.663 48.0175 128.663C48.2553 128.515 48.5674 128.587 48.7148 128.823C48.8635 129.059 48.79 129.369 48.5534 129.516C48.5534 129.516 47.777 130.312 46.6475 131.256C46.2327 131.602 45.7844 131.965 45.2961 132.287C45.1071 132.413 44.905 132.517 44.706 132.62C44.3926 132.782 44.0853 132.929 43.7812 133.056C42.4186 133.633 41.3539 133.965 41.3539 133.965Z" fill="black"/>
<path fill-rule="evenodd" clip-rule="evenodd" d="M82.4949 114.122C82.3244 113.902 82.3663 113.585 82.5889 113.417C82.8113 113.248 83.1292 113.289 83.2983 113.51C83.2983 113.51 84.8876 115.113 86.8844 117.273C87.3352 117.761 87.7961 118.28 88.2613 118.818C88.559 119.162 88.861 119.511 89.1456 119.874C89.8651 120.792 90.5471 121.745 91.1915 122.64C92.4832 124.434 93.5524 126.011 94.2243 126.758C94.4294 126.948 94.441 127.266 94.2503 127.468C94.0595 127.672 93.7388 127.684 93.5351 127.494C92.71 126.863 91.2522 125.538 89.6701 123.888C88.8985 123.084 88.0952 122.215 87.3424 121.308C87.0448 120.951 86.7674 120.578 86.4957 120.211C86.0695 119.636 85.6649 119.068 85.2922 118.516C83.6436 116.07 82.4949 114.122 82.4949 114.122Z" fill="black"/>
<path fill-rule="evenodd" clip-rule="evenodd" d="M77.9253 124.998C77.7504 124.782 77.7866 124.464 78.0047 124.291C78.2229 124.117 78.5422 124.152 78.7156 124.368C79.412 124.958 80.1012 125.489 80.763 126.083C81.0288 126.322 81.2773 126.566 81.5172 126.814C81.6819 126.984 81.8423 127.15 81.9853 127.329C82.3696 127.813 82.6861 128.299 82.9822 128.752C83.5949 129.686 84.0153 130.462 84.3765 130.943C84.5817 131.132 84.5933 131.451 84.4026 131.653C84.2118 131.857 83.8911 131.868 83.6873 131.679C83.1513 131.339 82.3826 130.809 81.4912 130.036C81.0736 129.673 80.6329 129.272 80.2125 128.8C80.0579 128.628 79.9192 128.437 79.7805 128.242C79.5767 127.958 79.3817 127.665 79.1953 127.355C78.7373 126.59 78.3544 125.804 77.9253 124.998Z" fill="black"/>
<path fill-rule="evenodd" clip-rule="evenodd" d="M74.305 127.659C74.1272 127.444 74.159 127.127 74.3758 126.951C74.591 126.776 74.9103 126.807 75.0881 127.021C75.6241 127.385 76.1081 127.667 76.5878 128.028C76.78 128.173 76.9534 128.321 77.1224 128.479C77.2366 128.585 77.3478 128.689 77.4417 128.807C77.6989 129.131 77.8882 129.461 78.0688 129.771C78.443 130.412 78.6496 130.932 78.8851 131.31C79.0903 131.5 79.1019 131.818 78.9111 132.02C78.7204 132.224 78.3997 132.236 78.1959 132.046C77.7711 131.827 77.2409 131.548 76.5979 131.079C76.2974 130.858 75.9853 130.616 75.6906 130.303C75.5851 130.191 75.4955 130.062 75.4045 129.93C75.273 129.737 75.1502 129.539 75.0375 129.322C74.7586 128.786 74.5636 128.258 74.305 127.659Z" fill="black"/>
<path fill-rule="evenodd" clip-rule="evenodd" d="M70.1259 131.669C69.9482 131.454 69.9799 131.137 70.1952 130.961C70.412 130.785 70.7313 130.816 70.909 131.031C71.4479 131.401 71.9363 131.688 72.4203 132.054C72.6154 132.201 72.7902 132.352 72.9607 132.511C73.0763 132.619 73.189 132.725 73.2843 132.844C73.5444 133.171 73.7366 133.505 73.9201 133.82C74.2986 134.468 74.511 134.992 74.7494 135.373C74.9546 135.563 74.9661 135.881 74.7754 136.083C74.5847 136.287 74.2639 136.298 74.0602 136.109C73.6325 135.887 73.0965 135.603 72.4492 135.126C72.1443 134.903 71.8294 134.656 71.5317 134.34C71.4248 134.227 71.3338 134.096 71.2427 133.962C71.1098 133.766 70.9856 133.567 70.87 133.348C70.5868 132.805 70.3888 132.272 70.1259 131.669Z" fill="black"/>
<path fill-rule="evenodd" clip-rule="evenodd" d="M12.0438 126.783C14.4828 128.483 17.8064 130.208 21.3684 131.94C22.5817 132.53 23.82 133.125 25.0617 133.717C26.9359 134.612 28.8157 135.502 30.6391 136.34C32.0984 137.011 33.5144 137.655 34.8538 138.259C40.5031 140.807 44.7785 142.574 44.7785 142.574C45.0414 142.669 45.1758 142.957 45.0804 143.218C44.9851 143.479 44.6932 143.614 44.4317 143.518C44.4317 143.518 38.778 141.771 31.8672 139.068C29.2333 138.038 26.4173 136.869 23.6751 135.595C22.313 134.961 20.9729 134.294 19.6811 133.608C16.2264 131.778 13.1116 129.833 10.8185 128.026C10.3839 127.681 10.1975 127.229 10.3174 126.665C10.407 126.243 10.7178 125.69 11.248 125.116C13.1281 123.079 17.7369 120.215 17.7369 120.215C17.9686 120.059 18.2836 120.121 18.4399 120.35C18.5963 120.58 18.5351 120.893 18.3035 121.049C18.3035 121.049 12.9712 124.863 12.0438 126.783Z" fill="black"/>
<path fill-rule="evenodd" clip-rule="evenodd" d="M50.5911 145.977C50.8699 146.001 51.078 146.244 51.0534 146.521C51.0303 146.797 50.7847 147.003 50.5058 146.98C48.2157 146.863 42.3684 146.08 35.5328 144.594C33.6256 144.179 31.6432 143.702 29.6436 143.167C28.3504 142.821 27.0486 142.449 25.7594 142.045C23.5888 141.365 21.4449 140.609 19.3942 139.801C15.9748 138.456 12.8255 136.952 10.2375 135.389C9.13302 134.714 9.0654 133.649 9.76312 132.472C10.7989 130.726 13.6139 128.701 13.6139 128.701C13.8353 128.532 14.1536 128.572 14.3241 128.793C14.4946 129.012 14.4533 129.328 14.2318 129.497C14.2318 129.497 12.3331 131.063 11.3078 132.571C11.1032 132.872 10.9395 133.171 10.8429 133.451C10.7546 133.704 10.7458 133.937 10.996 134.067C13.5947 135.44 16.7517 136.675 20.1288 137.839C22.1754 138.545 24.3044 139.212 26.4432 139.859C27.7176 140.244 28.9948 140.629 30.2605 141C32.2241 141.576 34.1602 142.121 36.0211 142.63C42.6747 144.448 48.3458 145.711 50.5911 145.977Z" fill="black"/>
<path fill-rule="evenodd" clip-rule="evenodd" d="M9.71071 117.189C9.91732 117.002 10.2379 117.016 10.4261 117.222C10.6143 117.427 10.5993 117.745 10.3927 117.933C10.3927 117.933 9.14462 119.441 7.50283 121.502C6.91376 122.242 6.28713 123.056 5.61845 123.872C5.09397 124.513 4.53553 125.143 4.01018 125.786C3.47024 126.446 2.94215 127.088 2.48327 127.74C1.83699 128.656 1.2943 129.528 1.00027 130.383C0.938286 130.653 0.666502 130.824 0.394002 130.762C0.121504 130.7 -0.0492765 130.431 0.0127078 130.16C0.195192 128.719 0.839165 127.067 1.77673 125.417C2.31364 124.473 2.93941 123.536 3.62773 122.669C3.90341 122.321 4.20047 121.994 4.49696 121.679C4.96278 121.182 5.43077 120.716 5.89486 120.29C7.96316 118.395 9.71071 117.189 9.71071 117.189Z" fill="black"/>
<path fill-rule="evenodd" clip-rule="evenodd" d="M6.82568 128.764C7.01206 128.557 7.33253 128.539 7.54073 128.724C7.74908 128.909 7.76686 129.227 7.58047 129.434C7.58047 129.434 7.20842 130.263 6.66241 131.438C6.47703 131.838 6.29512 132.277 6.06077 132.717C5.88392 133.049 5.6672 133.367 5.47272 133.702C5.27767 134.037 5.067 134.346 4.89766 134.688C4.67588 135.136 4.46219 135.545 4.36119 136.007C4.36119 136.285 4.13435 136.51 3.85477 136.51C3.57534 136.51 3.34835 136.285 3.34835 136.007C3.21817 135.406 3.21614 134.806 3.27235 134.159C3.3076 133.752 3.38909 133.36 3.49876 132.96C3.6129 132.545 3.7636 132.142 3.95476 131.765C4.05792 131.563 4.18174 131.373 4.30946 131.194C4.51218 130.907 4.71749 130.645 4.93769 130.411C5.94186 129.343 6.82568 128.764 6.82568 128.764Z" fill="black"/>
<path fill-rule="evenodd" clip-rule="evenodd" d="M23.8464 103.892C23.6178 104.053 23.3017 103.998 23.1407 103.771C22.9798 103.543 23.0345 103.231 23.263 103.07C23.263 103.07 25.2235 101.374 28.595 99.5122C29.2987 99.1235 30.0674 98.7405 30.8952 98.369C31.4024 98.1409 31.9283 97.9156 32.4817 97.7162C33.7633 97.2571 35.1532 96.8699 36.6183 96.5672C38.6339 96.1497 40.7766 95.9202 43.0046 95.8758C43.282 95.8485 43.5305 96.0508 43.5579 96.3276C43.5839 96.6045 43.3802 96.8498 43.1028 96.8771C41.7129 97.1252 40.385 97.4709 39.0919 97.8439C37.7308 98.2355 36.4391 98.6888 35.2038 99.1407C34.412 99.4319 33.6477 99.7274 32.9094 100.007C32.1075 100.311 31.3374 100.592 30.6121 100.875C29.605 101.268 28.6861 101.635 27.8668 101.987C25.3587 103.06 23.8464 103.892 23.8464 103.892Z" fill="black"/>
<path fill-rule="evenodd" clip-rule="evenodd" d="M15.2561 97.8769C15.0017 97.9917 14.7011 97.8798 14.5855 97.6274C14.4698 97.3749 14.5825 97.0765 14.8369 96.9617C14.8369 96.9617 16.2214 96.0364 18.2584 95.0136C18.7061 94.7884 19.186 94.5732 19.6912 94.3638C20.0095 94.2318 20.3358 94.1013 20.6743 93.9937C21.5075 93.7312 22.3792 93.5303 23.2437 93.3768C24.6817 93.1229 26.0635 93.0268 27.2539 93.0727C27.5313 93.0483 27.7769 93.2535 27.8015 93.5303C27.8246 93.8072 27.618 94.0511 27.3391 94.074C26.2497 94.3035 25.049 94.7812 23.7721 95.2661C22.9888 95.5631 22.2018 95.8858 21.4164 96.167C21.0945 96.2817 20.7695 96.3764 20.4515 96.4711C19.9433 96.6246 19.4531 96.7651 18.9834 96.8914C16.8281 97.4695 15.2561 97.8769 15.2561 97.8769Z" fill="black"/>
</g>
<g clip-path="url(#clip1_20_1302)">
<path fill-rule="evenodd" clip-rule="evenodd" d="M602.775 93.6887C602.739 93.7399 602.719 93.8122 602.691 93.8875C602.619 94.0759 602.567 94.2958 602.528 94.5368C602.413 95.2554 602.417 96.1291 602.486 97.0043C602.57 98.0754 602.75 99.148 602.973 99.9539C603.046 100.221 603.111 100.454 603.18 100.629C603.492 100.683 604.106 100.781 604.693 100.831C606.793 101.004 610.148 101.091 613.766 101.139C621.721 101.246 630.92 101.159 630.92 101.159C631.215 101.148 631.463 101.376 631.474 101.667C631.484 101.959 631.253 102.203 630.959 102.214C630.959 102.214 616.387 103.084 608.03 103.096C605.552 103.101 603.602 103.012 602.684 102.839C601.992 102.709 601.62 102.406 601.475 102.224C601.211 101.891 600.899 101.198 600.649 100.294C600.334 99.154 600.079 97.634 600.026 96.224C599.984 95.1077 600.078 94.0578 600.325 93.2774C600.539 92.5965 600.884 92.0859 601.298 91.762C601.576 91.5451 602.349 91.2634 603.538 91.1233C605.103 90.938 607.586 90.8325 610.427 90.8024C613.549 90.7708 617.108 90.822 620.344 90.9063C625.507 91.0404 629.845 91.2619 630.293 91.3161C631.2 91.4276 631.977 92.0301 632.47 93.2488C632.953 94.4434 633.2 96.2903 633.149 98.7578C633.151 99.0485 632.914 99.2866 632.618 99.2881C632.323 99.2911 632.082 99.056 632.08 98.7638C632.016 96.929 631.809 95.4738 631.465 94.4148C631.145 93.4311 630.767 92.8225 630.147 92.7788C629.505 92.7306 620.834 92.7713 613.292 92.9852C609.745 93.0846 606.451 93.2157 604.373 93.4401C603.586 93.5245 602.582 93.4236 602.702 93.7188C602.715 93.752 602.747 93.7203 602.775 93.6887ZM602.775 93.6887C602.786 93.6736 602.798 93.6601 602.812 93.648C602.803 93.6555 602.789 93.6721 602.775 93.6887Z" fill="black"/>
<path fill-rule="evenodd" clip-rule="evenodd" d="M632.786 118.526C632.687 118.502 632.513 118.463 632.359 118.438C631.665 118.323 630.573 118.233 629.204 118.15C625.169 117.909 618.783 117.818 612.958 117.921C608.692 117.996 604.73 118.171 602.236 118.507C601.303 118.632 600.062 118.575 600.244 118.932C600.247 118.938 600.251 118.938 600.255 118.936C600.223 118.99 600.204 119.067 600.172 119.153C600.067 119.43 599.985 119.778 599.913 120.182C599.561 122.168 599.54 125.317 599.688 128.472C599.837 131.646 600.156 134.821 600.525 136.851C600.663 137.604 600.775 138.176 600.911 138.47C600.873 138.399 600.825 138.327 600.791 138.384C600.614 138.673 601.729 138.667 602.616 138.788C604.927 139.101 608.651 139.277 612.669 139.38C621.499 139.603 631.735 139.455 631.735 139.455C632.03 139.445 632.277 139.674 632.287 139.966C632.296 140.257 632.065 140.501 631.77 140.51C631.77 140.51 615.523 141.302 606.253 140.998C603.474 140.906 601.298 140.693 600.292 140.373C599.695 140.183 599.359 139.88 599.203 139.64C598.944 139.243 598.626 138.227 598.356 136.808C597.863 134.22 597.411 130.147 597.274 126.426C597.17 123.599 597.258 120.97 597.61 119.31C597.838 118.231 598.236 117.487 598.648 117.115C598.833 116.948 599.121 116.769 599.525 116.622C600.051 116.431 600.868 116.256 601.914 116.122C604.479 115.794 608.553 115.637 612.937 115.634C618.826 115.631 625.278 115.892 629.348 116.249C631.759 116.46 633.396 116.773 633.78 117.019C634.1 117.222 634.478 117.743 634.711 118.606C635.011 119.723 635.221 121.539 635.344 123.635C635.678 129.335 635.426 137.129 635.192 138.098C635.129 138.381 634.844 138.562 634.556 138.5C634.267 138.438 634.085 138.157 634.148 137.872C634.318 137.03 634.281 130.994 633.916 125.772C633.739 123.227 633.484 120.877 633.118 119.433C633.026 119.07 632.854 118.677 632.786 118.526ZM600.255 118.936C600.265 118.92 600.276 118.905 600.289 118.894C600.28 118.902 600.266 118.929 600.255 118.936ZM600.911 138.47C600.929 138.505 600.946 138.539 600.957 138.559C600.941 138.532 600.926 138.503 600.911 138.47Z" fill="black"/>
<path fill-rule="evenodd" clip-rule="evenodd" d="M639.992 143.04C639.979 143.331 639.729 143.557 639.434 143.545C639.139 143.532 638.91 143.285 638.923 142.994C638.986 140.966 638.898 134.201 638.767 126.013C638.646 118.42 638.477 109.607 638.338 102.212C638.18 93.7128 638.063 87.1027 637.997 86.4399C637.862 85.0675 637.46 84.2601 636.738 83.8338C635.86 83.3155 634.664 83.2944 633.319 83.299L596.142 83.2884C595.425 83.3577 594.841 83.8081 594.364 84.5734C593.945 85.2453 593.611 86.131 593.36 87.2262C592.797 89.6711 592.039 95.5793 591.48 102.167C591.051 107.219 590.738 112.67 590.736 117.278C590.74 117.568 590.504 117.808 590.208 117.812C589.913 117.815 589.671 117.582 589.667 117.291C589.545 112.655 589.707 107.161 590.008 102.063C590.403 95.3578 591.041 89.3412 591.552 86.8436C591.901 85.1473 592.453 83.8639 593.141 82.9781C593.904 81.9929 594.851 81.4626 595.927 81.3346C596.399 81.2804 603.229 81.1478 610.942 81.062C620.944 80.949 632.439 80.9008 633.319 80.8962C635.165 80.9023 636.782 81.0785 637.982 81.8001C639.229 82.5488 640.143 83.8443 640.351 86.2259C640.433 87.2021 640.492 100.892 640.417 114.669C640.348 127.36 640.164 140.121 639.992 143.04Z" fill="black"/>
<path fill-rule="evenodd" clip-rule="evenodd" d="M596.311 142.07C596.514 142.103 596.763 142.14 597.006 142.164C599.6 142.432 605.107 142.616 611.134 142.763C621.698 143.024 633.848 143.159 634.79 143.072C635.084 143.039 635.349 143.248 635.382 143.538C635.415 143.827 635.204 144.089 634.911 144.122C633.846 144.259 618.445 144.708 607.154 144.696C602.358 144.691 598.301 144.592 596.374 144.396C595.376 144.294 594.78 144.045 594.606 143.905C594.474 143.798 594.283 143.59 594.156 143.217C594.052 142.914 593.939 142.274 593.85 141.344C593.682 139.604 593.533 136.706 593.443 133.098C593.382 130.647 593.348 127.868 593.343 124.9C593.331 118.225 593.441 110.607 593.619 103.669C593.89 93.0771 594.351 84.0732 594.776 82.3725C594.842 82.0893 595.128 81.91 595.416 81.9748C595.704 82.0411 595.884 82.3243 595.819 82.6075C595.494 84.135 595.411 91.5375 595.435 100.659C595.45 106.001 595.518 111.927 595.592 117.614C595.673 123.935 595.784 129.957 595.92 134.549C596.007 137.467 596.088 139.802 596.215 141.254C596.241 141.546 596.279 141.841 596.311 142.07Z" fill="black"/>
<path fill-rule="evenodd" clip-rule="evenodd" d="M587.406 118.731C587.402 118.746 587.391 118.778 587.377 118.769C587.257 118.691 587.619 118.57 587.818 118.492C588.284 118.308 588.893 118.177 589.56 118.088C591.304 117.858 593.386 117.876 594.428 117.925C594.722 117.954 594.983 117.742 595.012 117.451C595.04 117.162 594.825 116.902 594.531 116.875C593.267 116.696 590.528 116.428 588.543 116.639C587.719 116.728 587.019 116.921 586.54 117.187C586.065 117.449 585.786 117.821 585.649 118.224C585.48 118.728 585.262 120.983 585.152 123.909C585.089 125.585 585.041 127.487 585.066 129.391C585.09 131.293 585.183 133.194 585.303 134.876C585.502 137.667 585.823 139.866 586.117 140.567C586.545 141.558 587.545 142.183 588.893 142.393C590.964 142.71 593.834 142.168 595.094 142.001C595.388 141.977 595.607 141.721 595.582 141.43C595.557 141.139 595.299 140.924 595.004 140.948C593.972 140.983 591.792 141.181 589.985 140.927C589.457 140.853 588.969 140.733 588.564 140.549C588.242 140.404 587.995 140.205 587.898 139.909C587.713 139.363 587.664 137.837 587.607 135.852C587.563 134.309 587.551 132.507 587.524 130.656C587.508 129.501 587.483 128.326 587.456 127.185C587.402 124.883 587.341 122.722 587.341 121.119C587.341 119.884 587.335 119.011 587.406 118.731Z" fill="black"/>
<path fill-rule="evenodd" clip-rule="evenodd" d="M595.297 82.49C594.739 84.9018 594.443 101.992 594.479 117.401C593.554 117.312 591.819 117.207 590.202 117.284C590.063 106.609 591.509 91.3929 592.456 87.0348C593.002 84.5236 593.977 83.0037 595.297 82.49Z" fill="black"/>
<path fill-rule="evenodd" clip-rule="evenodd" d="M590.859 117.204C590.889 116.915 591.152 116.702 591.445 116.732C591.739 116.762 591.953 117.022 591.923 117.311C591.923 117.311 591.918 119.97 592.109 124.62C592.146 125.522 592.181 126.495 592.215 127.541C592.235 128.166 592.261 128.814 592.265 129.487C592.275 130.997 592.253 132.624 592.243 134.362C592.23 136.637 592.183 139.08 592.236 141.701C592.262 141.992 592.045 142.248 591.751 142.274C591.457 142.299 591.197 142.085 591.171 141.795C590.754 139.181 590.389 136.741 590.161 134.457C589.987 132.703 589.868 131.057 589.826 129.528C589.807 128.845 589.819 128.186 589.834 127.551C589.859 126.489 589.905 125.501 589.972 124.588C590.315 119.866 590.859 117.204 590.859 117.204Z" fill="black"/>
<path fill-rule="evenodd" clip-rule="evenodd" d="M591.391 117.258C592.616 117.258 593.78 117.333 594.479 117.401C594.505 127.987 594.687 137.778 595.049 141.475C594.323 141.535 593.04 141.704 591.703 141.748C590.382 127.002 591.391 117.258 591.391 117.258Z" fill="black"/>
<path fill-rule="evenodd" clip-rule="evenodd" d="M645.719 118.474C645.631 118.413 645.471 118.308 645.332 118.258C644.783 118.062 644.05 117.942 643.287 117.868C641.807 117.725 640.235 117.742 639.571 117.782C639.278 117.815 639.012 117.609 638.978 117.32C638.943 117.029 639.153 116.767 639.446 116.734C640.545 116.548 643.999 116.19 645.835 116.652C646.967 116.937 647.534 117.624 647.572 118.392C647.591 118.9 647.725 120.952 647.832 123.594C647.897 125.191 647.967 127 647.985 128.812C648.003 130.623 647.968 132.435 647.93 134.035C647.867 136.709 647.751 138.795 647.671 139.351C647.505 140.442 646.945 141.34 645.645 141.876C644.434 142.376 642.479 142.573 639.468 142.275C639.173 142.26 638.946 142.013 638.961 141.721C638.976 141.43 639.228 141.206 639.522 141.221C641.684 141.225 643.224 141.034 644.292 140.683C645.308 140.348 645.769 139.854 645.812 139.158C645.849 138.619 645.756 136.612 645.676 134.044C645.627 132.449 645.563 130.643 645.546 128.835C645.529 127.026 645.556 125.216 645.582 123.621C645.622 121.092 645.696 119.099 645.719 118.474Z" fill="black"/>
<path fill-rule="evenodd" clip-rule="evenodd" d="M587.517 140.266C587.794 140.365 587.936 140.669 587.834 140.944C587.732 141.216 587.424 141.356 587.147 141.255C585.937 140.894 583.179 139.671 580.369 138.134C578.892 137.325 577.408 136.432 576.127 135.546C574.881 134.686 573.829 133.823 573.137 133.075C572.475 132.36 572.124 131.681 572.038 131.162C571.749 129.147 573.138 127.69 575.652 127.038C576.905 126.714 578.426 126.557 579.993 126.536C582.264 126.505 584.613 126.732 586.313 126.984C586.607 127.011 586.823 127.268 586.796 127.559C586.769 127.848 586.508 128.062 586.214 128.035C583.889 127.945 580.337 128.065 577.585 128.693C576.626 128.912 575.779 129.195 575.143 129.573C574.644 129.868 574.306 130.225 574.415 130.756C574.43 130.838 574.506 130.915 574.58 131.019C574.747 131.254 574.983 131.509 575.26 131.786C576.136 132.664 577.431 133.695 578.862 134.737C579.681 135.332 580.535 135.936 581.384 136.518C583.931 138.258 586.398 139.784 587.517 140.266Z" fill="black"/>
<path fill-rule="evenodd" clip-rule="evenodd" d="M587.331 140.761C584.581 139.761 573.655 133.407 573.226 130.959C572.556 127.139 581.741 127.093 586.263 127.509C586.303 132.938 586.539 139.002 587.007 140.238C587.082 140.436 587.192 140.609 587.331 140.761Z" fill="black"/>
<path fill-rule="evenodd" clip-rule="evenodd" d="M604.392 82.0351C604.493 82.3093 604.351 82.612 604.074 82.713C603.797 82.8124 603.489 82.6723 603.388 82.3981C603.104 81.7142 602.769 80.9444 602.209 80.3027C601.772 79.8011 601.18 79.3973 600.346 79.1925C599.365 78.9469 597.602 78.843 595.897 78.9349C594.962 78.9846 594.046 79.1021 593.289 79.2964C592.764 79.429 592.328 79.5841 592.089 79.8282C589.998 81.9236 588.406 84.6909 587.256 87.8001C586.826 88.9631 586.456 90.1728 586.148 91.4186C585.699 93.2323 585.382 95.1198 585.222 97.045C584.961 100.187 585.098 103.422 585.708 106.57C586.319 109.731 587.374 112.802 588.967 115.59C589.12 115.839 589.04 116.164 588.788 116.315C588.536 116.467 588.207 116.387 588.053 116.139C586.193 113.337 584.853 110.207 584.016 106.941C583.173 103.655 582.839 100.24 582.977 96.9079C583.063 94.8441 583.333 92.812 583.785 90.8657C584.099 89.5159 584.503 88.2054 584.993 86.958C586.328 83.5581 588.267 80.6055 590.655 78.382C591.394 77.7087 593.022 77.2748 594.872 77.2025C597.041 77.1181 599.498 77.4059 600.752 77.8081C601.634 78.0958 602.3 78.5341 602.81 79.0689C603.648 79.9472 604.07 81.0574 604.392 82.0351Z" fill="black"/>
<path fill-rule="evenodd" clip-rule="evenodd" d="M594.102 82.8576C594.098 82.8727 594.042 82.8983 594.06 82.8862C594.107 82.8531 593.959 82.82 593.9 82.7567C593.671 82.5142 593.246 82.3289 592.762 82.0532C592.568 81.9432 592.35 81.8664 592.13 81.7609C591.932 81.6676 591.766 81.5124 591.533 81.4416C591.107 81.3105 590.687 81.1373 590.096 81.2081C589.824 81.3211 589.51 81.1945 589.396 80.9264C589.281 80.6582 589.409 80.3479 589.68 80.2349C590.225 79.7935 590.737 79.6068 591.268 79.4546C591.555 79.3733 591.824 79.3748 592.099 79.3748C592.526 79.3733 592.922 79.4802 593.281 79.6399C593.478 79.7273 593.658 79.8433 593.817 79.9773C594.063 80.1837 594.283 80.3916 594.449 80.6372C594.583 80.8345 594.706 81.0062 594.79 81.2066C595.129 82.008 595.245 82.6211 595.171 82.8501C595.173 83.1408 594.935 83.3788 594.639 83.3803C594.345 83.3819 594.105 83.1484 594.102 82.8576Z" fill="black"/>
<path fill-rule="evenodd" clip-rule="evenodd" d="M606.468 82.4056C606.354 82.6752 606.041 82.8033 605.768 82.6918C605.496 82.5788 605.367 82.27 605.48 82.0004C605.665 81.4234 606.444 79.932 607.556 78.8083C608.281 78.0761 609.168 77.5655 610.083 77.4013C610.743 77.2958 611.691 77.1738 612.778 77.097C613.615 77.0382 614.532 76.9945 615.452 77.0006C616.179 77.0051 616.906 77.0458 617.597 77.1C618.893 77.2024 620.058 77.3711 620.877 77.5685C621.943 77.8457 622.958 78.4377 623.72 79.203C624.648 80.1339 625.231 81.2366 625.206 82.0938C625.222 82.3845 624.996 82.6331 624.701 82.6496C624.406 82.6647 624.154 82.4418 624.138 82.151C624.055 81.5515 623.459 80.9007 622.708 80.3538C622.08 79.8944 621.305 79.563 620.517 79.4771C619.986 79.4124 619.303 79.4003 618.534 79.3897C617.768 79.3792 616.925 79.3958 616.066 79.4033C615.514 79.4078 614.956 79.4109 614.411 79.4048C612.764 79.3883 611.233 79.3506 610.299 79.4063C609.574 79.4289 608.86 79.8673 608.249 80.3885C607.371 81.1372 606.676 82.0139 606.468 82.4056Z" fill="black"/>
<path fill-rule="evenodd" clip-rule="evenodd" d="M626.891 82.0425C626.932 82.3317 626.728 82.5984 626.436 82.6391C626.144 82.6798 625.873 82.4794 625.832 82.1902C625.688 81.6584 625.845 80.4457 626.47 79.4952C626.857 78.9047 627.461 78.4934 628.228 78.2825C628.77 78.1484 629.48 78.04 630.266 77.9767C630.896 77.927 631.572 77.9029 632.234 77.9165C632.775 77.9285 633.306 77.9692 633.792 78.0219C635.07 78.1605 636.061 78.3699 636.284 78.4527C637.424 78.9137 638.15 79.6323 638.449 80.4698C638.806 81.4731 638.677 82.5577 638.048 83.2763C637.881 83.5173 637.549 83.5791 637.305 83.4149C637.061 83.2507 636.998 82.9208 637.165 82.6813C637.409 82.2233 637.316 81.6403 637.01 81.1462C636.769 80.7591 636.314 80.509 635.697 80.39C635.605 80.3719 635.346 80.39 634.977 80.378C634.431 80.3614 633.696 80.3734 632.897 80.3463C632.175 80.3222 631.404 80.2725 630.676 80.2408C629.861 80.2047 629.11 80.146 628.548 80.1942C628.115 80.2183 627.768 80.4232 627.528 80.7199C627.143 81.1944 626.886 81.7442 626.891 82.0425Z" fill="black"/>
</g>
<g clip-path="url(#clip2_20_1302)">
<path fill-rule="evenodd" clip-rule="evenodd" d="M515.125 50.9846C521.383 44.9759 536.279 30.0427 536.279 30.0427C536.41 29.9088 536.624 29.9069 536.757 30.0369C536.891 30.1669 536.894 30.3808 536.764 30.5137C536.764 30.5137 521.771 46.1819 515.768 52.1348C514.717 53.176 513.935 53.9225 513.553 54.2481C513.301 54.462 513.11 54.5429 513.044 54.5602C512.647 54.6614 512.43 54.4591 512.307 54.2683C512.237 54.1585 512.161 53.9813 512.228 53.7241C512.307 53.4303 513.459 51.1648 514.949 48.355C516.925 44.6311 519.484 39.915 520.722 37.6398L514.313 38.5655C514.014 38.6088 513.719 38.473 513.559 38.2197C513.398 37.9663 513.401 37.6417 513.568 37.3913L527.405 16.8703C527.558 16.6391 527.851 16.5437 528.111 16.64C528.372 16.7363 528.532 16.9984 528.497 17.2738L526.833 29.6294L536.997 28.5564C537.182 28.5342 537.35 28.6671 537.373 28.8521C537.394 29.037 537.262 29.2047 537.076 29.2268L526.348 30.6129C526.206 30.6293 526.065 30.5802 525.964 30.479C525.864 30.3779 525.816 30.2363 525.833 30.0957L527.025 19.6338L515.767 36.8143L522.02 35.9011C522.309 35.8597 522.597 35.984 522.763 36.2238C522.928 36.4627 522.945 36.7758 522.805 37.031C522.805 37.031 518.959 43.9597 516.195 49.0225C515.813 49.7218 515.452 50.3836 515.125 50.9846Z" fill="black"/>
<path fill-rule="evenodd" clip-rule="evenodd" d="M551.384 12.3778C551.536 12.2689 551.747 12.3026 551.857 12.4539C551.966 12.6051 551.932 12.8161 551.781 12.9249C551.781 12.9249 550.737 13.9122 549.328 15.1134C549.009 15.387 548.667 15.6644 548.313 15.9418C548.086 16.12 547.856 16.3001 547.617 16.4677C547.005 16.8954 546.373 17.2913 545.784 17.6535C544.208 18.6215 542.945 19.3084 542.945 19.3084C542.794 19.4182 542.582 19.3844 542.473 19.2332C542.363 19.082 542.398 18.871 542.548 18.7612C542.548 18.7612 543.597 17.7787 545.011 16.5872C545.54 16.1422 546.114 15.6663 546.713 15.2193C546.946 15.045 547.19 14.8832 547.43 14.7242C547.805 14.4748 548.176 14.2388 548.536 14.0201C550.119 13.0607 551.384 12.3778 551.384 12.3778Z" fill="black"/>
<path fill-rule="evenodd" clip-rule="evenodd" d="M555.807 27.5267C555.988 27.4844 556.17 27.5971 556.214 27.7782C556.256 27.9593 556.144 28.1413 555.962 28.1837C555.962 28.1837 554.755 28.6624 553.163 29.1912C552.801 29.3116 552.421 29.4263 552.029 29.538C551.778 29.6083 551.524 29.6806 551.267 29.7365C550.606 29.8809 549.941 29.9869 549.322 30.0803C547.665 30.3288 546.371 30.4473 546.371 30.4473C546.189 30.4897 546.007 30.378 545.964 30.1969C545.921 30.0148 546.034 29.8328 546.215 29.7904C546.215 29.7904 547.425 29.3174 549.019 28.7992C549.614 28.6065 550.256 28.4043 550.912 28.2376C551.167 28.1731 551.427 28.123 551.683 28.0748C552.083 27.9988 552.475 27.9323 552.852 27.8774C554.513 27.6395 555.807 27.5267 555.807 27.5267Z" fill="black"/>
<path fill-rule="evenodd" clip-rule="evenodd" d="M546.655 40.8745C546.475 40.8282 546.366 40.6442 546.412 40.4641C546.458 40.284 546.643 40.1742 546.823 40.2204C546.823 40.2204 548.256 40.3928 550.088 40.7069C550.504 40.7791 550.938 40.8639 551.379 40.9583C551.663 41.0189 551.95 41.0806 552.233 41.1576C552.956 41.3542 553.667 41.5873 554.325 41.8078C556.085 42.4002 557.427 42.9319 557.427 42.9319C557.607 42.9782 557.716 43.1622 557.67 43.3423C557.624 43.5234 557.439 43.6322 557.259 43.586C557.259 43.586 555.826 43.4078 553.998 43.0832C553.314 42.9608 552.579 42.8241 551.849 42.6497C551.565 42.5813 551.283 42.4975 551.006 42.4147C550.573 42.2856 550.152 42.1517 549.753 42.0149C547.995 41.4119 546.655 40.8745 546.655 40.8745Z" fill="black"/>
<path fill-rule="evenodd" clip-rule="evenodd" d="M540.731 51.1408C540.582 51.0281 540.554 50.8162 540.667 50.6678C540.78 50.5195 540.992 50.4906 541.141 50.6033C541.141 50.6033 542.353 51.2891 543.868 52.2514C544.212 52.471 544.565 52.708 544.923 52.9575C545.153 53.1174 545.384 53.2792 545.607 53.4535C546.177 53.9005 546.72 54.3754 547.221 54.8204C548.56 56.0109 549.549 56.9915 549.549 56.9915C549.697 57.1042 549.726 57.3161 549.613 57.4645C549.5 57.6128 549.288 57.6417 549.139 57.529C549.139 57.529 547.929 56.8394 546.422 55.8674C545.859 55.5043 545.256 55.1084 544.672 54.6788C544.445 54.5121 544.226 54.332 544.011 54.1538C543.676 53.8754 543.351 53.599 543.048 53.3254C541.715 52.1252 540.731 51.1408 540.731 51.1408Z" fill="black"/>
<path fill-rule="evenodd" clip-rule="evenodd" d="M530.692 57.3971C530.617 57.2266 530.695 57.0263 530.866 56.9511C531.036 56.876 531.236 56.953 531.312 57.1245C531.312 57.1245 531.958 58.1215 532.715 59.4613C532.886 59.7648 533.055 60.0865 533.222 60.4198C533.329 60.6327 533.437 60.8494 533.531 61.0719C533.77 61.6421 533.974 62.2239 534.157 62.7662C534.649 64.2207 534.957 65.3689 534.957 65.3689C535.032 65.5394 534.955 65.7388 534.785 65.814C534.614 65.8891 534.414 65.812 534.339 65.6415C534.339 65.6415 533.697 64.6407 532.951 63.298C532.673 62.7971 532.38 62.2548 532.119 61.6942C532.018 61.4745 531.93 61.2491 531.844 61.0266C531.71 60.6789 531.587 60.3379 531.478 60.0065C530.995 58.5453 530.692 57.3971 530.692 57.3971Z" fill="black"/>
<path fill-rule="evenodd" clip-rule="evenodd" d="M517.233 59.4102C517.235 59.2243 517.389 59.075 517.576 59.0769C517.762 59.0788 517.912 59.232 517.91 59.4179C517.91 59.4179 518.084 60.6249 518.214 62.1969C518.244 62.5533 518.264 62.9251 518.277 63.3075C518.286 63.5522 518.295 63.7997 518.287 64.0473C518.268 64.6821 518.211 65.3111 518.152 65.8958C517.996 67.463 517.798 68.6661 517.798 68.6661C517.796 68.852 517.643 69.0013 517.455 68.9993C517.269 68.9974 517.12 68.8443 517.121 68.6574C517.121 68.6574 516.954 67.4505 516.834 65.8794C516.79 65.2937 516.748 64.6638 516.744 64.029C516.743 63.7814 516.758 63.5339 516.772 63.2892C516.794 62.9078 516.823 62.5359 516.862 62.1805C517.031 60.6123 517.233 59.4102 517.233 59.4102Z" fill="black"/>
<path fill-rule="evenodd" clip-rule="evenodd" d="M505.65 55.9079C505.782 55.776 505.996 55.776 506.129 55.9079C506.26 56.0389 506.26 56.2528 506.129 56.3847C506.129 56.3847 505.393 57.3836 504.369 58.6175C504.137 58.8978 503.887 59.183 503.625 59.47C503.457 59.654 503.286 59.8399 503.105 60.0152C502.64 60.4631 502.151 60.8812 501.694 61.2645C500.467 62.2943 499.469 63.0331 499.469 63.0331C499.337 63.165 499.123 63.165 498.991 63.0331C498.859 62.9011 498.859 62.6873 498.991 62.5553C498.991 62.5553 499.73 61.5593 500.762 60.3341C501.146 59.8775 501.565 59.3901 502.014 58.9258C502.189 58.7447 502.375 58.5742 502.56 58.4066C502.847 58.1456 503.133 57.8951 503.413 57.663C504.649 56.641 505.65 55.9079 505.65 55.9079Z" fill="black"/>
<path fill-rule="evenodd" clip-rule="evenodd" d="M499.404 46.1425C499.555 46.0327 499.767 46.0674 499.876 46.2177C499.985 46.3689 499.951 46.5798 499.8 46.6896C499.8 46.6896 499.111 47.4179 498.145 48.2992C497.927 48.4986 497.694 48.698 497.449 48.8964C497.293 49.0236 497.134 49.1527 496.966 49.2683C496.535 49.5659 496.086 49.8289 495.665 50.0687C494.531 50.716 493.624 51.1466 493.624 51.1466C493.473 51.2554 493.261 51.2208 493.152 51.0705C493.043 50.9193 493.077 50.7083 493.228 50.5985C493.228 50.5985 493.922 49.8741 494.893 49.0024C495.253 48.6787 495.644 48.3358 496.062 48.0199C496.225 47.8976 496.397 47.7868 496.567 47.6789C496.833 47.5084 497.095 47.3504 497.353 47.206C498.495 46.5673 499.404 46.1425 499.404 46.1425Z" fill="black"/>
<path fill-rule="evenodd" clip-rule="evenodd" d="M498.565 32.8564C498.752 32.8592 498.901 33.0124 498.899 33.1993C498.896 33.3852 498.742 33.5345 498.556 33.5316C498.556 33.5316 497.486 33.705 496.085 33.836C495.768 33.8649 495.437 33.8861 495.097 33.8986C494.879 33.9072 494.659 33.9159 494.439 33.9082C493.874 33.8899 493.315 33.8331 492.796 33.7743C491.4 33.6173 490.334 33.4208 490.334 33.4208C490.147 33.4179 489.998 33.2648 490 33.0779C490.003 32.892 490.156 32.7427 490.343 32.7456C490.343 32.7456 491.414 32.578 492.814 32.4585C493.335 32.4142 493.895 32.3718 494.46 32.3689C494.68 32.367 494.9 32.3815 495.117 32.3959C495.457 32.4181 495.787 32.4479 496.103 32.4855C497.5 32.655 498.565 32.8564 498.565 32.8564Z" fill="black"/>
<path fill-rule="evenodd" clip-rule="evenodd" d="M502.023 21.2781C502.205 21.3205 502.318 21.5026 502.275 21.6846C502.232 21.8657 502.05 21.9784 501.868 21.9351C501.868 21.9351 500.548 21.8176 498.855 21.5729C498.471 21.517 498.071 21.4486 497.663 21.3716C497.402 21.3215 497.137 21.2714 496.876 21.2049C496.208 21.0364 495.552 20.8312 494.945 20.6356C493.319 20.1116 492.083 19.6329 492.083 19.6329C491.902 19.5905 491.789 19.4085 491.832 19.2264C491.875 19.0453 492.057 18.9326 492.239 18.976C492.239 18.976 493.559 19.0983 495.248 19.3545C495.878 19.4499 496.557 19.5587 497.23 19.7061C497.493 19.7629 497.753 19.8362 498.009 19.9084C498.408 20.0211 498.797 20.1376 499.165 20.259C500.79 20.7946 502.023 21.2781 502.023 21.2781Z" fill="black"/>
<path fill-rule="evenodd" clip-rule="evenodd" d="M508.819 14.5104C508.945 14.6481 508.933 14.862 508.795 14.9872C508.656 15.1115 508.442 15.1009 508.318 14.9622C508.318 14.9622 507.396 14.2233 506.264 13.1936C506.007 12.9605 505.747 12.7101 505.485 12.4481C505.319 12.2795 505.149 12.109 504.991 11.9279C504.587 11.4646 504.215 10.9781 503.873 10.5235C502.956 9.30306 502.309 8.31477 502.309 8.31477C502.184 8.17607 502.195 7.96223 502.333 7.83797C502.472 7.71275 502.686 7.72334 502.811 7.86205C502.811 7.86205 503.729 8.60568 504.852 9.64213C505.27 10.0274 505.716 10.4474 506.137 10.8963C506.301 11.0716 506.453 11.2575 506.604 11.4405C506.838 11.7276 507.061 12.0108 507.268 12.2901C508.177 13.5192 508.819 14.5104 508.819 14.5104Z" fill="black"/>
<path fill-rule="evenodd" clip-rule="evenodd" d="M519.397 12.7158C519.405 12.9017 519.26 13.0597 519.074 13.0684C518.888 13.0761 518.73 12.9316 518.722 12.7457C518.722 12.7457 518.486 11.664 518.272 10.2422C518.224 9.92048 518.184 9.58431 518.151 9.2385C518.129 9.01696 518.108 8.79349 518.102 8.56809C518.088 7.9911 518.112 7.41701 518.14 6.88433C518.215 5.45198 518.35 4.35195 518.35 4.35195C518.341 4.16604 518.486 4.00808 518.673 4.00037C518.859 3.9917 519.017 4.13617 519.025 4.32208C519.025 4.32208 519.256 5.40573 519.457 6.82653C519.533 7.35439 519.607 7.92365 519.644 8.49968C519.658 8.72411 519.657 8.94951 519.655 9.17202C519.652 9.51975 519.643 9.85788 519.623 10.1825C519.536 11.6177 519.397 12.7158 519.397 12.7158Z" fill="black"/>
<path fill-rule="evenodd" clip-rule="evenodd" d="M531.568 13.4306C531.489 13.6001 531.288 13.6723 531.118 13.5934C530.95 13.5144 530.877 13.3131 530.956 13.1445C530.956 13.1445 531.289 11.9915 531.81 10.5283C531.929 10.196 532.062 9.85404 532.206 9.50631C532.298 9.28283 532.39 9.05742 532.498 8.83876C532.774 8.27719 533.082 7.7368 533.374 7.23689C534.155 5.89701 534.825 4.90005 534.825 4.90005C534.904 4.73148 535.106 4.65828 535.275 4.73726C535.444 4.81625 535.517 5.01756 535.438 5.18613C535.438 5.18613 535.099 6.33819 534.567 7.79558C534.369 8.33885 534.15 8.9216 533.896 9.49184C533.796 9.71435 533.682 9.93012 533.569 10.144C533.393 10.4763 533.215 10.798 533.035 11.1005C532.243 12.4375 531.568 13.4306 531.568 13.4306Z" fill="black"/>
</g>
<g clip-path="url(#clip3_20_1302)">
<path fill-rule="evenodd" clip-rule="evenodd" d="M120.558 33.0013C120.645 32.8197 120.56 32.5904 120.376 32.5134C120.189 32.4261 119.967 32.5047 119.883 32.6965C119.883 32.6965 118.432 35.355 116.674 38.8164C116.272 39.604 115.861 40.4386 115.45 41.2951C115.185 41.8413 114.919 42.399 114.664 42.9532C114.022 44.3904 113.42 45.8485 112.865 47.1924C111.391 50.7782 110.317 53.6216 110.317 53.6216C110.23 53.8032 110.312 54.0221 110.499 54.1093C110.687 54.1965 110.905 54.108 110.991 53.9265C110.991 53.9265 112.436 51.2587 114.184 47.8004C114.838 46.4927 115.543 45.0921 116.207 43.6595C116.468 43.1034 116.714 42.5408 116.954 41.9798C117.331 41.1115 117.693 40.2586 118.027 39.4364C119.488 35.8433 120.558 33.0013 120.558 33.0013Z" fill="black"/>
<path fill-rule="evenodd" clip-rule="evenodd" d="M125.859 51.225C126.044 51.1354 126.128 50.9213 126.04 50.7263C125.955 50.5415 125.736 50.464 125.548 50.5435C125.548 50.5435 124.393 50.8501 122.921 51.342C122.588 51.4542 122.246 51.5805 121.897 51.7197C121.674 51.8096 121.449 51.9004 121.228 52.0007C120.667 52.271 120.129 52.5789 119.633 52.8737C118.292 53.6473 117.306 54.324 117.306 54.324C117.118 54.4036 117.036 54.6278 117.121 54.8126C117.206 54.9975 117.429 55.0849 117.614 54.9953C117.614 54.9953 118.769 54.6886 120.235 54.1874C120.78 53.9996 121.363 53.7892 121.936 53.5483C122.158 53.4477 122.374 53.3377 122.587 53.2285C122.918 53.0502 123.239 52.8752 123.54 52.6948C124.874 51.9012 125.859 51.225 125.859 51.225Z" fill="black"/>
<path fill-rule="evenodd" clip-rule="evenodd" d="M90.9149 14.4281C91.0769 14.3012 91.1024 14.0606 90.9759 13.8995C90.8483 13.7387 90.6145 13.71 90.4535 13.8366C88.9836 14.9376 86.075 16.2321 82.826 17.2199C80.133 18.0386 77.2046 18.6407 74.6499 18.6745C73.7346 18.6867 72.9498 18.5261 72.3959 18.1956C71.8899 17.8948 71.6596 17.4216 71.8584 16.8068C72.0091 16.3507 72.3465 15.849 72.8716 15.2902C73.4535 14.6809 74.2525 14.0277 75.3094 13.3405C77.5114 11.8728 79.8857 10.8516 82.0924 10.1364C85.1729 9.15551 87.9305 8.77173 89.4949 8.77288C90.7484 8.76875 91.7838 9.09708 92.3061 9.68114C92.6906 10.1075 92.7333 10.6599 92.3252 11.2718C92.206 11.4411 92.2455 11.6731 92.4115 11.7889C92.5806 11.9149 92.81 11.8674 92.9313 11.7085C93.65 10.7583 93.5511 9.83485 92.9653 9.11487C92.3488 8.34878 91.0943 7.8099 89.5194 7.73431C87.8785 7.65663 84.9599 7.88983 81.6943 8.80501C79.3309 9.45702 76.792 10.4727 74.4174 11.9486C72.5111 13.1601 71.334 14.3052 70.7161 15.3025C70.1284 16.2572 70.0016 17.1163 70.1648 17.8206C70.3083 18.4422 70.6658 18.9765 71.2138 19.3753C72.0053 19.9663 73.2317 20.303 74.6983 20.2341C77.3776 20.0958 80.4254 19.3577 83.2051 18.3685C86.5245 17.182 89.4505 15.6383 90.9149 14.4281Z" fill="black"/>
<path fill-rule="evenodd" clip-rule="evenodd" d="M90.2869 14.4086C90.1665 14.2457 89.9317 14.2062 89.7686 14.3334C89.6024 14.4505 89.5667 14.6831 89.6903 14.8562C90.6096 16.2065 92.43 19.456 94.2066 22.6966C95.1302 24.3782 96.0417 26.0636 96.7895 27.4772C97.5456 28.8993 98.1401 30.038 98.3597 30.6254C98.5371 31.0704 98.4928 31.738 98.2589 32.4854C97.8454 33.8086 96.826 35.3159 95.0303 36.4827C93.2711 37.6163 90.8087 38.4314 87.4635 38.4284C87.2562 38.4138 87.0841 38.5769 87.0757 38.7791C87.0704 38.9913 87.2316 39.1641 87.4358 39.1685C92.0123 39.4957 95.1619 38.261 97.1682 36.62C98.7369 35.3337 99.6108 33.7819 99.9584 32.4677C100.21 31.5043 100.163 30.6426 99.937 30.0238C99.7349 29.4976 99.262 28.5217 98.5972 27.3157C97.9886 26.2146 97.2208 24.8958 96.3837 23.5315C94.1596 19.9058 91.4822 15.919 90.2869 14.4086Z" fill="black"/>
<path fill-rule="evenodd" clip-rule="evenodd" d="M77.1044 19.1145C77.0133 18.9315 76.7885 18.8558 76.605 18.9449C76.4204 19.0342 76.3461 19.2564 76.4382 19.4391C76.4382 19.4391 77.3969 21.8085 78.7628 24.9523C79.0651 25.6476 79.3939 26.3792 79.7421 27.1381C79.9582 27.6046 80.1815 28.0911 80.422 28.5723C81.0126 29.7565 81.6448 30.9392 82.2678 32.1024C83.3113 34.047 84.3421 35.8734 85.1135 37.3463C85.1975 37.5314 85.4193 37.6192 85.6039 37.5299C85.7925 37.4503 85.8749 37.2257 85.791 37.0405C85.1969 35.4804 84.4419 33.5147 83.5729 31.4728C83.0584 30.2654 82.5153 29.0225 81.9471 27.8315C81.7157 27.3475 81.4691 26.8681 81.2286 26.409C80.8449 25.672 80.4674 24.9662 80.0951 24.2922C78.4281 21.2955 77.1044 19.1145 77.1044 19.1145Z" fill="black"/>
<path fill-rule="evenodd" clip-rule="evenodd" d="M84.0303 36.7667C84.0854 36.5614 83.975 36.3622 83.7776 36.3003C83.5793 36.2386 83.3746 36.3563 83.3154 36.5517C82.3409 39.4756 82.4344 42.1968 83.2089 44.2009C84.0018 46.2549 85.5162 47.5463 87.3273 47.7718C89.1027 47.9638 91.4179 47.7146 93.8451 46.9989C95.8187 46.4099 97.8664 45.5213 99.77 44.4325C101.301 43.5459 102.734 42.5224 103.956 41.3859C106.076 39.411 107.567 37.1283 107.865 34.7092C107.899 34.5104 107.76 34.3199 107.556 34.2822C107.355 34.2547 107.163 34.3905 107.133 34.5994C106.588 37.4482 104.178 39.9325 101.16 41.8812C99.1214 43.1995 96.7919 44.2514 94.5315 45.0052C93.318 45.4073 92.1297 45.7353 91.0069 45.9436C89.6995 46.197 88.4931 46.3198 87.4719 46.2422C85.8269 46.1326 84.5638 44.6982 83.9781 42.6366C83.5118 40.9933 83.4625 38.9572 84.0303 36.7667Z" fill="black"/>
<path fill-rule="evenodd" clip-rule="evenodd" d="M98.6988 29.1139C98.4999 29.1633 98.3696 29.3581 98.4089 29.5568C98.4483 29.7555 98.6438 29.8845 98.8458 29.8453C99.4653 29.8122 100.103 29.9066 100.772 30.047C101.188 30.142 101.597 30.2616 102.014 30.3899C102.352 30.4868 102.689 30.6173 103.022 30.7266C103.362 30.845 103.699 30.9533 104.025 31.0757C104.612 31.3075 105.16 31.5289 105.634 31.8062C106.198 32.1448 106.67 32.4782 106.952 32.8911C107.046 33.0735 107.267 33.1391 107.451 33.05C107.635 32.9607 107.706 32.7287 107.612 32.5463C107.312 31.7175 106.583 30.8746 105.575 30.1611C105.039 29.7807 104.421 29.4363 103.76 29.1939C103.504 29.0944 103.238 29.0199 102.97 28.9574C102.568 28.8688 102.161 28.7932 101.754 28.7726C100.666 28.6932 99.619 28.8119 98.6988 29.1139Z" fill="black"/>
<path fill-rule="evenodd" clip-rule="evenodd" d="M103.167 53.7218C100.163 49.5018 96.8271 44.939 96.8271 44.939C96.7137 44.7739 96.4809 44.7227 96.3117 44.8407C96.1425 44.9587 96.0956 45.1836 96.2121 45.3589C96.2121 45.3589 99.4804 50.6074 102.371 55.1059C104.58 58.5476 106.573 61.545 106.573 61.545C106.821 61.9133 107.307 62.0317 107.691 61.8151C108.075 61.5985 108.233 61.1293 108.049 60.7194C108.049 60.7194 106.571 57.4766 104.826 53.8385C102.533 49.0583 99.7934 43.5827 99.7934 43.5827C99.7094 43.3975 99.4876 43.3097 99.302 43.3994C99.1134 43.4789 99.0309 43.7036 99.1149 43.8887C99.1149 43.8887 101.187 49.0241 103.167 53.7218Z" fill="black"/>
<path fill-rule="evenodd" clip-rule="evenodd" d="M83.47 37.4247L74.5967 32.849C74.5967 32.849 74.5404 28.6751 72.6753 27.8341C70.4101 26.8042 66.7883 28.6149 65.1756 31.7107C63.351 35.2146 64.3187 38.9007 66.4657 39.5895C68.1978 40.1384 69.9283 38.6589 69.9283 38.6589C69.9283 38.6589 79.4571 48.7451 80.1978 50.6819C80.1978 50.6819 79.1577 55.3222 84.6975 54.8908C88.4083 54.6053 92.4478 51.4592 92.4478 51.4592L106.806 60.3768L106.768 60.3217L93.5398 50.3732C93.5398 50.3732 96.4365 48.3506 97.3188 46.3306L96.5211 45.154C93.1963 46.5307 89.7979 47.2312 87.3996 47.0068C84.2819 46.7018 82.2659 42.5028 83.47 37.4247Z" fill="black"/>
</g>
<defs>
<clipPath id="clip0_20_1302">
<rect width="109" height="66.3041" fill="white" transform="translate(0 82)"/>
</clipPath>
<clipPath id="clip1_20_1302">
<rect width="76" height="67.7091" fill="white" transform="translate(572 77)"/>
</clipPath>
<clipPath id="clip2_20_1302">
<rect width="67.6804" height="65" fill="white" transform="translate(490 4)"/>
</clipPath>
<clipPath id="clip3_20_1302">
<rect width="55" height="58.3221" fill="white" transform="matrix(-0.956762 0.290872 0.290872 0.956762 110.622 0)"/>
</clipPath>
</defs>
</svg>
