<svg width="22" height="23" viewBox="0 0 22 23" fill="none" xmlns="http://www.w3.org/2000/svg">
<g clip-path="url(#clip0_20_1343)">
<path d="M21.7939 8.43446L19.05 3.68744C18.1977 4.17858 14.6359 6.83521 12.446 8.9946C13.2233 6.01731 13.7429 1.6011 13.7429 0.62085H8.25915C8.25915 1.6011 8.7787 6.0234 9.556 8.9946C7.36616 6.83318 3.79829 4.17655 2.95198 3.68744L0.206055 8.43446C1.05845 8.9256 5.13979 10.6892 8.10693 11.501C5.13979 12.3189 1.05845 14.0765 0.206055 14.5676L2.94995 19.3147C3.80235 18.8235 7.36413 16.1669 9.55397 14.0075C8.77667 16.9848 8.25712 21.401 8.25712 22.3812H13.7409C13.7409 21.401 13.2213 16.9787 12.444 14.0075C14.6338 16.1689 18.2017 18.8255 19.048 19.3147L21.7919 14.5676C20.9395 14.0765 16.8582 12.3129 13.891 11.501C16.8582 10.6832 20.9395 8.9256 21.7919 8.43446H21.7939Z" fill="#FFAC1D"/>
</g>
<defs>
<clipPath id="clip0_20_1343">
<rect width="21.5879" height="21.7584" fill="white" transform="translate(0.206055 0.62085)"/>
</clipPath>
</defs>
</svg>
